M48
;Layer_Color=9474304
;FILE_FORMAT=2:5
INCH,LZ
;TYPE=PLATED
T1F00S00C0.01181
T2F00S00C0.03543
T3F00S00C0.04331
T4F00S00C0.04724
;TYPE=NON_PLATED
T5F00S00C0.07874
T6F00S00C0.12598
%
T01
X00127Y005
X001Y00531
X00542Y0041248
X0062837Y0036046
X0044437Y0020696
X0072815Y0034096
X00997Y00308
X01032Y00307
X0100937Y0019696
X00937Y00195
X0125937Y0020896
X0124876Y0024046
X0119237Y0029296
X01334Y00326
X0134737Y0021096
X0141637Y0023996
X0149837Y0026996
X0148137Y0017196
X0181212Y001777
X0184361
X0187511
X0190661
X019381
X0199463Y0017172
Y0020322
X0198304Y0027
X0193786Y00279
X0198237Y0032796
X0197Y00475
X0193786Y0047547
X0187511Y0048022
X0184361
X0181212
X0178062
X01742Y00388
X01716Y00407
X0169Y0043
X01606Y00516
X01193Y00512
X0204437Y0054496
X0211737Y0048644
Y0045396
Y0042196
Y0039046
X02059Y0013791
X02086Y0008098
X0178039Y0006096
X0238669Y0107431
X0244968Y0188502
X0250437Y0195596
X023Y01966
X01691Y01082
X0166Y00683
X01783Y00631
X0189Y00683
X0156Y00569
X01354Y00768
X01318
X01276Y00769
X01222Y00696
X0112237Y0072296
X0105937Y0072596
X00931Y00696
X0090437Y0066445
X0092836Y0063197
X00797Y0081209
X01109Y0148327
X01113Y0158327
X0025737Y0155496
Y0165496
X0025337Y0175496
Y0185496
X0040137Y0193196
X00478Y02102
X0025737Y0145496
Y0135496
X00233Y01214
X004Y01127
X00441Y01135
X0049437Y00996
X00078Y00579
X0051633Y0283528
X0050437Y0288196
X0046937Y0288296
X0053437Y0290596
X0056037Y0292996
X00643Y02951
X00476Y03031
X00444Y03032
X00397Y03147
X00424Y03184
X0046937Y0317596
X0050537Y0320596
X0050639Y0323746
X0049235Y0326796
Y0330195
X0049437Y0333396
X0038637Y0345696
X0035337Y0345796
X0035437Y0360196
X00153Y03601
X00086Y03426
X0019457Y0330126
Y0326976
Y0323827
Y0320677
X0029337Y0316398
X00584Y03534
X0072337Y0349096
Y0345096
X0074337Y0360196
X02096Y02796
X02075Y02493
X0232699Y0253294
Y0243294
X0232599Y0233297
X02426Y02689
X0283037Y0273296
X0283137Y0283196
X0283037Y0293396
Y0303196
Y0313296
Y0323296
Y0263296
Y0253296
X0283137Y0243296
X0029137Y0370496
T02
X0263937Y0143996
Y0153996
Y0163996
Y0173996
Y0183996
Y0193996
Y0203996
X0073937Y0193996
Y0183996
Y0173996
Y0163996
Y0153996
Y0143996
Y0213996
Y0223996
Y0233996
Y0243996
Y0253996
Y0263996
Y0273996
Y0283996
X0263937Y0279996
Y0289996
Y0299996
Y0309996
Y0319996
Y0269996
Y0259996
Y0249996
Y0239996
Y0229996
Y0213996
T03
X0283037Y0012384
X0284287Y0022384
X0283037Y0032384
X0284287Y0042384
X0283037Y0052384
X0284287Y0062384
X0045337Y0137696
Y0147696
Y0157696
Y0167696
Y0177696
Y0187696
T04
X0119137Y0368244
X0129137
X0139137
X0149137
X0159137
X0179137
X0189137
X0199137
X0209137
X0219137
Y0378244
X0209137
X0199137
X0189137
X0179137
X0159137
X0149137
X0139137
X0129137
X0119137
T05
X0169137Y0122496
Y0342496
T06
X0015748Y0015748
X0299213Y0082677
Y0385827
X0015748
M30
