G04*
G04 #@! TF.GenerationSoftware,Altium Limited,Altium Designer,19.0.14 (431)*
G04*
G04 Layer_Physical_Order=1*
G04 Layer_Color=255*
%FSLAX44Y44*%
%MOMM*%
G71*
G01*
G75*
%ADD18R,0.3000X0.5000*%
%ADD19R,0.6000X0.7000*%
%ADD20R,0.4000X0.6000*%
%ADD21R,0.5000X0.3000*%
%ADD22R,0.7000X0.6000*%
%ADD23R,1.2500X0.8000*%
%ADD24R,0.8000X1.2500*%
%ADD25R,0.2500X0.5000*%
%ADD26C,1.0000*%
%ADD27R,0.5000X1.1000*%
%ADD28R,0.4000X1.2000*%
%ADD29R,1.2000X0.4000*%
%ADD30R,0.7500X1.6000*%
%ADD50C,0.3000*%
%ADD51C,0.4000*%
%ADD52C,1.0000*%
%ADD53C,0.8000*%
%ADD54C,0.6000*%
%ADD55C,0.5000*%
%ADD56R,1.6000X1.6000*%
%ADD57C,2.0000*%
%ADD58C,1.5000*%
%ADD59C,3.2000*%
%ADD60R,1.6000X1.6000*%
%ADD61C,1.6000*%
%ADD62C,0.6000*%
D18*
X397914Y31994D02*
D03*
X404914D02*
D03*
X397914Y19040D02*
D03*
X404914D02*
D03*
X167424Y33010D02*
D03*
X160424D02*
D03*
X184950Y33264D02*
D03*
X177950D02*
D03*
X118764Y262880D02*
D03*
X125764D02*
D03*
X81826Y471160D02*
D03*
X74826D02*
D03*
X80048Y445760D02*
D03*
X73048D02*
D03*
X80048Y420360D02*
D03*
X73048D02*
D03*
X80048Y394960D02*
D03*
X73048D02*
D03*
X80048Y369560D02*
D03*
X73048D02*
D03*
X80048Y344160D02*
D03*
X73048D02*
D03*
X158026Y590540D02*
D03*
X151026D02*
D03*
X158026Y565140D02*
D03*
X151026D02*
D03*
X158026Y539740D02*
D03*
X151026D02*
D03*
X158026Y514340D02*
D03*
X151026D02*
D03*
X158026Y488940D02*
D03*
X151026D02*
D03*
X158026Y463540D02*
D03*
X151026D02*
D03*
X158026Y438140D02*
D03*
X151026D02*
D03*
X158026Y412740D02*
D03*
X151026D02*
D03*
X158026Y388610D02*
D03*
X151026D02*
D03*
X158026Y361940D02*
D03*
X151026D02*
D03*
X197650Y336540D02*
D03*
X190650D02*
D03*
X197650Y311140D02*
D03*
X190650D02*
D03*
X198920Y285740D02*
D03*
X191920D02*
D03*
X158026Y615940D02*
D03*
X151026D02*
D03*
X158026Y641340D02*
D03*
X151026D02*
D03*
X158026Y666740D02*
D03*
X151026D02*
D03*
X158026Y692140D02*
D03*
X151026D02*
D03*
X158026Y717540D02*
D03*
X151026D02*
D03*
X197650Y742940D02*
D03*
X190650D02*
D03*
X197650Y768340D02*
D03*
X190650D02*
D03*
X197650Y793740D02*
D03*
X190650D02*
D03*
X197650Y819140D02*
D03*
X190650D02*
D03*
X197650Y844540D02*
D03*
X190650D02*
D03*
X197650Y869940D02*
D03*
X190650D02*
D03*
X197650Y895340D02*
D03*
X190650D02*
D03*
X197650Y935340D02*
D03*
X190650D02*
D03*
X197650Y960740D02*
D03*
X190650D02*
D03*
X703984Y364234D02*
D03*
X710984D02*
D03*
X703984Y389605D02*
D03*
X710984D02*
D03*
X703984Y414976D02*
D03*
X710984D02*
D03*
X703984Y440347D02*
D03*
X710984D02*
D03*
X703984Y465718D02*
D03*
X710984D02*
D03*
X703984Y491088D02*
D03*
X710984D02*
D03*
X703984Y516459D02*
D03*
X710984D02*
D03*
X703984Y541830D02*
D03*
X710984D02*
D03*
X703984Y567201D02*
D03*
X710984D02*
D03*
X703984Y592572D02*
D03*
X710984D02*
D03*
X703984Y618226D02*
D03*
X710984D02*
D03*
X703984Y643627D02*
D03*
X710984D02*
D03*
X703984Y669027D02*
D03*
X710984D02*
D03*
X703984Y694428D02*
D03*
X710984D02*
D03*
X703984Y719829D02*
D03*
X710984D02*
D03*
X703984Y745229D02*
D03*
X710984D02*
D03*
X703984Y770630D02*
D03*
X710984D02*
D03*
X703984Y796031D02*
D03*
X710984D02*
D03*
X703984Y821432D02*
D03*
X710984D02*
D03*
X655978Y288034D02*
D03*
X662978D02*
D03*
X655978Y313557D02*
D03*
X662978D02*
D03*
X655978Y339080D02*
D03*
X662978D02*
D03*
X655978Y846572D02*
D03*
X662978D02*
D03*
X655978Y872226D02*
D03*
X662978D02*
D03*
X655978Y897880D02*
D03*
X662978D02*
D03*
D19*
X385590Y31740D02*
D03*
X376090D02*
D03*
X385590Y18786D02*
D03*
X376090D02*
D03*
X615460Y592834D02*
D03*
X605960D02*
D03*
X245280Y463540D02*
D03*
X254780D02*
D03*
X615460Y567434D02*
D03*
X605960D02*
D03*
X245280Y488940D02*
D03*
X254780D02*
D03*
X615460Y542034D02*
D03*
X605960D02*
D03*
X245280Y514340D02*
D03*
X254780D02*
D03*
X615460Y516634D02*
D03*
X605960D02*
D03*
X245280Y539740D02*
D03*
X254780D02*
D03*
X615460Y491234D02*
D03*
X605960D02*
D03*
X245280Y565140D02*
D03*
X254780D02*
D03*
X615460Y465834D02*
D03*
X605960D02*
D03*
X245280Y590540D02*
D03*
X254780D02*
D03*
X615460Y440434D02*
D03*
X605960D02*
D03*
X245280Y615940D02*
D03*
X254780D02*
D03*
X615460Y415034D02*
D03*
X605960D02*
D03*
X245280Y641340D02*
D03*
X254780D02*
D03*
X615460Y389634D02*
D03*
X605960D02*
D03*
X245280Y666740D02*
D03*
X254780D02*
D03*
X615714Y872233D02*
D03*
X606214D02*
D03*
X615460Y364234D02*
D03*
X605960D02*
D03*
X245280Y692140D02*
D03*
X254780D02*
D03*
X615714Y846832D02*
D03*
X606214D02*
D03*
X615460Y338834D02*
D03*
X605960D02*
D03*
X245280Y717540D02*
D03*
X254780D02*
D03*
X615714Y821432D02*
D03*
X606214D02*
D03*
X615460Y313434D02*
D03*
X605960D02*
D03*
X245280Y742940D02*
D03*
X254780D02*
D03*
X615714Y796031D02*
D03*
X606214D02*
D03*
X615460Y288034D02*
D03*
X605960D02*
D03*
X245280Y768340D02*
D03*
X254780D02*
D03*
X615714Y770630D02*
D03*
X606214D02*
D03*
X245280Y793740D02*
D03*
X254780D02*
D03*
X615714Y745229D02*
D03*
X606214D02*
D03*
X245280Y311140D02*
D03*
X254780D02*
D03*
X245280Y819140D02*
D03*
X254780D02*
D03*
X615714Y719829D02*
D03*
X606214D02*
D03*
X245280Y336540D02*
D03*
X254780D02*
D03*
X245280Y844540D02*
D03*
X254780D02*
D03*
X615714Y694428D02*
D03*
X606214D02*
D03*
X245280Y361940D02*
D03*
X254780D02*
D03*
X245280Y869940D02*
D03*
X254780D02*
D03*
X615714Y669027D02*
D03*
X606214D02*
D03*
X245280Y388610D02*
D03*
X254780D02*
D03*
X245280Y895340D02*
D03*
X254780D02*
D03*
X615714Y643627D02*
D03*
X606214D02*
D03*
X245280Y412740D02*
D03*
X254780D02*
D03*
X245280Y935340D02*
D03*
X254780D02*
D03*
X615714Y618226D02*
D03*
X606214D02*
D03*
X245280Y438140D02*
D03*
X254780D02*
D03*
X615714Y897634D02*
D03*
X606214D02*
D03*
X245280Y285740D02*
D03*
X254780D02*
D03*
X245280Y960740D02*
D03*
X254780D02*
D03*
D20*
X108196Y277457D02*
D03*
X98696Y299457D02*
D03*
X117696D02*
D03*
X108196D02*
D03*
X117696Y277457D02*
D03*
X98696D02*
D03*
D21*
X107282Y256642D02*
D03*
Y263642D02*
D03*
X95090Y256586D02*
D03*
Y263586D02*
D03*
D22*
X92296Y344998D02*
D03*
Y354498D02*
D03*
X94074Y471998D02*
D03*
Y481498D02*
D03*
X92296Y370398D02*
D03*
Y379898D02*
D03*
Y395798D02*
D03*
Y405298D02*
D03*
Y421198D02*
D03*
Y430698D02*
D03*
Y446598D02*
D03*
Y456098D02*
D03*
D23*
X79088Y289194D02*
D03*
Y308194D02*
D03*
X126078Y33670D02*
D03*
Y52670D02*
D03*
X192626Y172608D02*
D03*
Y191608D02*
D03*
X130626Y686206D02*
D03*
Y705206D02*
D03*
X163416Y781244D02*
D03*
Y762244D02*
D03*
X56990Y914948D02*
D03*
Y933948D02*
D03*
X544322Y65176D02*
D03*
Y84176D02*
D03*
X391254Y114056D02*
D03*
Y133056D02*
D03*
D24*
X237736Y65014D02*
D03*
X256736D02*
D03*
X287376Y219964D02*
D03*
X268376D02*
D03*
X122624Y914898D02*
D03*
X103624D02*
D03*
X483608Y159502D02*
D03*
X502608D02*
D03*
D25*
X124360Y71364D02*
D03*
X131860D02*
D03*
D26*
X159606Y122672D02*
D03*
D27*
X146906Y53330D02*
D03*
X159606D02*
D03*
X172306D02*
D03*
X185006D02*
D03*
X146906Y104330D02*
D03*
X159606D02*
D03*
X172306D02*
D03*
X185006D02*
D03*
D28*
X309080Y199770D02*
D03*
X301080D02*
D03*
X293080D02*
D03*
X285080D02*
D03*
X277080D02*
D03*
X269080D02*
D03*
X261080D02*
D03*
X253080D02*
D03*
X245080D02*
D03*
X237080D02*
D03*
X229080D02*
D03*
Y89770D02*
D03*
X237080D02*
D03*
X245080D02*
D03*
X253080D02*
D03*
X261080D02*
D03*
X269080D02*
D03*
X277080D02*
D03*
X285080D02*
D03*
X293080D02*
D03*
X301080D02*
D03*
X309080D02*
D03*
X50264Y893444D02*
D03*
X58264D02*
D03*
X66264D02*
D03*
X74264D02*
D03*
X82264D02*
D03*
X90264D02*
D03*
X98264D02*
D03*
X106264D02*
D03*
X114264D02*
D03*
X122264D02*
D03*
X130264D02*
D03*
Y783444D02*
D03*
X122264D02*
D03*
X114264D02*
D03*
X106264D02*
D03*
X98264D02*
D03*
X90264D02*
D03*
X82264D02*
D03*
X74264D02*
D03*
X66264D02*
D03*
X58264D02*
D03*
X50264D02*
D03*
X428216Y138556D02*
D03*
X436216D02*
D03*
X444216D02*
D03*
X452216D02*
D03*
X460216D02*
D03*
X468216D02*
D03*
X476216D02*
D03*
X484216D02*
D03*
X492216D02*
D03*
X500216D02*
D03*
X508216D02*
D03*
Y28556D02*
D03*
X500216D02*
D03*
X492216D02*
D03*
X484216D02*
D03*
X476216D02*
D03*
X468216D02*
D03*
X460216D02*
D03*
X452216D02*
D03*
X444216D02*
D03*
X436216D02*
D03*
X428216D02*
D03*
D29*
X214080Y104770D02*
D03*
Y112770D02*
D03*
Y120770D02*
D03*
Y128770D02*
D03*
Y136770D02*
D03*
Y144770D02*
D03*
Y152770D02*
D03*
Y160770D02*
D03*
Y168770D02*
D03*
Y176770D02*
D03*
Y184770D02*
D03*
X324080D02*
D03*
Y176770D02*
D03*
Y168770D02*
D03*
Y160770D02*
D03*
Y152770D02*
D03*
Y144770D02*
D03*
Y136770D02*
D03*
Y128770D02*
D03*
Y120770D02*
D03*
Y112770D02*
D03*
Y104770D02*
D03*
X145264Y798444D02*
D03*
Y806444D02*
D03*
Y814444D02*
D03*
Y822444D02*
D03*
Y830444D02*
D03*
Y838444D02*
D03*
Y846444D02*
D03*
Y854444D02*
D03*
Y862444D02*
D03*
Y870444D02*
D03*
Y878444D02*
D03*
X35264D02*
D03*
Y870444D02*
D03*
Y862444D02*
D03*
Y854444D02*
D03*
Y846444D02*
D03*
Y838444D02*
D03*
Y830444D02*
D03*
Y822444D02*
D03*
Y814444D02*
D03*
Y806444D02*
D03*
Y798444D02*
D03*
X523216Y43556D02*
D03*
Y51556D02*
D03*
Y59556D02*
D03*
Y67556D02*
D03*
Y75556D02*
D03*
Y83556D02*
D03*
Y91556D02*
D03*
Y99556D02*
D03*
Y107556D02*
D03*
Y115556D02*
D03*
Y123556D02*
D03*
X413216D02*
D03*
Y115556D02*
D03*
Y107556D02*
D03*
Y99556D02*
D03*
Y91556D02*
D03*
Y83556D02*
D03*
Y75556D02*
D03*
Y67556D02*
D03*
Y59556D02*
D03*
Y51556D02*
D03*
Y43556D02*
D03*
D30*
X148176Y914898D02*
D03*
X173176D02*
D03*
D50*
X80048Y445760D02*
Y446179D01*
X91877D01*
X92296Y446598D01*
X80048Y420360D02*
Y420779D01*
X91877D01*
X92296Y421198D01*
X80048Y369560D02*
Y369979D01*
X91877D01*
X92296Y370398D01*
X80048Y344160D02*
Y344579D01*
X91877D01*
X92296Y344998D01*
X80048Y394960D02*
Y395379D01*
X91877D01*
X92296Y395798D01*
X64356Y445760D02*
X73048D01*
X65372Y394960D02*
X73048D01*
X65372Y369560D02*
X73048D01*
X65372Y344160D02*
X73048D01*
X65372Y420360D02*
X73048D01*
X667616Y683006D02*
X670400Y685790D01*
X616204Y683006D02*
X667616D01*
X158026Y614940D02*
X158828D01*
X219560Y607060D02*
X228440Y615940D01*
X166708Y607060D02*
X219560D01*
X158828Y614940D02*
X166708Y607060D01*
X261580Y79372D02*
X295900Y45052D01*
X710730Y821427D02*
X718660D01*
X662978Y871226D02*
X693986D01*
X730852Y834360D01*
X662978Y896880D02*
X675403D01*
X735852Y836431D01*
X81826Y471160D02*
X93236D01*
X94074Y471998D01*
X64356Y471160D02*
X74826D01*
X146869Y489147D02*
X151026D01*
X136478Y499538D02*
X146869Y489147D01*
X151026Y488940D02*
Y489147D01*
X333580Y125554D02*
X398954Y190928D01*
X262288Y245928D02*
X629320D01*
X264949Y240928D02*
X631391D01*
X267020Y235928D02*
X633462D01*
X260376Y210998D02*
Y229284D01*
X282390Y230928D02*
X635534D01*
X277080Y199770D02*
Y225618D01*
X86126Y611652D02*
Y757395D01*
X245080Y199770D02*
Y228720D01*
X262288Y245928D01*
X260376Y229284D02*
X267020Y235928D01*
X277080Y225618D02*
X282390Y230928D01*
X324080Y120770D02*
X329030D01*
X333580Y125320D01*
Y125554D01*
X145906Y57330D02*
X146906Y56330D01*
X132110Y70364D02*
X132860D01*
X145894Y57330D02*
X145906D01*
X132860Y70364D02*
X145894Y57330D01*
X131860Y70614D02*
X132110Y70364D01*
X253080Y199770D02*
Y229059D01*
X264949Y240928D01*
X131860Y70614D02*
Y71364D01*
X146906Y53330D02*
Y56330D01*
X577596Y88138D02*
X770998Y281540D01*
X577596Y79756D02*
Y88138D01*
X554228Y56388D02*
X577596Y79756D01*
X535900Y56388D02*
X554228D01*
X311710Y225928D02*
X637605D01*
X317591Y215928D02*
X641747D01*
X388728Y210928D02*
X643818D01*
X391348Y205928D02*
X645889D01*
X393460Y200928D02*
X647960D01*
X396588Y195928D02*
X650031D01*
X398954Y190928D02*
X652102D01*
X662735Y279343D02*
Y287034D01*
X629320Y245928D02*
X662735Y279343D01*
X670400Y279936D02*
Y309108D01*
X631391Y240928D02*
X670400Y279936D01*
X677004Y279469D02*
Y329174D01*
X633462Y235928D02*
X677004Y279469D01*
X710984Y306378D02*
Y364234D01*
X635534Y230928D02*
X710984Y306378D01*
X715984Y304307D02*
Y383605D01*
X637605Y225928D02*
X715984Y304307D01*
X720984Y302236D02*
Y404976D01*
X639676Y220928D02*
X720984Y302236D01*
X315520Y220928D02*
X639676D01*
X725984Y300165D02*
Y429292D01*
X641747Y215928D02*
X725984Y300165D01*
X730984Y298094D02*
Y453502D01*
X643818Y210928D02*
X730984Y298094D01*
X735984Y296023D02*
Y475680D01*
X645889Y205928D02*
X735984Y296023D01*
X740984Y293952D02*
Y504208D01*
X647960Y200928D02*
X740984Y293952D01*
X745984Y291881D02*
Y525965D01*
X650031Y195928D02*
X745984Y291881D01*
X750984Y289810D02*
Y547040D01*
X652102Y190928D02*
X750984Y289810D01*
X755998Y287753D02*
Y556504D01*
X654173Y185928D02*
X755998Y287753D01*
X402188Y185928D02*
X654173D01*
X760998Y285682D02*
Y558575D01*
X567492Y92176D02*
X760998Y285682D01*
X529473Y92176D02*
X567492D01*
X765998Y283611D02*
Y560646D01*
X557943Y75556D02*
X765998Y283611D01*
X523216Y75556D02*
X557943D01*
X770998Y281540D02*
Y562717D01*
X139353Y737710D02*
X145288Y731775D01*
Y710692D02*
Y731775D01*
Y710692D02*
X151026Y704954D01*
X136134Y737710D02*
X139353D01*
X135730Y738114D02*
X136134Y737710D01*
X151026Y717540D02*
Y742453D01*
X149269Y744210D02*
X151026Y742453D01*
X142334Y744210D02*
X149269D01*
X132869Y683963D02*
X149753D01*
X163166Y670550D01*
X187800D01*
X130626Y686206D02*
X132869Y683963D01*
X126084Y666740D02*
X151026D01*
X114808Y678016D02*
X126084Y666740D01*
X114808Y678016D02*
Y718668D01*
X128110Y731970D01*
Y732018D01*
X107188Y667990D02*
X133838Y641340D01*
X107188Y667990D02*
Y720240D01*
X119220Y732272D01*
X99822Y739036D02*
X145264Y784478D01*
X99822Y639572D02*
X123454Y615940D01*
X99822Y639572D02*
Y739036D01*
X106264Y769112D02*
Y783444D01*
X93218Y756066D02*
X106264Y769112D01*
X93218Y611632D02*
Y756066D01*
X86126Y757395D02*
X98264Y769533D01*
Y783444D01*
X90264Y768604D02*
Y783444D01*
X81050Y609658D02*
Y759390D01*
X90264Y768604D01*
X82264Y770382D02*
Y783444D01*
X74930Y763048D02*
X82264Y770382D01*
X74930Y606886D02*
Y763048D01*
Y606886D02*
X141478Y540338D01*
X151026Y692140D02*
Y704954D01*
X133838Y641340D02*
X151026D01*
X123454Y615940D02*
X151026D01*
X538292Y395798D02*
X591820Y449326D01*
X300734Y395798D02*
X538292D01*
X281686Y376750D02*
X300734Y395798D01*
X131478Y484088D02*
Y536196D01*
Y484088D02*
X151026Y464540D01*
Y463540D02*
Y464540D01*
X293580Y207798D02*
X311710Y225928D01*
X293580Y200270D02*
Y207798D01*
X293080Y199770D02*
X293580Y200270D01*
X303580Y208988D02*
X315520Y220928D01*
X303580Y206270D02*
Y208988D01*
X301080Y203770D02*
X303580Y206270D01*
X301080Y199770D02*
Y203770D01*
X313823Y212160D02*
X317591Y215928D01*
X313823Y208513D02*
Y212160D01*
X309080Y203770D02*
X313823Y208513D01*
X309080Y199770D02*
Y203770D01*
X136478Y499538D02*
Y538267D01*
X58264Y609410D02*
X131478Y536196D01*
X66264Y608481D02*
X136478Y538267D01*
X141478Y523888D02*
Y540338D01*
Y523888D02*
X151026Y514340D01*
X66264Y608481D02*
Y783444D01*
X58264Y609410D02*
Y783444D01*
X130626Y560140D02*
X151026Y539740D01*
X130568Y560140D02*
X130626D01*
X710984Y464718D02*
X719768D01*
X338570Y160770D02*
X388728Y210928D01*
X324080Y160770D02*
X338570D01*
X338190Y152770D02*
X391348Y205928D01*
X324080Y152770D02*
X338190D01*
X337302Y144770D02*
X393460Y200928D01*
X324080Y144770D02*
X337302D01*
X337430Y136770D02*
X396588Y195928D01*
X324080Y136770D02*
X337430D01*
X331530Y115270D02*
X402188Y185928D01*
X330580Y115270D02*
X331530D01*
X384048Y160274D02*
X452882D01*
X346202Y122428D02*
X384048Y160274D01*
X346202Y101854D02*
Y122428D01*
X710984Y591942D02*
X720560D01*
X710984Y440137D02*
X715139D01*
X710984Y413976D02*
X711984D01*
X328080Y112770D02*
X330580Y115270D01*
X324080Y112770D02*
X328080D01*
X260376Y210998D02*
X261080Y210294D01*
Y199770D02*
Y210294D01*
X218798Y378968D02*
X228440Y388610D01*
X167470Y378968D02*
X218798D01*
X158828Y387610D02*
X167470Y378968D01*
X81050Y609658D02*
X130568Y560140D01*
X158026Y387610D02*
X158828D01*
X132639Y565140D02*
X151026D01*
X86126Y611652D02*
X132639Y565140D01*
X114310Y590540D02*
X151026D01*
X93218Y611632D02*
X114310Y590540D01*
X33244Y830520D02*
X49422D01*
X34764Y838520D02*
X49422D01*
X338836Y82804D02*
X339090D01*
X355842Y99556D01*
X413216D01*
X312156Y67808D02*
X346202Y101854D01*
X20320Y156146D02*
Y830326D01*
Y156146D02*
X26312Y150154D01*
X20320Y830326D02*
X27938Y837944D01*
X25764Y826229D02*
X29479Y829944D01*
X25764Y160164D02*
Y826229D01*
X15320Y151304D02*
Y832397D01*
X10320Y135476D02*
Y834468D01*
X54240Y91556D02*
X159606D01*
X10320Y135476D02*
X54240Y91556D01*
X26312Y137907D02*
Y150154D01*
X25974Y137569D02*
X26312Y137907D01*
X25974Y136210D02*
Y137569D01*
X25400Y135636D02*
X25974Y136210D01*
X25400Y135636D02*
X25654Y135382D01*
X27938Y837944D02*
X34764D01*
X15320Y151304D02*
X19558Y147066D01*
X19812D01*
X435356Y82804D02*
Y103378D01*
X668632Y633222D02*
X670400Y634990D01*
X527050Y633222D02*
X668632D01*
X532384Y711190D02*
X670400D01*
X33244Y814520D02*
X49422D01*
X435356Y103378D02*
X435864D01*
X420108Y67556D02*
X435356Y82804D01*
X413216Y67556D02*
X420108D01*
X35264Y814444D02*
X35318Y814390D01*
X442468Y79788D02*
Y98552D01*
X422236Y59556D02*
X442468Y79788D01*
X407091Y60056D02*
X412716D01*
X413216Y59556D02*
X422236D01*
X412716Y60056D02*
X413216Y59556D01*
X380586Y68570D02*
X388968Y60188D01*
X406959D02*
X407091Y60056D01*
X388968Y60188D02*
X406959D01*
X302288Y74986D02*
X302862Y74412D01*
X293080Y79204D02*
Y89770D01*
X297298Y74986D02*
X302288D01*
X293080Y79204D02*
X297298Y74986D01*
X603504Y451358D02*
X620522D01*
X429514Y277368D02*
X603504Y451358D01*
X429514Y274828D02*
Y277368D01*
X591820Y449326D02*
Y520446D01*
X584200Y451866D02*
Y499364D01*
X534484Y402150D02*
X584200Y451866D01*
X282702Y402150D02*
X534484D01*
X620522Y451358D02*
X626533Y445347D01*
X626743D01*
X630140Y441950D01*
X670400D01*
X297405Y67808D02*
X312156D01*
X429260Y97790D02*
Y109220D01*
X423026Y91556D02*
X429260Y97790D01*
X413216Y91556D02*
X423026D01*
X710730Y669026D02*
X718660D01*
X310388Y176784D02*
X324066D01*
X324080Y176770D01*
X530098Y11938D02*
X724662D01*
X507746D02*
X530098D01*
X529844Y20570D02*
X530098Y20316D01*
Y11938D02*
Y20316D01*
X724662Y11938D02*
X736527Y23803D01*
X500216Y19468D02*
X507746Y11938D01*
X522986Y28556D02*
X621595D01*
X508216D02*
X522986D01*
Y35028D01*
X112776Y770890D02*
X114264Y772378D01*
X112776Y770128D02*
Y770890D01*
X114264Y772378D02*
Y783444D01*
X120904Y769874D02*
X121158D01*
X122174Y768858D01*
X129764Y776448D01*
X113983Y783725D02*
X114264Y783444D01*
X100838Y285496D02*
X101600Y286258D01*
X100838Y280598D02*
Y285496D01*
X108696Y283399D02*
X112014Y286716D01*
Y288290D01*
X108696Y277957D02*
Y283399D01*
X108196Y277457D02*
X108696Y277957D01*
X98696Y278457D02*
X100838Y280598D01*
X98696Y277457D02*
Y278457D01*
X412930Y99270D02*
X413216Y99556D01*
X25764Y160164D02*
X32258Y153670D01*
Y127000D02*
Y153670D01*
X159606Y104330D02*
Y122672D01*
X129764Y776448D02*
Y782944D01*
X130264Y783444D01*
X122264D02*
Y795184D01*
X118110Y799338D02*
X122264Y795184D01*
X100838Y799338D02*
X118110D01*
X107696Y864420D02*
X122264Y878988D01*
Y893444D01*
X107696Y808736D02*
Y864420D01*
X324080Y195302D02*
X324104Y195326D01*
X324080Y184770D02*
Y195302D01*
X334772Y181102D02*
Y195072D01*
X330940Y177270D02*
X334772Y181102D01*
X324580Y177270D02*
X330940D01*
X324080Y176770D02*
X324580Y177270D01*
X343916Y182118D02*
Y195072D01*
X331068Y169270D02*
X343916Y182118D01*
X324580Y169270D02*
X331068D01*
X324080Y168770D02*
X324580Y169270D01*
X591820Y520446D02*
X599440Y528066D01*
X625094D01*
X635010Y518150D01*
X670400D01*
X500216Y19468D02*
Y28556D01*
X736527Y23803D02*
Y144018D01*
X722089Y158456D02*
X736527Y144018D01*
X529353Y92056D02*
X529473Y92176D01*
X523716Y92056D02*
X529353D01*
X523216Y91556D02*
X523716Y92056D01*
X532732Y59556D02*
X535900Y56388D01*
X500380Y120650D02*
Y138392D01*
X500216Y138556D02*
X500380Y138392D01*
X492216Y70866D02*
X492304D01*
X492278Y70840D02*
X492304Y70866D01*
X492278Y45136D02*
Y70840D01*
X236460Y176770D02*
X236474Y176784D01*
X214080Y176770D02*
X236460D01*
X33244Y822520D02*
X49422D01*
X34764Y837944D02*
X35264Y838444D01*
X28867Y845944D02*
X34764D01*
X15320Y832397D02*
X28867Y845944D01*
X34764D02*
X35264Y846444D01*
X10320Y834468D02*
X29796Y853944D01*
X34764D01*
X35264Y854444D01*
X29479Y829944D02*
X34764D01*
X35264Y830444D01*
Y854444D02*
X35764Y853944D01*
X253080Y78390D02*
Y89770D01*
Y78390D02*
X253238Y78232D01*
X159606Y91556D02*
Y104330D01*
X675294Y82256D02*
X718914D01*
X621595Y28556D02*
X675294Y82256D01*
X89756Y878322D02*
X90264Y878830D01*
Y893444D01*
X189650Y894340D02*
X190650D01*
X183736Y886704D02*
Y888426D01*
X189650Y894340D01*
X190650D02*
Y895340D01*
X98138Y878068D02*
Y898561D01*
X189650Y870940D02*
X190650D01*
X183736Y876544D02*
X184046D01*
X189650Y870940D01*
X190650Y869940D02*
Y870940D01*
X181718Y828072D02*
Y851851D01*
X155625Y877944D02*
X181718Y851851D01*
X145764Y877944D02*
X155625D01*
X145264Y878444D02*
X145764Y877944D01*
X156054Y870444D02*
X176718Y849780D01*
X154394Y861944D02*
X171718Y844620D01*
Y809568D02*
Y844620D01*
X176718Y811680D02*
Y849780D01*
X181718Y828072D02*
X189650Y820140D01*
X176718Y811680D02*
X190650Y797748D01*
X171718Y809568D02*
X183990Y797296D01*
X152500Y854444D02*
X166718Y840226D01*
Y806186D02*
Y840226D01*
Y806186D02*
X177640Y795264D01*
X190022Y769340D02*
X190650D01*
X189650Y820140D02*
X190650D01*
X138782Y884926D02*
X156812D01*
X134446Y889262D02*
X138782Y884926D01*
X130764Y889262D02*
X134446D01*
X130264Y889762D02*
X130764Y889262D01*
X130264Y889762D02*
Y893444D01*
X156812Y884926D02*
X190650Y851088D01*
Y844540D02*
Y851088D01*
Y819140D02*
Y820140D01*
X145264Y854444D02*
X152500D01*
X145764Y861944D02*
X154394D01*
X145264Y870444D02*
X156054D01*
X190650Y793740D02*
Y797748D01*
X145264Y862444D02*
X145764Y861944D01*
X183990Y775372D02*
Y797296D01*
X177640Y772400D02*
Y795264D01*
Y772400D02*
X190650Y759390D01*
X117696Y263948D02*
Y277457D01*
Y263948D02*
X118764Y262880D01*
X108196Y264556D02*
Y277457D01*
X107282Y263642D02*
X108196Y264556D01*
X95090Y273850D02*
X97196Y275957D01*
X95090Y263586D02*
Y273850D01*
X183990Y775372D02*
X190022Y769340D01*
X145264Y846444D02*
X149264D01*
X125952D02*
X145264D01*
X125570Y846826D02*
X125952Y846444D01*
X128364Y814314D02*
X128494Y814444D01*
X145264D01*
X119220Y806694D02*
X145014D01*
X145264Y806444D01*
X190650Y742940D02*
Y759390D01*
X74264Y893444D02*
Y926797D01*
X89289Y941822D02*
X171732D01*
X74264Y926797D02*
X89289Y941822D01*
X145264Y784478D02*
Y798444D01*
X89878Y935340D02*
X190650D01*
X82264Y893444D02*
Y927726D01*
X89878Y935340D01*
X171732Y941822D02*
X190650Y960740D01*
Y768340D02*
Y769340D01*
X126910Y830444D02*
X145264D01*
X126078Y33670D02*
X160424D01*
Y34010D01*
Y33010D02*
Y33670D01*
X159606Y34828D02*
X160424Y34010D01*
X159606Y34828D02*
Y53330D01*
Y68062D01*
X172306Y80762D01*
Y104330D01*
X167424Y33010D02*
X177950D01*
Y33264D01*
X167424Y39812D02*
X172306Y44694D01*
X167424Y33010D02*
Y39812D01*
X172306Y44694D02*
Y53330D01*
X640174Y492750D02*
X670400D01*
X636110Y496814D02*
X640174Y492750D01*
X435716Y29056D02*
Y36046D01*
X432910Y38852D02*
X435716Y36046D01*
X422496Y38852D02*
X432910D01*
X415638Y31994D02*
X422496Y38852D01*
X404914Y31994D02*
X415638D01*
X385590Y18786D02*
X397914D01*
Y19040D01*
X441038Y17770D02*
X443838Y20570D01*
Y28178D01*
X444216Y28556D01*
X428084Y17770D02*
X441038D01*
X426814Y19040D02*
X428084Y17770D01*
X404914Y19040D02*
X426814D01*
X435716Y29056D02*
X436216Y28556D01*
X385590Y31740D02*
X397914D01*
Y31994D01*
X508819Y51556D02*
X523216D01*
X508819Y43556D02*
X523216D01*
X460216Y28556D02*
Y42953D01*
X468216Y28556D02*
Y42953D01*
X476216Y28556D02*
Y42953D01*
X484216Y28556D02*
Y42953D01*
X492216Y28556D02*
Y42953D01*
X523216Y59556D02*
X532732D01*
X735852Y597863D02*
X770998Y562717D01*
X735852Y597863D02*
Y836431D01*
X662978Y896880D02*
Y897880D01*
X523216Y75556D02*
X523368Y75404D01*
X730852Y595792D02*
X765998Y560646D01*
X730852Y595792D02*
Y834360D01*
X662978Y871226D02*
Y872226D01*
X725668Y593905D02*
X760998Y558575D01*
X725668Y593905D02*
Y722010D01*
X725414Y722264D02*
X725668Y722010D01*
X725414Y722264D02*
Y832727D01*
X711569Y846572D02*
X725414Y832727D01*
X662978Y846572D02*
X711569D01*
X523216Y99556D02*
X536418D01*
X710730Y796026D02*
X718660D01*
X710730Y770372D02*
X718660D01*
X523466Y115306D02*
X537050D01*
X523216Y123556D02*
X537812D01*
X523216Y107556D02*
X536418D01*
X536796Y107178D01*
X710730Y745480D02*
X718660D01*
X710984Y719572D02*
X718914D01*
X710730Y694426D02*
X718660D01*
X710730Y643626D02*
X718660D01*
X452216Y124159D02*
Y138556D01*
X460216Y124159D02*
Y138556D01*
X468216Y124159D02*
Y138556D01*
X476278Y121976D02*
Y124097D01*
X476216Y124159D02*
X476278Y124097D01*
X476216Y124159D02*
Y138556D01*
X508216D02*
X508352Y138420D01*
X519270D01*
X523216Y115556D02*
X523466Y115306D01*
X720560Y591942D02*
X755998Y556504D01*
X730823Y567201D02*
X750984Y547040D01*
X730119Y541830D02*
X745984Y525965D01*
X728733Y516459D02*
X740984Y504208D01*
X710984Y516459D02*
X728733D01*
X720576Y491088D02*
X735984Y475680D01*
X719768Y464718D02*
X730984Y453502D01*
X715139Y440137D02*
X725984Y429292D01*
X710984Y440137D02*
Y440347D01*
X711984Y413976D02*
X720984Y404976D01*
X710984Y388605D02*
X715984Y383605D01*
X718914Y618226D02*
X719168Y617972D01*
X710984Y618226D02*
X718914D01*
X699864Y821170D02*
X704238D01*
X696054Y824980D02*
X699864Y821170D01*
X639150Y824980D02*
X696054D01*
X635602Y821432D02*
X639150Y824980D01*
X615714Y821432D02*
X635602D01*
X699864Y795769D02*
X704238D01*
X696054Y799579D02*
X699864Y795769D01*
X639150Y799579D02*
X696054D01*
X635602Y796031D02*
X639150Y799579D01*
X615714Y796031D02*
X635602D01*
X699864Y770368D02*
X704238D01*
X696054Y774178D02*
X699864Y770368D01*
X639150Y774178D02*
X696054D01*
X635602Y770630D02*
X639150Y774178D01*
X615714Y770630D02*
X635602D01*
X699864Y744967D02*
X704238D01*
X696054Y748777D02*
X699864Y744967D01*
X639150Y748777D02*
X696054D01*
X635602Y745229D02*
X639150Y748777D01*
X615714Y745229D02*
X635602D01*
X699864Y719567D02*
X704238D01*
X696054Y723377D02*
X699864Y719567D01*
X639150Y723377D02*
X696054D01*
X635602Y719829D02*
X639150Y723377D01*
X615714Y719829D02*
X635602D01*
X699864Y694166D02*
X704238D01*
X696054Y697976D02*
X699864Y694166D01*
X639150Y697976D02*
X696054D01*
X635602Y694428D02*
X639150Y697976D01*
X615714Y694428D02*
X635602D01*
X699864Y668765D02*
X704238D01*
X696054Y672575D02*
X699864Y668765D01*
X639150Y672575D02*
X696054D01*
X635602Y669027D02*
X639150Y672575D01*
X615714Y669027D02*
X635602D01*
X699864Y643365D02*
X704238D01*
X696054Y647175D02*
X699864Y643365D01*
X639150Y647175D02*
X696054D01*
X635602Y643627D02*
X639150Y647175D01*
X615714Y643627D02*
X635602D01*
X699864Y617964D02*
X704238D01*
X696054Y621774D02*
X699864Y617964D01*
X639150Y621774D02*
X696054D01*
X635602Y618226D02*
X639150Y621774D01*
X615714Y618226D02*
X635602D01*
X374364Y75556D02*
X413216D01*
X359758Y60950D02*
X374364Y75556D01*
X295878Y61076D02*
X317186D01*
X277580Y79374D02*
X295878Y61076D01*
X372204Y83556D02*
X413216D01*
X342232Y53584D02*
X372204Y83556D01*
X368520Y91556D02*
X413216D01*
X322016Y45052D02*
X368520Y91556D01*
X294988Y53076D02*
X319880D01*
X269580Y78484D02*
X294988Y53076D01*
X269580Y78484D02*
Y89270D01*
X277580Y79374D02*
Y89270D01*
X285580Y79633D02*
X297405Y67808D01*
X295900Y45052D02*
X322016D01*
X261580Y79372D02*
Y89270D01*
X261080Y89770D02*
X261580Y89270D01*
X269080Y89770D02*
X269580Y89270D01*
X277080Y89770D02*
X277580Y89270D01*
X285580Y79633D02*
Y89270D01*
X285080Y89770D02*
X285580Y89270D01*
X134700Y420814D02*
X151026Y437140D01*
X134700Y188767D02*
Y420814D01*
Y188767D02*
X194697Y128770D01*
X662735Y287034D02*
X662978D01*
X151026Y196530D02*
Y361940D01*
Y196530D02*
X194786Y152770D01*
X139700Y190838D02*
X193768Y136770D01*
X139700Y386234D02*
X151026Y397560D01*
X144700Y194982D02*
X194912Y144770D01*
X144700Y381284D02*
X151026Y387610D01*
X194786Y152770D02*
X214080D01*
X144700Y194982D02*
Y381284D01*
X139700Y190838D02*
Y386234D01*
X194912Y144770D02*
X214080D01*
X193768Y136770D02*
X214080D01*
X194697Y128770D02*
X214080D01*
X615714Y846832D02*
X655978D01*
Y846572D02*
Y846832D01*
X615714Y872233D02*
X655978D01*
Y872226D02*
Y872233D01*
X615714Y897634D02*
X655978D01*
Y897880D01*
X151026Y437140D02*
Y438140D01*
Y387610D02*
Y388610D01*
Y397560D02*
Y412740D01*
X214080Y184770D02*
Y212765D01*
X181920Y244925D02*
Y327810D01*
Y244925D02*
X214080Y212765D01*
X186920Y246996D02*
Y289690D01*
X190650Y293420D01*
Y311140D01*
X189650Y335540D02*
X190650D01*
X181920Y327810D02*
X189650Y335540D01*
X186920Y246996D02*
X229080Y204836D01*
X237080Y199770D02*
Y206234D01*
X191920Y251394D02*
X237080Y206234D01*
X191920Y251394D02*
Y285740D01*
X229080Y199770D02*
Y204836D01*
X635348Y480412D02*
X681576D01*
X615460Y313434D02*
X655978D01*
X710984Y591942D02*
Y592572D01*
Y567201D02*
X730823D01*
X615460Y288034D02*
X655978D01*
X710984Y541830D02*
X730119D01*
X710984Y491088D02*
X720576D01*
X710984Y388605D02*
Y389605D01*
Y464718D02*
Y465718D01*
X667098Y339080D02*
X677004Y329174D01*
X662978Y339080D02*
X667098D01*
X665951Y313557D02*
X670400Y309108D01*
X662978Y313557D02*
X665951D01*
X710984Y413976D02*
Y414976D01*
X662978Y287034D02*
Y288034D01*
X615460Y592834D02*
X635348D01*
X638896Y596382D01*
X695800D01*
X699610Y592572D01*
X703984D01*
X615460Y567434D02*
X615693Y567201D01*
X703984D01*
X692252Y541830D02*
X703984D01*
X681576Y531154D02*
X692252Y541830D01*
X635348Y531154D02*
X681576D01*
X624672Y541830D02*
X635348Y531154D01*
X615460Y541830D02*
X624672D01*
X692252Y516459D02*
X703984D01*
X681576Y505783D02*
X692252Y516459D01*
X635348Y505783D02*
X681576D01*
X624672Y516459D02*
X635348Y505783D01*
X615460Y516459D02*
X624672D01*
X692252Y491088D02*
X703984D01*
X681576Y480412D02*
X692252Y491088D01*
X624672D02*
X635348Y480412D01*
X615460Y491088D02*
X624672D01*
X692252Y465718D02*
X703984D01*
X681576Y455042D02*
X692252Y465718D01*
X635348Y455042D02*
X681576D01*
X624672Y465718D02*
X635348Y455042D01*
X615460Y465718D02*
X624672D01*
X692252Y440347D02*
X703984D01*
X681576Y429671D02*
X692252Y440347D01*
X635348Y429671D02*
X681576D01*
X624672Y440347D02*
X635348Y429671D01*
X615460Y440347D02*
X624672D01*
X692252Y414976D02*
X703984D01*
X681576Y404300D02*
X692252Y414976D01*
X635348Y404300D02*
X681576D01*
X624672Y414976D02*
X635348Y404300D01*
X615460Y414976D02*
X624672D01*
X692252Y389605D02*
X703984D01*
X681576Y378929D02*
X692252Y389605D01*
X635348Y378929D02*
X681576D01*
X624672Y389605D02*
X635348Y378929D01*
X615460Y389605D02*
X624672D01*
X615460Y364234D02*
X624672D01*
X635348Y353558D01*
X681576D01*
X692252Y364234D01*
X703984D01*
X615460Y338834D02*
X655978D01*
Y339080D01*
Y313434D02*
Y313557D01*
Y288034D02*
Y288034D01*
X190650Y335540D02*
Y336540D01*
X197650D02*
X245280D01*
X197650Y311140D02*
X245280D01*
X198920Y285740D02*
X245280D01*
X158026Y360940D02*
X158828D01*
X228440Y361940D02*
X245280D01*
X221328Y354828D02*
X228440Y361940D01*
X192434Y354828D02*
X221328D01*
X192356Y354750D02*
X192434Y354828D01*
X165018Y354750D02*
X192356D01*
X158828Y360940D02*
X165018Y354750D01*
X158026Y360940D02*
Y361940D01*
X228440Y388610D02*
X245280D01*
X158026Y387610D02*
Y388610D01*
Y411740D02*
X158828D01*
X228440Y412740D02*
X245280D01*
X221328Y405628D02*
X228440Y412740D01*
X192434Y405628D02*
X221328D01*
X192356Y405550D02*
X192434Y405628D01*
X165018Y405550D02*
X192356D01*
X158828Y411740D02*
X165018Y405550D01*
X158026Y411740D02*
Y412740D01*
Y437140D02*
X158828D01*
X228440Y438140D02*
X245280D01*
X221328Y431028D02*
X228440Y438140D01*
X192434Y431028D02*
X221328D01*
X192356Y430950D02*
X192434Y431028D01*
X165018Y430950D02*
X192356D01*
X158828Y437140D02*
X165018Y430950D01*
X158026Y437140D02*
Y438140D01*
Y514340D02*
X245280D01*
X158026Y462540D02*
Y463540D01*
X158828Y462540D02*
X165018Y456350D01*
X192356D01*
X192434Y456428D01*
X221328D01*
X228440Y463540D01*
X245280D01*
X158026Y462540D02*
X158828D01*
X158026Y487940D02*
Y488940D01*
X158828Y487940D02*
X165018Y481750D01*
X192356D01*
X192434Y481828D01*
X221328D01*
X228440Y488940D01*
X245280D01*
X158026Y487940D02*
X158828D01*
X158026Y538740D02*
Y539740D01*
X158828Y538740D02*
X165018Y532550D01*
X192356D01*
X192434Y532628D01*
X221328D01*
X228440Y539740D01*
X245280D01*
X158026Y538740D02*
X158828D01*
X158026Y564140D02*
Y565140D01*
X158828Y564140D02*
X165018Y557950D01*
X192356D01*
X192434Y558028D01*
X221328D01*
X228440Y565140D01*
X245280D01*
X158026Y564140D02*
X158828D01*
X158026Y589540D02*
Y590540D01*
X158828Y589540D02*
X165018Y583350D01*
X192356D01*
X192434Y583428D01*
X221328D01*
X228440Y590540D01*
X245280D01*
X158026Y589540D02*
X158828D01*
X158026Y614940D02*
Y615940D01*
X228440D02*
X245280D01*
X158026Y640340D02*
Y641340D01*
X158828Y640340D02*
X165018Y634150D01*
X192356D01*
X192434Y634228D01*
X221328D01*
X228440Y641340D01*
X245280D01*
X158026Y640340D02*
X158828D01*
X158026Y665740D02*
Y666740D01*
X158828Y665740D02*
X165018Y659550D01*
X192356D01*
X192434Y659628D01*
X221328D01*
X228440Y666740D01*
X245280D01*
X158026Y665740D02*
X158828D01*
X158026Y691140D02*
Y692140D01*
X158828Y691140D02*
X165018Y684950D01*
X192356D01*
X192434Y685028D01*
X221328D01*
X228440Y692140D01*
X245280D01*
X158026Y691140D02*
X158828D01*
X158026Y716540D02*
X158828D01*
X228440Y717540D02*
X245280D01*
X221328Y710428D02*
X228440Y717540D01*
X192434Y710428D02*
X221328D01*
X192356Y710350D02*
X192434Y710428D01*
X165018Y710350D02*
X192356D01*
X158828Y716540D02*
X165018Y710350D01*
X158026Y716540D02*
Y717540D01*
X197650Y742940D02*
X245280D01*
X197650Y768340D02*
X245280D01*
X197650Y793740D02*
X245280D01*
X197650Y819140D02*
X245280D01*
X197650Y844540D02*
X245280D01*
X197650Y869940D02*
X245280D01*
X197650Y895340D02*
X245280D01*
X197650Y935340D02*
X245280D01*
X197650Y960740D02*
X245280D01*
D51*
X92296Y430698D02*
X101516D01*
X101948Y430266D01*
X93296Y355498D02*
X98554D01*
X92296Y354498D02*
X93296Y355498D01*
X101948Y358892D02*
Y381244D01*
X98554Y355498D02*
X101948Y358892D01*
X93296Y380898D02*
X101602D01*
X92296Y379898D02*
X93296Y380898D01*
X101602D02*
X101948Y381244D01*
X92296Y405298D02*
X101262D01*
X101948Y404612D01*
X92296Y456098D02*
X101872D01*
X101948Y456174D01*
Y404612D02*
Y430266D01*
Y381244D02*
Y404612D01*
Y430266D02*
Y456174D01*
Y480771D02*
Y490718D01*
X285080Y199770D02*
Y217668D01*
X287376Y219964D01*
X401066Y115556D02*
X413216D01*
X392754D02*
X401066D01*
X405559Y129556D02*
X405875D01*
X407383Y131064D01*
X407924D01*
X401754Y125751D02*
X405559Y129556D01*
X401754Y116244D02*
Y125751D01*
X401066Y115556D02*
X401754Y116244D01*
X128624Y822314D02*
X128754Y822444D01*
X145264D01*
X523216Y67556D02*
X541942D01*
X544322Y65176D01*
X391254Y114056D02*
X392754Y115556D01*
X469900Y159258D02*
X470144Y159502D01*
X483608D01*
X21844Y870204D02*
X22084Y870444D01*
X35264D01*
X38862Y914654D02*
X39156Y914948D01*
X56990D01*
X148176Y897796D02*
X148336Y897636D01*
X148176Y897796D02*
Y914898D01*
X161218Y781244D02*
Y816766D01*
X504716Y67556D02*
X523216D01*
X503692Y68580D02*
X504716Y67556D01*
X177038Y182372D02*
X184302Y175108D01*
X190126D01*
X192626Y172608D01*
X137668Y104770D02*
X146466D01*
X146906Y104330D01*
X237736Y49792D02*
Y65014D01*
Y49792D02*
X237998Y49530D01*
X106264Y875272D02*
Y893444D01*
X101436Y870444D02*
X106264Y875272D01*
X47084Y870444D02*
X101436D01*
X122624Y914898D02*
X148176D01*
X35264Y870444D02*
X47084D01*
X45814Y871714D02*
X47084Y870444D01*
X45814Y871714D02*
Y884237D01*
X44264Y885787D02*
X45814Y884237D01*
X44264Y885787D02*
Y906236D01*
X50476Y912448D01*
X54490D01*
X56990Y914948D01*
X155540Y822444D02*
X161218Y816766D01*
Y781244D02*
X163416D01*
X145264Y822444D02*
X155540D01*
X188506Y56830D02*
X197346Y65670D01*
X185506Y56830D02*
X188506D01*
X185006Y56330D02*
X185506Y56830D01*
X185006Y53330D02*
Y56330D01*
X197346Y65670D02*
X237080D01*
X184950Y53274D02*
X185006Y53330D01*
X184950Y33264D02*
Y53274D01*
X101948Y479155D02*
Y480771D01*
Y456174D02*
Y479155D01*
X100332Y480771D02*
X101948Y479155D01*
X94801Y480771D02*
X100332D01*
X94074Y481498D02*
X94801Y480771D01*
X483608Y159502D02*
X484216Y158894D01*
Y138556D02*
Y158894D01*
X235554Y160770D02*
X235804Y160520D01*
X214080Y160770D02*
X235554D01*
X285080Y183634D02*
X285082Y183632D01*
X285080Y183634D02*
Y199770D01*
X199956Y165786D02*
Y167278D01*
X194626Y172608D02*
X199956Y167278D01*
X192626Y172608D02*
X194626D01*
X199956Y165786D02*
X204972Y160770D01*
X214080D01*
X237080Y65670D02*
Y89770D01*
D52*
X556608Y935340D02*
X568508D01*
X531208D02*
X556608D01*
X505808D02*
X531208D01*
X480408D02*
X505808D01*
X455008D02*
X480408D01*
X404208D02*
X455008D01*
X378808D02*
X404208D01*
X353408D02*
X378808D01*
X328008D02*
X353408D01*
X302608D02*
X328008D01*
D53*
X97696Y298457D02*
X98696D01*
X49276Y291537D02*
X51619Y289194D01*
X49276Y291537D02*
Y501650D01*
X51619Y289194D02*
X79088D01*
X49276Y501650D02*
X81534Y533908D01*
X121412D01*
X98696Y298457D02*
Y299457D01*
X89245Y290005D02*
X97696Y298457D01*
X79899Y290005D02*
X89245D01*
X79088Y289194D02*
X79899Y290005D01*
X79088Y263134D02*
Y289194D01*
X568508Y935340D02*
X604714Y899134D01*
X254780Y935340D02*
X302100D01*
D54*
X85608Y256614D02*
X107254D01*
X79088Y263134D02*
X85608Y256614D01*
X605960Y273136D02*
Y288034D01*
Y478536D02*
Y491234D01*
Y465834D02*
Y478536D01*
X621958D01*
X622218Y478796D01*
X606214Y669027D02*
Y694428D01*
Y643627D02*
Y669027D01*
X591316Y643627D02*
X606214D01*
X591316Y618226D02*
X606214D01*
X590802Y592574D02*
X591062Y592834D01*
X605960D01*
Y567434D02*
Y592834D01*
X606214Y731520D02*
Y745229D01*
Y719829D02*
Y731520D01*
X617474D01*
X622544Y736590D01*
X670400D01*
X606214Y872233D02*
Y897634D01*
Y846832D02*
Y872233D01*
Y821432D02*
Y846832D01*
Y796031D02*
Y821432D01*
Y770630D02*
Y796031D01*
Y745229D02*
Y770630D01*
X302100Y935340D02*
X302608D01*
X604714Y899134D02*
X605214D01*
X606214Y898134D01*
Y897634D02*
Y898134D01*
X605960Y542034D02*
Y567434D01*
Y491234D02*
Y516634D01*
Y415034D02*
Y440434D01*
Y389634D02*
Y415034D01*
Y364234D02*
Y389634D01*
Y338834D02*
Y364234D01*
Y313434D02*
Y338834D01*
Y288034D02*
Y313434D01*
X254780Y285740D02*
Y311140D01*
Y935340D02*
Y960740D01*
Y895340D02*
Y935340D01*
Y869940D02*
Y895340D01*
Y844540D02*
Y869940D01*
Y819140D02*
Y844540D01*
Y793740D02*
Y819140D01*
Y768340D02*
Y793740D01*
Y742940D02*
Y768340D01*
Y717540D02*
Y742940D01*
Y692140D02*
Y717540D01*
Y666740D02*
Y692140D01*
Y641340D02*
Y666740D01*
Y615940D02*
Y641340D01*
Y590540D02*
Y615940D01*
Y565140D02*
Y590540D01*
Y539740D02*
Y565140D01*
Y514340D02*
Y539740D01*
Y488940D02*
Y514340D01*
Y463540D02*
Y488940D01*
Y438140D02*
Y463540D01*
Y412740D02*
Y438140D01*
Y388610D02*
Y412740D01*
Y361940D02*
Y388610D01*
Y336540D02*
Y361940D01*
Y311140D02*
Y336540D01*
D55*
X107254Y256614D02*
X107282Y256642D01*
X124360Y54388D02*
Y71364D01*
Y54388D02*
X126078Y52670D01*
X130626Y719639D02*
X131147Y720160D01*
X130626Y705206D02*
Y719639D01*
X269080Y199770D02*
Y219260D01*
X268376Y219964D02*
X269080Y219260D01*
X108196Y298457D02*
Y299457D01*
X125764Y253178D02*
Y262880D01*
X108196Y299457D02*
Y305146D01*
X125570Y252984D02*
X125764Y253178D01*
X523216Y83556D02*
X543702D01*
X503776D02*
X523216D01*
X256380Y62118D02*
X258006Y63744D01*
X117696Y299457D02*
Y343690D01*
X115156Y346230D02*
X117696Y343690D01*
X163322Y749554D02*
X163416Y749648D01*
Y762244D01*
X543702Y83556D02*
X544322Y84176D01*
X304300Y128770D02*
X324080D01*
X303022Y130048D02*
X304300Y128770D01*
X395986Y144272D02*
X396240Y144526D01*
X395986Y137788D02*
Y144272D01*
X395754Y137556D02*
X395986Y137788D01*
X395754Y135556D02*
Y137556D01*
X393254Y133056D02*
X395754Y135556D01*
X391254Y133056D02*
X393254D01*
X59182Y308356D02*
X59344Y308194D01*
X79088D01*
X503522Y83302D02*
X503776Y83556D01*
X173176Y914898D02*
X188816D01*
X67147Y934199D02*
X74008Y941060D01*
X57241Y934199D02*
X67147D01*
X56990Y933948D02*
X57241Y934199D01*
X115156Y346230D02*
Y349748D01*
X105148Y308194D02*
X108196Y305146D01*
X79088Y308194D02*
X105148D01*
X184950Y86604D02*
X185006Y86660D01*
Y104330D01*
X114264Y893444D02*
Y904258D01*
X103624Y912898D02*
X106124Y910398D01*
X108124D01*
X114264Y904258D01*
X103624Y912898D02*
Y914898D01*
X90010D02*
X103624D01*
X125310Y838444D02*
X145264D01*
X74264Y783444D02*
Y803398D01*
X74516Y803650D01*
X112870Y52568D02*
X112972Y52670D01*
X126078D01*
X376090Y31740D02*
Y43500D01*
Y18786D02*
Y31740D01*
Y43500D02*
X376268Y43678D01*
X452216Y15486D02*
X452218Y15484D01*
X452216Y15486D02*
Y28556D01*
X492216Y138556D02*
Y149110D01*
X498108Y155002D01*
X500108D01*
X502608Y157502D01*
Y159502D01*
X492216Y120770D02*
Y138556D01*
X256380Y50028D02*
Y62118D01*
X256736Y65014D02*
X258006Y63744D01*
X269080Y184394D02*
Y199770D01*
X194404Y193386D02*
Y202682D01*
X192626Y191608D02*
X194404Y193386D01*
X214080Y168770D02*
X229710D01*
D56*
X404208Y960740D02*
D03*
X378808D02*
D03*
X353408D02*
D03*
X455008D02*
D03*
X480408D02*
D03*
X505808D02*
D03*
X302608D02*
D03*
X328008D02*
D03*
X556608D02*
D03*
X531208D02*
D03*
Y935340D02*
D03*
X556608D02*
D03*
X328008D02*
D03*
X302608D02*
D03*
X505808D02*
D03*
X480408D02*
D03*
X455008D02*
D03*
X353408D02*
D03*
X378808D02*
D03*
X404208D02*
D03*
D57*
X429608Y869940D02*
D03*
Y311140D02*
D03*
D58*
X187800Y492750D02*
D03*
Y467350D02*
D03*
Y441950D02*
D03*
Y416550D02*
D03*
Y391150D02*
D03*
Y365750D02*
D03*
X670400D02*
D03*
Y391150D02*
D03*
Y416550D02*
D03*
Y441950D02*
D03*
Y467350D02*
D03*
Y492750D02*
D03*
Y518150D02*
D03*
Y543550D02*
D03*
Y634990D02*
D03*
Y812790D02*
D03*
Y787390D02*
D03*
Y761990D02*
D03*
Y736590D02*
D03*
Y711190D02*
D03*
Y685790D02*
D03*
Y660390D02*
D03*
Y609590D02*
D03*
Y584190D02*
D03*
X187800Y721350D02*
D03*
Y695950D02*
D03*
Y670550D02*
D03*
Y645150D02*
D03*
Y619750D02*
D03*
Y594350D02*
D03*
Y568950D02*
D03*
Y543550D02*
D03*
D59*
X760000Y980000D02*
D03*
Y210000D02*
D03*
X40000Y40000D02*
D03*
Y980000D02*
D03*
D60*
X722089Y158456D02*
D03*
X115156Y476748D02*
D03*
D61*
X718914Y133056D02*
D03*
X722089Y107656D02*
D03*
X718914Y82256D02*
D03*
X722089Y56856D02*
D03*
X718914Y31456D02*
D03*
X115156Y451348D02*
D03*
Y425948D02*
D03*
Y400548D02*
D03*
Y375148D02*
D03*
Y349748D02*
D03*
D62*
X64356Y445760D02*
D03*
X65372Y420360D02*
D03*
Y394960D02*
D03*
Y369560D02*
D03*
Y344160D02*
D03*
X616204Y683006D02*
D03*
X64356Y471160D02*
D03*
X131147Y720160D02*
D03*
X121412Y533908D02*
D03*
X338836Y82804D02*
D03*
X452882Y160274D02*
D03*
X19812Y147066D02*
D03*
X606220Y272876D02*
D03*
X622218Y478796D02*
D03*
X591056Y643367D02*
D03*
Y617966D02*
D03*
X590802Y592574D02*
D03*
X527050Y633222D02*
D03*
X435864Y103378D02*
D03*
X532384Y710184D02*
D03*
X49422Y814520D02*
D03*
X442468Y98552D02*
D03*
X302862Y74412D02*
D03*
X380586Y68570D02*
D03*
X429514Y274828D02*
D03*
X429260Y109220D02*
D03*
X310388Y176784D02*
D03*
X529844Y20570D02*
D03*
X522986Y35028D02*
D03*
X407924Y131064D02*
D03*
X112776Y770128D02*
D03*
X120904Y769874D02*
D03*
X101600Y286258D02*
D03*
X112014Y288290D02*
D03*
X125570Y252984D02*
D03*
X262128Y77978D02*
D03*
X25400Y134874D02*
D03*
X32258Y127000D02*
D03*
X163322Y749554D02*
D03*
X128624Y822314D02*
D03*
X100838Y799338D02*
D03*
X107696Y808736D02*
D03*
X343916Y195072D02*
D03*
X334772D02*
D03*
X324104Y195326D02*
D03*
X584200Y499364D02*
D03*
X282702Y402150D02*
D03*
X281686Y376750D02*
D03*
X500380Y120650D02*
D03*
X303022Y130048D02*
D03*
X396240Y144526D02*
D03*
X469900Y159258D02*
D03*
X492216Y70866D02*
D03*
X236474Y176784D02*
D03*
X59182Y308356D02*
D03*
X21844Y870204D02*
D03*
X38862Y914654D02*
D03*
X148336Y897636D02*
D03*
X49422Y838520D02*
D03*
Y830520D02*
D03*
Y822520D02*
D03*
X253238Y78232D02*
D03*
X159606Y91556D02*
D03*
X503692Y68580D02*
D03*
X177038Y182372D02*
D03*
X137668Y104770D02*
D03*
X237998Y49530D02*
D03*
X89756Y878322D02*
D03*
X183736Y886704D02*
D03*
X98138Y878068D02*
D03*
X183736Y876544D02*
D03*
X188816Y914898D02*
D03*
X74008Y941060D02*
D03*
X184950Y86604D02*
D03*
X125570Y846826D02*
D03*
X128364Y814314D02*
D03*
X128110Y732018D02*
D03*
X119220Y806694D02*
D03*
X90010Y914898D02*
D03*
X119220Y732272D02*
D03*
X142334Y744210D02*
D03*
X125058Y830062D02*
D03*
X135730Y738114D02*
D03*
X125058Y838696D02*
D03*
X74516Y803650D02*
D03*
X112870Y52568D02*
D03*
X636110Y496814D02*
D03*
X376268Y43678D02*
D03*
X506636Y51618D02*
D03*
Y43618D02*
D03*
X492278Y45136D02*
D03*
X484278D02*
D03*
X476278D02*
D03*
X468278D02*
D03*
X460278D02*
D03*
X101948Y490718D02*
D03*
X452218Y15484D02*
D03*
X492216Y120770D02*
D03*
X503522Y83302D02*
D03*
X537812Y99178D02*
D03*
X718914Y821173D02*
D03*
X537812Y115306D02*
D03*
Y123556D02*
D03*
Y107178D02*
D03*
X452278Y121976D02*
D03*
X460278D02*
D03*
X468278D02*
D03*
X476278D02*
D03*
X519270Y138420D02*
D03*
X719168Y617972D02*
D03*
X718914Y745226D02*
D03*
Y795772D02*
D03*
Y770118D02*
D03*
X719168Y719318D02*
D03*
X718914Y694172D02*
D03*
Y668772D02*
D03*
Y643372D02*
D03*
X317186Y61076D02*
D03*
X359758Y60950D02*
D03*
X319880Y53076D02*
D03*
X342232Y53584D02*
D03*
X256380Y50028D02*
D03*
X235804Y160520D02*
D03*
X269080Y184394D02*
D03*
X285082Y183632D02*
D03*
X194404Y202682D02*
D03*
X229710Y168770D02*
D03*
M02*
