G04*
G04 #@! TF.GenerationSoftware,Altium Limited,Altium Designer,22.6.1 (34)*
G04*
G04 Layer_Color=65535*
%FSLAX44Y44*%
%MOMM*%
G71*
G04*
G04 #@! TF.SameCoordinates,4419A6E8-9986-4028-A635-E4EA591E95E1*
G04*
G04*
G04 #@! TF.FilePolarity,Positive*
G04*
G01*
G75*
%ADD10C,0.0800*%
%ADD11C,0.1000*%
%ADD12C,0.2000*%
%ADD13C,0.2540*%
%ADD14C,0.1800*%
%ADD15R,0.0762X0.3556*%
%ADD16R,0.1016X0.1524*%
%ADD17R,0.3556X0.0762*%
%ADD18R,0.1524X0.1016*%
G36*
X697320Y171382D02*
X697730D01*
Y166250D01*
X697525D01*
Y166045D01*
X697114D01*
Y165839D01*
X696704D01*
Y166045D01*
X696499D01*
Y165839D01*
X694651D01*
Y165429D01*
X694856D01*
Y165224D01*
X695472D01*
Y165018D01*
X695677D01*
Y164813D01*
X695883D01*
Y164608D01*
X696088D01*
Y164402D01*
X696293D01*
Y164197D01*
X696499D01*
Y163787D01*
X696704D01*
Y163581D01*
X696909D01*
Y163171D01*
X697114D01*
Y162760D01*
X697320D01*
Y162349D01*
X697525D01*
Y161734D01*
X697730D01*
Y154138D01*
X697525D01*
Y153317D01*
X697320D01*
Y152701D01*
X697114D01*
Y152906D01*
X696909D01*
Y152701D01*
X697114D01*
Y152290D01*
X696909D01*
Y151880D01*
X696704D01*
Y151469D01*
X696293D01*
Y151264D01*
X696088D01*
Y151058D01*
X696293D01*
Y150648D01*
X695883D01*
Y150442D01*
X695677D01*
Y150032D01*
X695267D01*
Y149827D01*
X695062D01*
Y149621D01*
X694856D01*
Y149416D01*
X694651D01*
Y149211D01*
X694240D01*
Y149005D01*
X694035D01*
Y149211D01*
X693830D01*
Y149005D01*
X694035D01*
Y148800D01*
X693830D01*
Y149005D01*
X693624D01*
Y148595D01*
X693009D01*
Y148390D01*
X692803D01*
Y148184D01*
X692188D01*
Y147979D01*
X690956D01*
Y147774D01*
X689724D01*
Y147568D01*
X675559D01*
Y147774D01*
X674122D01*
Y147979D01*
X672890D01*
Y148184D01*
X672274D01*
Y148390D01*
X671864D01*
Y148595D01*
X671248D01*
Y148800D01*
X670837D01*
Y149211D01*
X670426D01*
Y149416D01*
X670221D01*
Y149621D01*
X670016D01*
Y149827D01*
X669605D01*
Y150032D01*
X669400D01*
Y150442D01*
X669195D01*
Y150648D01*
X668784D01*
Y151058D01*
X668579D01*
Y151469D01*
X668374D01*
Y151674D01*
X668168D01*
Y152290D01*
X667963D01*
Y152701D01*
X667758D01*
Y153317D01*
X667552D01*
Y154138D01*
X667758D01*
Y154343D01*
X667552D01*
Y154754D01*
X667347D01*
Y155575D01*
X667552D01*
Y155780D01*
X667347D01*
Y161118D01*
X667552D01*
Y162349D01*
X667758D01*
Y162555D01*
X667963D01*
Y163171D01*
X668168D01*
Y163787D01*
X668579D01*
Y164197D01*
X668784D01*
Y164402D01*
X668989D01*
Y164608D01*
X669195D01*
Y164813D01*
X669400D01*
Y165018D01*
X669605D01*
Y165224D01*
X670221D01*
Y165429D01*
X670426D01*
Y165839D01*
X656467D01*
Y166045D01*
X655851D01*
Y166661D01*
X655646D01*
Y167071D01*
X655851D01*
Y167276D01*
X655646D01*
Y171177D01*
X655851D01*
Y171382D01*
X656261D01*
Y171177D01*
X656467D01*
Y171382D01*
X656261D01*
Y171588D01*
X697320D01*
Y171382D01*
D02*
G37*
G36*
X652771D02*
X652977D01*
Y170972D01*
X653182D01*
Y165634D01*
X652977D01*
Y164608D01*
X652771D01*
Y164402D01*
X652566D01*
Y164197D01*
X652361D01*
Y163787D01*
X651950D01*
Y163581D01*
X651745D01*
Y163376D01*
X651540D01*
Y163171D01*
X651129D01*
Y163376D01*
X650924D01*
Y162965D01*
X650719D01*
Y162760D01*
X650513D01*
Y162965D01*
X650308D01*
Y162760D01*
X650103D01*
Y162349D01*
X649692D01*
Y162144D01*
X649281D01*
Y161939D01*
X649076D01*
Y161734D01*
X648666D01*
Y161528D01*
X648255D01*
Y161323D01*
X648050D01*
Y161118D01*
X647639D01*
Y160912D01*
X647229D01*
Y160707D01*
X647023D01*
Y160502D01*
X646818D01*
Y160296D01*
X646202D01*
Y160091D01*
X645997D01*
Y159886D01*
X645586D01*
Y159681D01*
X645176D01*
Y159475D01*
X644970D01*
Y159270D01*
X644354D01*
Y158860D01*
X643944D01*
Y158654D01*
X643533D01*
Y158244D01*
X642917D01*
Y158038D01*
X642712D01*
Y157833D01*
X642301D01*
Y157628D01*
X641891D01*
Y157423D01*
X641480D01*
Y157217D01*
X641275D01*
Y157012D01*
X640864D01*
Y156807D01*
X640659D01*
Y156601D01*
X640249D01*
Y156396D01*
X640043D01*
Y156191D01*
X639427D01*
Y155780D01*
X639017D01*
Y155575D01*
X638606D01*
Y155370D01*
X638196D01*
Y155164D01*
X637990D01*
Y154959D01*
X637580D01*
Y154754D01*
X637169D01*
Y154548D01*
X636964D01*
Y154754D01*
X636759D01*
Y154548D01*
X636964D01*
Y154343D01*
X636553D01*
Y154138D01*
X636143D01*
Y153933D01*
X635938D01*
Y154138D01*
X635732D01*
Y153933D01*
X635938D01*
Y153727D01*
X635732D01*
Y153522D01*
X635116D01*
Y153317D01*
X634500D01*
Y153111D01*
X634090D01*
Y153317D01*
X633679D01*
Y153522D01*
X633063D01*
Y153727D01*
X632858D01*
Y153933D01*
X632448D01*
Y154138D01*
X632037D01*
Y154343D01*
X631832D01*
Y154548D01*
X631421D01*
Y154754D01*
X631011D01*
Y155164D01*
X630395D01*
Y155370D01*
X630189D01*
Y155780D01*
X629984D01*
Y155575D01*
X629779D01*
Y155780D01*
X629368D01*
Y155985D01*
X628957D01*
Y156191D01*
X628547D01*
Y156396D01*
X628342D01*
Y156601D01*
X628136D01*
Y156807D01*
X627726D01*
Y157012D01*
X627315D01*
Y157217D01*
X626905D01*
Y157423D01*
X626699D01*
Y157628D01*
X626289D01*
Y157833D01*
X625878D01*
Y158038D01*
X625673D01*
Y158244D01*
X625057D01*
Y158654D01*
X624646D01*
Y158860D01*
X624236D01*
Y159065D01*
X623825D01*
Y159270D01*
X623415D01*
Y159475D01*
X623209D01*
Y159681D01*
X622799D01*
Y159886D01*
X622593D01*
Y160091D01*
X622183D01*
Y160296D01*
X621772D01*
Y160502D01*
X621362D01*
Y160707D01*
X621157D01*
Y160912D01*
X620746D01*
Y161118D01*
X620335D01*
Y161323D01*
X620130D01*
Y161528D01*
X619925D01*
Y161734D01*
X619309D01*
Y161939D01*
X619104D01*
Y162144D01*
X618693D01*
Y162349D01*
X618282D01*
Y162555D01*
X618077D01*
Y162760D01*
X617667D01*
Y163171D01*
X617051D01*
Y163581D01*
X616845D01*
Y163787D01*
X616640D01*
Y170767D01*
X617051D01*
Y170972D01*
X617256D01*
Y170767D01*
X617667D01*
Y170561D01*
X618077D01*
Y170356D01*
X618282D01*
Y170151D01*
X618693D01*
Y169945D01*
X619104D01*
Y169740D01*
X619309D01*
Y169535D01*
X619514D01*
Y169329D01*
X620130D01*
Y168919D01*
X620541D01*
Y168713D01*
X620951D01*
Y168508D01*
X621362D01*
Y168303D01*
X621567D01*
Y168098D01*
X621772D01*
Y167892D01*
X622388D01*
Y167687D01*
X622593D01*
Y167276D01*
X623415D01*
Y167071D01*
X623620D01*
Y166866D01*
X623825D01*
Y166661D01*
X624236D01*
Y166455D01*
X624646D01*
Y166250D01*
X624852D01*
Y166045D01*
X625057D01*
Y165839D01*
X625673D01*
Y165634D01*
X625878D01*
Y165429D01*
X626083D01*
Y165224D01*
X626494D01*
Y165018D01*
X626905D01*
Y164813D01*
X627110D01*
Y164608D01*
X627520D01*
Y164402D01*
X627726D01*
Y163992D01*
X627931D01*
Y164197D01*
X628136D01*
Y163992D01*
X628342D01*
Y163787D01*
X628957D01*
Y163581D01*
X629163D01*
Y163376D01*
X629368D01*
Y163171D01*
X629779D01*
Y162965D01*
X630189D01*
Y162760D01*
X630395D01*
Y162555D01*
X630805D01*
Y162349D01*
X631011D01*
Y162144D01*
X631421D01*
Y161939D01*
X631626D01*
Y161734D01*
X632037D01*
Y161528D01*
X632448D01*
Y161323D01*
X632653D01*
Y161118D01*
X633063D01*
Y160912D01*
X633269D01*
Y160707D01*
X633679D01*
Y160502D01*
X634090D01*
Y160296D01*
X634295D01*
Y160502D01*
X634706D01*
Y160707D01*
X635116D01*
Y161118D01*
X635732D01*
Y161323D01*
X635938D01*
Y161528D01*
X636348D01*
Y161734D01*
X636759D01*
Y161939D01*
X636964D01*
Y162144D01*
X637169D01*
Y162349D01*
X637785D01*
Y162555D01*
X637990D01*
Y162349D01*
X638196D01*
Y162555D01*
X637990D01*
Y162760D01*
X638196D01*
Y162965D01*
X638606D01*
Y163171D01*
X638811D01*
Y162965D01*
X639017D01*
Y163376D01*
X639222D01*
Y163581D01*
X639427D01*
Y163787D01*
X640043D01*
Y163992D01*
X640249D01*
Y164197D01*
X640659D01*
Y164402D01*
X640864D01*
Y164608D01*
X641275D01*
Y164813D01*
X641480D01*
Y164608D01*
X641686D01*
Y164402D01*
X641891D01*
Y164608D01*
X641686D01*
Y164813D01*
X641480D01*
Y165018D01*
X641891D01*
Y165224D01*
X642301D01*
Y165429D01*
X642507D01*
Y165634D01*
X642712D01*
Y165839D01*
X643328D01*
Y166045D01*
X643533D01*
Y166250D01*
X643739D01*
Y166455D01*
X644149D01*
Y166661D01*
X644560D01*
Y166866D01*
X644765D01*
Y167071D01*
X644970D01*
Y167276D01*
X645381D01*
Y167482D01*
X645791D01*
Y167687D01*
X645997D01*
Y167892D01*
X646613D01*
Y168098D01*
X646818D01*
Y168303D01*
X647023D01*
Y168098D01*
X647229D01*
Y168303D01*
X647023D01*
Y168508D01*
X647434D01*
Y168713D01*
X647844D01*
Y168919D01*
X648050D01*
Y169124D01*
X648255D01*
Y169329D01*
X648871D01*
Y169535D01*
X649076D01*
Y169740D01*
X649281D01*
Y169945D01*
X649692D01*
Y170151D01*
X649897D01*
Y169945D01*
X650103D01*
Y170356D01*
X650513D01*
Y170767D01*
X650924D01*
Y170972D01*
X651334D01*
Y171177D01*
X651540D01*
Y171382D01*
X652156D01*
Y171588D01*
X652771D01*
Y171382D01*
D02*
G37*
G36*
X652566Y150442D02*
X652977D01*
Y149827D01*
X653182D01*
Y144900D01*
X652977D01*
Y144284D01*
X652771D01*
Y144079D01*
X652361D01*
Y143873D01*
X603501D01*
Y144079D01*
X602886D01*
Y144489D01*
X602680D01*
Y144694D01*
X602475D01*
Y150032D01*
X602886D01*
Y150237D01*
X602680D01*
Y150442D01*
X602886D01*
Y150237D01*
X603091D01*
Y150442D01*
X602886D01*
Y150648D01*
X604323D01*
Y150442D01*
X604528D01*
Y150648D01*
X652566D01*
Y150442D01*
D02*
G37*
G36*
X652771Y134840D02*
X652977D01*
Y134225D01*
X653182D01*
Y129092D01*
X652977D01*
Y128682D01*
X652771D01*
Y128476D01*
X652361D01*
Y128271D01*
X626699D01*
Y128066D01*
X625262D01*
Y127860D01*
X624852D01*
Y127655D01*
X624646D01*
Y127450D01*
X624236D01*
Y127245D01*
X623825D01*
Y127039D01*
X623620D01*
Y126834D01*
X623415D01*
Y126423D01*
X623209D01*
Y126218D01*
X623004D01*
Y125808D01*
X622799D01*
Y125602D01*
X622593D01*
Y124576D01*
X622388D01*
Y124781D01*
X622183D01*
Y124576D01*
X622388D01*
Y117801D01*
X622593D01*
Y117185D01*
X622799D01*
Y116364D01*
X623004D01*
Y115954D01*
X623209D01*
Y115748D01*
X623415D01*
Y115338D01*
X623620D01*
Y115132D01*
X623825D01*
Y114927D01*
X624031D01*
Y114722D01*
X624236D01*
Y114516D01*
X624441D01*
Y114106D01*
X624646D01*
Y114311D01*
X624852D01*
Y114106D01*
X625262D01*
Y113901D01*
X625673D01*
Y113695D01*
X626699D01*
Y113490D01*
X628342D01*
Y113285D01*
X652771D01*
Y113079D01*
X652977D01*
Y112464D01*
X653182D01*
Y107536D01*
X652977D01*
Y106921D01*
X652771D01*
Y107126D01*
X652566D01*
Y106921D01*
X652771D01*
Y106715D01*
X616845D01*
Y106921D01*
X616640D01*
Y113079D01*
X616845D01*
Y112874D01*
X617051D01*
Y113079D01*
X617256D01*
Y113285D01*
X620541D01*
Y113490D01*
X620335D01*
Y113901D01*
X620130D01*
Y114106D01*
X619925D01*
Y114311D01*
X619309D01*
Y114516D01*
X619104D01*
Y114722D01*
X618898D01*
Y114927D01*
X618693D01*
Y115132D01*
X618488D01*
Y115338D01*
X618282D01*
Y115543D01*
X618077D01*
Y115748D01*
X617872D01*
Y116159D01*
X617667D01*
Y116364D01*
X617461D01*
Y116775D01*
X617256D01*
Y117390D01*
X617051D01*
Y117801D01*
X616845D01*
Y118417D01*
X616640D01*
Y127450D01*
X616845D01*
Y128066D01*
X617051D01*
Y128682D01*
X617256D01*
Y129503D01*
X617461D01*
Y129708D01*
X617667D01*
Y130119D01*
X617872D01*
Y130324D01*
X618077D01*
Y130940D01*
X618282D01*
Y131145D01*
X618488D01*
Y131350D01*
X618693D01*
Y131556D01*
X618898D01*
Y131966D01*
X619309D01*
Y132377D01*
X619514D01*
Y132582D01*
X619719D01*
Y132787D01*
X620130D01*
Y132993D01*
X620335D01*
Y133198D01*
X620541D01*
Y132993D01*
X620746D01*
Y133609D01*
X621362D01*
Y133814D01*
X621772D01*
Y134019D01*
X622183D01*
Y134225D01*
X622799D01*
Y134430D01*
X623620D01*
Y134635D01*
X624031D01*
Y134840D01*
X624646D01*
Y134635D01*
X624852D01*
Y135046D01*
X652771D01*
Y134840D01*
D02*
G37*
G36*
X671658Y143052D02*
X672069D01*
Y142641D01*
X672274D01*
Y136893D01*
X672069D01*
Y136688D01*
X672274D01*
Y136483D01*
X672479D01*
Y136072D01*
X672685D01*
Y135661D01*
X672890D01*
Y135251D01*
X673095D01*
Y135046D01*
X673301D01*
Y134840D01*
X673711D01*
Y134430D01*
X673916D01*
Y134225D01*
X674532D01*
Y134019D01*
X674943D01*
Y133814D01*
X675353D01*
Y133609D01*
X676175D01*
Y133403D01*
X676380D01*
Y133609D01*
X676791D01*
Y133403D01*
X676996D01*
Y133609D01*
X678022D01*
Y133403D01*
X678228D01*
Y133609D01*
X697114D01*
Y133198D01*
X697320D01*
Y133403D01*
X697525D01*
Y133198D01*
X697730D01*
Y128066D01*
X696909D01*
Y127860D01*
X668168D01*
Y128066D01*
X667552D01*
Y128271D01*
X667347D01*
Y133198D01*
X667552D01*
Y133403D01*
X667963D01*
Y133609D01*
X670632D01*
Y134019D01*
X670426D01*
Y134225D01*
X669811D01*
Y134430D01*
X669605D01*
Y134635D01*
X669400D01*
Y134840D01*
X669195D01*
Y135046D01*
X668989D01*
Y135251D01*
X668784D01*
Y135661D01*
X668374D01*
Y136072D01*
X668168D01*
Y136483D01*
X668374D01*
Y136688D01*
X667963D01*
Y136893D01*
X667758D01*
Y137509D01*
X667552D01*
Y138536D01*
X667347D01*
Y141820D01*
X667552D01*
Y142026D01*
X667347D01*
Y142847D01*
X667552D01*
Y143052D01*
X667758D01*
Y143257D01*
X671658D01*
Y143052D01*
D02*
G37*
G36*
X697320Y119854D02*
X697730D01*
Y114722D01*
X697525D01*
Y114516D01*
X694651D01*
Y113901D01*
X694856D01*
Y113695D01*
X695472D01*
Y113490D01*
X695677D01*
Y113285D01*
X695883D01*
Y113079D01*
X696293D01*
Y112669D01*
X696499D01*
Y112258D01*
X696909D01*
Y111642D01*
X697114D01*
Y111232D01*
X697320D01*
Y110821D01*
X697525D01*
Y110205D01*
X697730D01*
Y103841D01*
X697525D01*
Y103636D01*
X697730D01*
Y103225D01*
X697525D01*
Y102815D01*
X697320D01*
Y101994D01*
X697114D01*
Y101378D01*
X696909D01*
Y100762D01*
X696704D01*
Y100557D01*
X696499D01*
Y100146D01*
X696293D01*
Y99735D01*
X696088D01*
Y99530D01*
X695883D01*
Y99325D01*
X695677D01*
Y99120D01*
X695472D01*
Y99325D01*
X695267D01*
Y99120D01*
X695472D01*
Y98914D01*
X695062D01*
Y98504D01*
X694856D01*
Y98298D01*
X694651D01*
Y98093D01*
X694240D01*
Y97888D01*
X693830D01*
Y97683D01*
X693624D01*
Y97477D01*
X693419D01*
Y97272D01*
X692598D01*
Y97067D01*
X692188D01*
Y96861D01*
X691572D01*
Y96656D01*
X690956D01*
Y96451D01*
X675764D01*
Y96656D01*
X675559D01*
Y96451D01*
X674327D01*
Y96656D01*
X673506D01*
Y96861D01*
X672890D01*
Y97067D01*
X672274D01*
Y97272D01*
X671658D01*
Y97683D01*
X671042D01*
Y98093D01*
X670837D01*
Y97888D01*
X670632D01*
Y98298D01*
X670221D01*
Y98504D01*
X669811D01*
Y98709D01*
X669605D01*
Y99120D01*
X669400D01*
Y99325D01*
X669195D01*
Y99530D01*
X668989D01*
Y99735D01*
X668784D01*
Y100146D01*
X668579D01*
Y100557D01*
X668374D01*
Y100762D01*
X668168D01*
Y101378D01*
X667963D01*
Y101994D01*
X667758D01*
Y102404D01*
X667552D01*
Y102610D01*
X667758D01*
Y102815D01*
X667552D01*
Y103636D01*
X667347D01*
Y104047D01*
X667552D01*
Y104252D01*
X667347D01*
Y119238D01*
X667552D01*
Y119443D01*
X667347D01*
Y119854D01*
X667758D01*
Y120059D01*
X697320D01*
Y119854D01*
D02*
G37*
G36*
X652361Y96656D02*
X652977D01*
Y96451D01*
X652771D01*
Y96245D01*
X652977D01*
Y96040D01*
X653182D01*
Y90908D01*
X652977D01*
Y90292D01*
X652361D01*
Y90087D01*
X617256D01*
Y90292D01*
X616640D01*
Y91113D01*
X616845D01*
Y91318D01*
X616640D01*
Y96451D01*
X616845D01*
Y96656D01*
X617256D01*
Y96861D01*
X652361D01*
Y96656D01*
D02*
G37*
G36*
X610481D02*
X610892D01*
Y96451D01*
X611097D01*
Y96040D01*
X611302D01*
Y90908D01*
X611097D01*
Y90292D01*
X610687D01*
Y90087D01*
X604117D01*
Y90292D01*
X603912D01*
Y90087D01*
X603707D01*
Y90292D01*
X603501D01*
Y90087D01*
X603296D01*
Y90292D01*
X602886D01*
Y90497D01*
X602680D01*
Y90908D01*
X602886D01*
Y91113D01*
X602680D01*
Y96451D01*
X602886D01*
Y96656D01*
X603296D01*
Y96861D01*
X610481D01*
Y96656D01*
D02*
G37*
G36*
X690956Y89471D02*
X691572D01*
Y89265D01*
X692188D01*
Y89060D01*
X692803D01*
Y88855D01*
X693419D01*
Y88650D01*
X693624D01*
Y88444D01*
X693830D01*
Y88239D01*
X694240D01*
Y88034D01*
X694651D01*
Y87829D01*
X694856D01*
Y87623D01*
X695062D01*
Y87418D01*
X695267D01*
Y87213D01*
X695472D01*
Y87007D01*
X695677D01*
Y86802D01*
X695883D01*
Y86597D01*
X695677D01*
Y86391D01*
X696088D01*
Y86186D01*
X696293D01*
Y85775D01*
X696499D01*
Y85570D01*
X696704D01*
Y85365D01*
X696909D01*
Y84749D01*
X697114D01*
Y84133D01*
X697320D01*
Y83517D01*
X697525D01*
Y82901D01*
X697730D01*
Y72842D01*
X697525D01*
Y72432D01*
X696909D01*
Y72226D01*
X697525D01*
Y71816D01*
X697320D01*
Y71405D01*
X697114D01*
Y70995D01*
X696909D01*
Y70379D01*
X696704D01*
Y70173D01*
X696499D01*
Y69763D01*
X696293D01*
Y69352D01*
X696088D01*
Y68942D01*
X695677D01*
Y68531D01*
X695472D01*
Y68326D01*
X695062D01*
Y68531D01*
X694856D01*
Y68326D01*
X695062D01*
Y67915D01*
X694856D01*
Y67710D01*
X694446D01*
Y67505D01*
X694240D01*
Y67299D01*
X693830D01*
Y67094D01*
X693624D01*
Y66889D01*
X693214D01*
Y67094D01*
X693009D01*
Y66683D01*
X692598D01*
Y66478D01*
X692188D01*
Y66273D01*
X691982D01*
Y66478D01*
X691777D01*
Y66273D01*
X690956D01*
Y66068D01*
X689724D01*
Y65862D01*
X689108D01*
Y66068D01*
X688698D01*
Y65862D01*
X675353D01*
Y66068D01*
X674122D01*
Y66273D01*
X673506D01*
Y66478D01*
X673301D01*
Y66273D01*
X672890D01*
Y66478D01*
X672479D01*
Y66683D01*
X672069D01*
Y66889D01*
X671453D01*
Y67094D01*
X671042D01*
Y67299D01*
X670837D01*
Y67505D01*
X670632D01*
Y67710D01*
X670221D01*
Y67915D01*
X670016D01*
Y68120D01*
X669811D01*
Y68326D01*
X669605D01*
Y68531D01*
X669400D01*
Y68942D01*
X668989D01*
Y69147D01*
X668784D01*
Y69557D01*
X668579D01*
Y69968D01*
X668374D01*
Y70379D01*
X668168D01*
Y70995D01*
X667963D01*
Y71405D01*
X667758D01*
Y71816D01*
X667552D01*
Y73253D01*
X667347D01*
Y82286D01*
X667552D01*
Y83723D01*
X667758D01*
Y84133D01*
X667963D01*
Y84749D01*
X668168D01*
Y85365D01*
X668374D01*
Y85570D01*
X668579D01*
Y85365D01*
X668784D01*
Y85570D01*
X668579D01*
Y85981D01*
X668784D01*
Y86391D01*
X668989D01*
Y86597D01*
X669195D01*
Y86802D01*
X669400D01*
Y87007D01*
X669605D01*
Y87213D01*
X669811D01*
Y87418D01*
X670016D01*
Y87623D01*
X670221D01*
Y87829D01*
X670426D01*
Y88034D01*
X670837D01*
Y88239D01*
X671042D01*
Y88444D01*
X671453D01*
Y88650D01*
X671658D01*
Y88855D01*
X672274D01*
Y89060D01*
X672890D01*
Y89265D01*
X673506D01*
Y89471D01*
X674122D01*
Y89676D01*
X690956D01*
Y89471D01*
D02*
G37*
G36*
X652361Y79822D02*
X652771D01*
Y79617D01*
X652977D01*
Y79001D01*
X653182D01*
Y74074D01*
X652977D01*
Y73458D01*
X652771D01*
Y73253D01*
X602886D01*
Y73458D01*
X602680D01*
Y73869D01*
X602475D01*
Y74690D01*
X602680D01*
Y74895D01*
X602475D01*
Y79206D01*
X602680D01*
Y79412D01*
X602886D01*
Y79822D01*
X603296D01*
Y80027D01*
X652361D01*
Y79822D01*
D02*
G37*
G36*
X644149Y64015D02*
X644970D01*
Y63809D01*
X645791D01*
Y63604D01*
X646818D01*
Y63399D01*
X647023D01*
Y63193D01*
X647639D01*
Y62988D01*
X647844D01*
Y62783D01*
X648255D01*
Y62578D01*
X648666D01*
Y62372D01*
X648871D01*
Y62167D01*
X649281D01*
Y61962D01*
X649487D01*
Y61756D01*
X649692D01*
Y61551D01*
X650103D01*
Y61346D01*
X650308D01*
Y60935D01*
X650513D01*
Y60730D01*
X650719D01*
Y60525D01*
X650924D01*
Y60319D01*
X651129D01*
Y60114D01*
X651334D01*
Y59703D01*
X651540D01*
Y59498D01*
X651745D01*
Y58882D01*
X651950D01*
Y58677D01*
X652156D01*
Y58266D01*
X652361D01*
Y57445D01*
X652566D01*
Y56829D01*
X652771D01*
Y56213D01*
X652977D01*
Y53955D01*
X653182D01*
Y36095D01*
X652977D01*
Y35684D01*
X652771D01*
Y35479D01*
X616845D01*
Y35274D01*
X615408D01*
Y35068D01*
X614176D01*
Y34863D01*
X613355D01*
Y34658D01*
X612124D01*
Y34453D01*
X611302D01*
Y34247D01*
X610892D01*
Y34042D01*
X609865D01*
Y33837D01*
X609455D01*
Y33631D01*
X609044D01*
Y33426D01*
X608634D01*
Y33631D01*
X608428D01*
Y33426D01*
X608223D01*
Y33221D01*
X607812D01*
Y33015D01*
X607402D01*
Y32810D01*
X606991D01*
Y32605D01*
X606375D01*
Y32400D01*
X606170D01*
Y32605D01*
X605965D01*
Y32400D01*
X606170D01*
Y32194D01*
X605760D01*
Y31989D01*
X605144D01*
Y31784D01*
X604938D01*
Y31578D01*
X604733D01*
Y31373D01*
X604528D01*
Y31168D01*
X603912D01*
Y30963D01*
X603707D01*
Y30552D01*
X603296D01*
Y30757D01*
X603091D01*
Y30552D01*
X603296D01*
Y30347D01*
X603091D01*
Y30141D01*
X602886D01*
Y29936D01*
X602680D01*
Y29731D01*
X602475D01*
Y29525D01*
X602270D01*
Y29115D01*
X601859D01*
Y28910D01*
X601654D01*
Y28704D01*
X601448D01*
Y28499D01*
X601038D01*
Y28294D01*
X600832D01*
Y28089D01*
X600422D01*
Y27883D01*
X600011D01*
Y27678D01*
X599601D01*
Y27473D01*
X599395D01*
Y27267D01*
X598985D01*
Y27062D01*
X598574D01*
Y27267D01*
X598369D01*
Y27062D01*
X598164D01*
Y26857D01*
X597343D01*
Y26651D01*
X596932D01*
Y26446D01*
X596111D01*
Y26651D01*
X595905D01*
Y26446D01*
X592210D01*
Y26651D01*
X591594D01*
Y26857D01*
X591184D01*
Y27062D01*
X590363D01*
Y27267D01*
X589952D01*
Y27473D01*
X589542D01*
Y27678D01*
X589131D01*
Y27883D01*
X588926D01*
Y28089D01*
X588515D01*
Y28294D01*
X588310D01*
Y28499D01*
X587899D01*
Y28704D01*
X587694D01*
Y28910D01*
X587489D01*
Y29115D01*
X587078D01*
Y29320D01*
X586873D01*
Y29525D01*
X586667D01*
Y29731D01*
X586462D01*
Y30141D01*
X586051D01*
Y30347D01*
X585846D01*
Y30552D01*
X585641D01*
Y30963D01*
X585436D01*
Y31168D01*
X585230D01*
Y31373D01*
X585025D01*
Y31784D01*
X584820D01*
Y31989D01*
X584614D01*
Y32605D01*
X584409D01*
Y32810D01*
X584614D01*
Y33015D01*
X584204D01*
Y33221D01*
X583999D01*
Y33631D01*
X583793D01*
Y34453D01*
X583588D01*
Y35274D01*
X583383D01*
Y36095D01*
X583177D01*
Y37327D01*
X582972D01*
Y38353D01*
X583177D01*
Y39585D01*
X583383D01*
Y40406D01*
X583793D01*
Y40611D01*
X583588D01*
Y41227D01*
X583793D01*
Y41432D01*
X583999D01*
Y41638D01*
X583793D01*
Y41843D01*
X583999D01*
Y42254D01*
X584204D01*
Y42459D01*
X584409D01*
Y43280D01*
X584614D01*
Y43691D01*
X584820D01*
Y43896D01*
X585025D01*
Y44307D01*
X585230D01*
Y44512D01*
X585436D01*
Y44717D01*
X585641D01*
Y45128D01*
X585846D01*
Y45333D01*
X586051D01*
Y45128D01*
X586257D01*
Y45333D01*
X586051D01*
Y45538D01*
X586257D01*
Y45744D01*
X586462D01*
Y45949D01*
X586667D01*
Y46154D01*
X586873D01*
Y46360D01*
X587078D01*
Y46565D01*
X587283D01*
Y46770D01*
X587694D01*
Y46975D01*
X587899D01*
Y47181D01*
X588310D01*
Y47386D01*
X588515D01*
Y47181D01*
X588720D01*
Y47386D01*
X588515D01*
Y47591D01*
X588720D01*
Y47386D01*
X588926D01*
Y47591D01*
X588720D01*
Y47797D01*
X589131D01*
Y48002D01*
X589542D01*
Y48207D01*
X589952D01*
Y48412D01*
X590568D01*
Y48618D01*
X591184D01*
Y48823D01*
X591594D01*
Y49028D01*
X592416D01*
Y49234D01*
X596727D01*
Y49028D01*
X597548D01*
Y48823D01*
X598164D01*
Y48618D01*
X598574D01*
Y48207D01*
X598780D01*
Y48412D01*
X599395D01*
Y48207D01*
X599601D01*
Y48002D01*
X600011D01*
Y47797D01*
X600422D01*
Y47591D01*
X600832D01*
Y47386D01*
X601038D01*
Y47181D01*
X601448D01*
Y46975D01*
X601654D01*
Y46770D01*
X601859D01*
Y46565D01*
X602064D01*
Y46360D01*
X602270D01*
Y46154D01*
X602475D01*
Y45949D01*
X602886D01*
Y45538D01*
X603091D01*
Y45333D01*
X603296D01*
Y45128D01*
X603501D01*
Y44922D01*
X603707D01*
Y44512D01*
X603912D01*
Y44307D01*
X604117D01*
Y44101D01*
X604323D01*
Y43691D01*
X604528D01*
Y43280D01*
X604733D01*
Y43075D01*
X604938D01*
Y42459D01*
X605144D01*
Y42048D01*
X605965D01*
Y41843D01*
X606170D01*
Y42048D01*
X620130D01*
Y42870D01*
X619309D01*
Y43075D01*
X619104D01*
Y43280D01*
X618898D01*
Y43485D01*
X618693D01*
Y43691D01*
X618282D01*
Y44101D01*
X618077D01*
Y44307D01*
X617872D01*
Y44512D01*
X617667D01*
Y44717D01*
X617461D01*
Y44922D01*
X617256D01*
Y45538D01*
X617051D01*
Y45744D01*
X616845D01*
Y46360D01*
X616640D01*
Y47181D01*
X616435D01*
Y48207D01*
X616230D01*
Y54982D01*
X616435D01*
Y56008D01*
X616640D01*
Y57035D01*
X616845D01*
Y57650D01*
X617051D01*
Y58061D01*
X617256D01*
Y58882D01*
X617461D01*
Y59088D01*
X617667D01*
Y59498D01*
X617872D01*
Y59703D01*
X618077D01*
Y60114D01*
X618282D01*
Y60319D01*
X618488D01*
Y60525D01*
X618693D01*
Y60935D01*
X618898D01*
Y61140D01*
X619104D01*
Y61346D01*
X619309D01*
Y61551D01*
X619514D01*
Y61346D01*
X619719D01*
Y61551D01*
X619514D01*
Y61756D01*
X619925D01*
Y61962D01*
X620130D01*
Y62167D01*
X620335D01*
Y62372D01*
X620746D01*
Y62578D01*
X620951D01*
Y62783D01*
X621362D01*
Y62988D01*
X621772D01*
Y63193D01*
X622183D01*
Y63399D01*
X622593D01*
Y63604D01*
X623620D01*
Y63809D01*
X624236D01*
Y64015D01*
X625262D01*
Y64220D01*
X626699D01*
Y64015D01*
X626905D01*
Y64220D01*
X644149D01*
Y64015D01*
D02*
G37*
G36*
X689929Y59088D02*
X690956D01*
Y58882D01*
X691777D01*
Y58677D01*
X692598D01*
Y58472D01*
X693009D01*
Y58061D01*
X693214D01*
Y58266D01*
X693419D01*
Y58061D01*
X693830D01*
Y57856D01*
X694240D01*
Y57650D01*
X694446D01*
Y57445D01*
X694856D01*
Y57035D01*
X695062D01*
Y56829D01*
X695267D01*
Y56624D01*
X695677D01*
Y56213D01*
X695883D01*
Y56008D01*
X696088D01*
Y55803D01*
X696293D01*
Y55392D01*
X696499D01*
Y55187D01*
X696704D01*
Y54776D01*
X696909D01*
Y54161D01*
X697114D01*
Y53750D01*
X697320D01*
Y53134D01*
X697525D01*
Y52929D01*
X697320D01*
Y52723D01*
X697525D01*
Y52518D01*
X697730D01*
Y50671D01*
X697320D01*
Y50465D01*
X697730D01*
Y35479D01*
X697320D01*
Y35274D01*
X656056D01*
Y35479D01*
X655851D01*
Y35684D01*
X655646D01*
Y40406D01*
X655851D01*
Y40611D01*
X656056D01*
Y40817D01*
X670221D01*
Y41432D01*
X669811D01*
Y41638D01*
X669400D01*
Y41843D01*
X669195D01*
Y42048D01*
X668989D01*
Y42254D01*
X668784D01*
Y42459D01*
X668579D01*
Y42664D01*
X668374D01*
Y42870D01*
X668168D01*
Y43280D01*
X667963D01*
Y43691D01*
X667758D01*
Y43896D01*
X667552D01*
Y44922D01*
X667347D01*
Y45333D01*
X667142D01*
Y45744D01*
X667347D01*
Y45949D01*
X667142D01*
Y46360D01*
X666937D01*
Y50876D01*
X667142D01*
Y52108D01*
X667347D01*
Y53134D01*
X667552D01*
Y53955D01*
X667758D01*
Y54366D01*
X667963D01*
Y54571D01*
X668168D01*
Y55392D01*
X668579D01*
Y55803D01*
X668784D01*
Y56213D01*
X668989D01*
Y56419D01*
X669195D01*
Y56624D01*
X669400D01*
Y56829D01*
X669605D01*
Y57035D01*
X669811D01*
Y57240D01*
X670016D01*
Y57445D01*
X670426D01*
Y57650D01*
X670632D01*
Y57856D01*
X670837D01*
Y58061D01*
X671453D01*
Y58266D01*
X671658D01*
Y58472D01*
X672274D01*
Y58677D01*
X673095D01*
Y58882D01*
X673711D01*
Y59088D01*
X674532D01*
Y58882D01*
X674738D01*
Y59088D01*
X674943D01*
Y59293D01*
X689929D01*
Y59088D01*
D02*
G37*
G36*
X36526Y410659D02*
X36748D01*
X36984Y410645D01*
X37247D01*
X37802Y410603D01*
X38371Y410562D01*
X38648Y410520D01*
X38911Y410493D01*
X39161Y410451D01*
X39397Y410396D01*
X39411D01*
X39466Y410382D01*
X39549Y410354D01*
X39674Y410326D01*
X39813Y410271D01*
X39979Y410215D01*
X40160Y410160D01*
X40368Y410076D01*
X40798Y409896D01*
X41269Y409647D01*
X41741Y409369D01*
X41976Y409203D01*
X42198Y409022D01*
X42212Y409009D01*
X42268Y408967D01*
X42351Y408884D01*
X42448Y408787D01*
X42573Y408662D01*
X42725Y408509D01*
X42878Y408329D01*
X43058Y408135D01*
X43238Y407899D01*
X43419Y407649D01*
X43613Y407386D01*
X43807Y407095D01*
X43987Y406776D01*
X44154Y406457D01*
X44320Y406096D01*
X44473Y405736D01*
X44487Y405708D01*
X44500Y405639D01*
X44542Y405541D01*
X44598Y405389D01*
X44653Y405195D01*
X44708Y404973D01*
X44778Y404709D01*
X44861Y404418D01*
X44930Y404099D01*
X45000Y403739D01*
X45055Y403364D01*
X45111Y402962D01*
X45166Y402546D01*
X45208Y402102D01*
X45222Y401645D01*
X45235Y401173D01*
Y401145D01*
Y401076D01*
Y400965D01*
X45222Y400798D01*
Y400618D01*
X45208Y400396D01*
X45194Y400147D01*
X45166Y399869D01*
X45138Y399578D01*
X45111Y399259D01*
X45013Y398607D01*
X44889Y397942D01*
X44722Y397290D01*
Y397276D01*
X44695Y397220D01*
X44667Y397123D01*
X44625Y397012D01*
X44584Y396874D01*
X44514Y396707D01*
X44445Y396513D01*
X44362Y396319D01*
X44181Y395875D01*
X43946Y395404D01*
X43696Y394946D01*
X43405Y394502D01*
X43391Y394488D01*
X43363Y394461D01*
X43322Y394391D01*
X43266Y394322D01*
X43197Y394225D01*
X43100Y394114D01*
X42892Y393864D01*
X42628Y393587D01*
X42337Y393296D01*
X42004Y393018D01*
X41657Y392755D01*
X41644D01*
X41616Y392727D01*
X41560Y392699D01*
X41491Y392658D01*
X41394Y392602D01*
X41283Y392547D01*
X41158Y392477D01*
X41020Y392408D01*
X40853Y392325D01*
X40687Y392242D01*
X40493Y392172D01*
X40298Y392089D01*
X39855Y391937D01*
X39369Y391798D01*
X39355D01*
X39314Y391784D01*
X39230Y391770D01*
X39133Y391743D01*
X39009Y391729D01*
X38856Y391701D01*
X38676Y391673D01*
X38482Y391645D01*
X38260Y391604D01*
X38024Y391576D01*
X37774Y391548D01*
X37497Y391534D01*
X37220Y391507D01*
X36914Y391493D01*
X36290Y391479D01*
X29370D01*
Y410673D01*
X36346D01*
X36526Y410659D01*
D02*
G37*
G36*
X57398Y410992D02*
X57578D01*
X57814Y410964D01*
X58092Y410936D01*
X58397Y410895D01*
X58729Y410853D01*
X59090Y410784D01*
X59478Y410701D01*
X59880Y410590D01*
X60283Y410465D01*
X60699Y410326D01*
X61115Y410146D01*
X61531Y409952D01*
X61933Y409730D01*
X61961Y409716D01*
X62030Y409674D01*
X62141Y409605D01*
X62280Y409494D01*
X62460Y409369D01*
X62668Y409217D01*
X62890Y409022D01*
X63140Y408815D01*
X63403Y408579D01*
X63667Y408315D01*
X63944Y408024D01*
X64207Y407705D01*
X64471Y407358D01*
X64734Y406998D01*
X64970Y406609D01*
X65192Y406193D01*
X65206Y406166D01*
X65248Y406096D01*
X65303Y405971D01*
X65372Y405791D01*
X65456Y405583D01*
X65553Y405320D01*
X65650Y405028D01*
X65761Y404696D01*
X65858Y404335D01*
X65955Y403933D01*
X66052Y403517D01*
X66135Y403059D01*
X66218Y402588D01*
X66274Y402088D01*
X66301Y401575D01*
X66315Y401048D01*
Y401034D01*
Y401020D01*
Y400979D01*
Y400923D01*
Y400854D01*
X66301Y400757D01*
Y400549D01*
X66274Y400299D01*
X66260Y400008D01*
X66218Y399661D01*
X66163Y399301D01*
X66107Y398899D01*
X66024Y398483D01*
X65927Y398053D01*
X65816Y397609D01*
X65677Y397151D01*
X65525Y396707D01*
X65345Y396264D01*
X65137Y395820D01*
X65123Y395792D01*
X65081Y395723D01*
X65012Y395598D01*
X64915Y395445D01*
X64804Y395251D01*
X64651Y395029D01*
X64471Y394780D01*
X64277Y394516D01*
X64055Y394239D01*
X63805Y393961D01*
X63528Y393670D01*
X63237Y393379D01*
X62904Y393102D01*
X62557Y392824D01*
X62183Y392575D01*
X61794Y392339D01*
X61767Y392325D01*
X61697Y392283D01*
X61572Y392228D01*
X61420Y392159D01*
X61212Y392061D01*
X60976Y391964D01*
X60713Y391853D01*
X60408Y391756D01*
X60061Y391645D01*
X59700Y391534D01*
X59326Y391437D01*
X58910Y391340D01*
X58494Y391271D01*
X58050Y391216D01*
X57592Y391174D01*
X57134Y391160D01*
X57010D01*
X56871Y391174D01*
X56677Y391188D01*
X56441Y391202D01*
X56164Y391229D01*
X55845Y391271D01*
X55512Y391326D01*
X55138Y391396D01*
X54749Y391479D01*
X54347Y391590D01*
X53945Y391715D01*
X53529Y391853D01*
X53099Y392034D01*
X52683Y392228D01*
X52281Y392464D01*
X52253Y392477D01*
X52183Y392519D01*
X52073Y392602D01*
X51934Y392699D01*
X51754Y392838D01*
X51546Y392991D01*
X51324Y393185D01*
X51074Y393393D01*
X50824Y393642D01*
X50547Y393906D01*
X50283Y394197D01*
X50020Y394516D01*
X49756Y394863D01*
X49507Y395223D01*
X49271Y395612D01*
X49049Y396028D01*
X49035Y396055D01*
X49008Y396125D01*
X48952Y396250D01*
X48883Y396430D01*
X48800Y396638D01*
X48703Y396888D01*
X48605Y397165D01*
X48508Y397484D01*
X48397Y397831D01*
X48300Y398205D01*
X48203Y398593D01*
X48120Y399010D01*
X48051Y399453D01*
X47995Y399897D01*
X47968Y400355D01*
X47954Y400826D01*
Y400840D01*
Y400882D01*
Y400951D01*
Y401034D01*
X47968Y401145D01*
Y401284D01*
X47981Y401437D01*
X47995Y401617D01*
X48009Y401811D01*
X48037Y402019D01*
X48065Y402241D01*
X48092Y402477D01*
X48176Y402990D01*
X48273Y403545D01*
X48411Y404141D01*
X48578Y404751D01*
X48786Y405375D01*
X49035Y405999D01*
X49327Y406609D01*
X49673Y407206D01*
X49868Y407497D01*
X50062Y407774D01*
X50283Y408038D01*
X50519Y408301D01*
X50533Y408315D01*
X50547Y408329D01*
X50589Y408371D01*
X50644Y408412D01*
X50700Y408482D01*
X50783Y408551D01*
X50991Y408731D01*
X51241Y408925D01*
X51546Y409161D01*
X51906Y409397D01*
X52308Y409660D01*
X52766Y409910D01*
X53265Y410146D01*
X53806Y410382D01*
X54389Y410590D01*
X55026Y410756D01*
X55692Y410895D01*
X56039Y410936D01*
X56399Y410978D01*
X56760Y410992D01*
X57134Y411006D01*
X57259D01*
X57398Y410992D01*
D02*
G37*
G36*
X55013Y435809D02*
X55207Y435796D01*
X55443Y435782D01*
X55706Y435740D01*
X56011Y435698D01*
X56330Y435629D01*
X56677Y435546D01*
X57024Y435449D01*
X57398Y435324D01*
X57759Y435171D01*
X58119Y434991D01*
X58466Y434797D01*
X58799Y434561D01*
X59118Y434284D01*
X59132Y434270D01*
X59187Y434215D01*
X59270Y434131D01*
X59367Y434006D01*
X59492Y433868D01*
X59631Y433688D01*
X59783Y433479D01*
X59936Y433244D01*
X60075Y432980D01*
X60227Y432689D01*
X60366Y432370D01*
X60491Y432037D01*
X60588Y431677D01*
X60671Y431302D01*
X60726Y430900D01*
X60740Y430484D01*
Y430470D01*
Y430428D01*
Y430373D01*
Y430290D01*
X60726Y430179D01*
X60713Y430068D01*
X60699Y429929D01*
X60685Y429777D01*
X60629Y429430D01*
X60546Y429042D01*
X60421Y428639D01*
X60269Y428223D01*
Y428209D01*
X60241Y428168D01*
X60213Y428112D01*
X60172Y428029D01*
X60130Y427932D01*
X60061Y427807D01*
X59991Y427669D01*
X59894Y427516D01*
X59797Y427350D01*
X59686Y427169D01*
X59409Y426767D01*
X59256Y426559D01*
X59090Y426337D01*
X58896Y426115D01*
X58702Y425880D01*
X58688Y425866D01*
X58646Y425824D01*
X58591Y425755D01*
X58494Y425658D01*
X58369Y425533D01*
X58216Y425380D01*
X58050Y425200D01*
X57842Y424992D01*
X57606Y424770D01*
X57329Y424520D01*
X57038Y424243D01*
X56705Y423938D01*
X56344Y423619D01*
X55956Y423272D01*
X55526Y422898D01*
X55068Y422509D01*
X55040Y422496D01*
X54971Y422426D01*
X54874Y422343D01*
X54735Y422218D01*
X54555Y422080D01*
X54375Y421913D01*
X54167Y421733D01*
X53945Y421539D01*
X53473Y421137D01*
X53251Y420928D01*
X53029Y420734D01*
X52821Y420540D01*
X52641Y420374D01*
X52475Y420221D01*
X52350Y420083D01*
X52322Y420055D01*
X52253Y419972D01*
X52142Y419847D01*
X52003Y419694D01*
X51851Y419500D01*
X51684Y419292D01*
X51518Y419056D01*
X51365Y418820D01*
X60768D01*
Y416560D01*
X48092D01*
Y416574D01*
Y416602D01*
Y416643D01*
Y416699D01*
Y416782D01*
X48106Y416865D01*
X48120Y417087D01*
X48148Y417323D01*
X48189Y417600D01*
X48259Y417891D01*
X48356Y418183D01*
Y418196D01*
X48384Y418238D01*
X48411Y418307D01*
X48453Y418405D01*
X48495Y418529D01*
X48564Y418668D01*
X48647Y418820D01*
X48730Y418987D01*
X48827Y419181D01*
X48952Y419375D01*
X49216Y419805D01*
X49535Y420263D01*
X49909Y420734D01*
X49923Y420748D01*
X49965Y420790D01*
X50020Y420859D01*
X50103Y420956D01*
X50214Y421081D01*
X50353Y421220D01*
X50505Y421386D01*
X50700Y421567D01*
X50908Y421774D01*
X51129Y421996D01*
X51379Y422232D01*
X51656Y422496D01*
X51962Y422759D01*
X52281Y423036D01*
X52627Y423328D01*
X52988Y423633D01*
X53002Y423647D01*
X53029Y423661D01*
X53071Y423702D01*
X53127Y423744D01*
X53196Y423813D01*
X53279Y423882D01*
X53487Y424063D01*
X53751Y424271D01*
X54028Y424534D01*
X54347Y424812D01*
X54680Y425117D01*
X55040Y425436D01*
X55387Y425769D01*
X55748Y426101D01*
X56080Y426448D01*
X56413Y426781D01*
X56705Y427100D01*
X56982Y427419D01*
X57204Y427710D01*
X57218Y427724D01*
X57245Y427780D01*
X57301Y427863D01*
X57384Y427960D01*
X57467Y428098D01*
X57551Y428251D01*
X57661Y428431D01*
X57759Y428625D01*
X57856Y428834D01*
X57967Y429055D01*
X58147Y429541D01*
X58216Y429790D01*
X58272Y430040D01*
X58299Y430290D01*
X58313Y430539D01*
Y430553D01*
Y430609D01*
Y430678D01*
X58299Y430775D01*
X58286Y430900D01*
X58258Y431039D01*
X58230Y431191D01*
X58189Y431358D01*
X58133Y431538D01*
X58064Y431732D01*
X57980Y431926D01*
X57883Y432120D01*
X57772Y432328D01*
X57634Y432523D01*
X57481Y432717D01*
X57301Y432897D01*
X57287Y432911D01*
X57259Y432939D01*
X57204Y432980D01*
X57121Y433050D01*
X57024Y433119D01*
X56899Y433202D01*
X56760Y433299D01*
X56607Y433382D01*
X56427Y433479D01*
X56233Y433563D01*
X56011Y433646D01*
X55789Y433715D01*
X55540Y433785D01*
X55276Y433826D01*
X54999Y433854D01*
X54708Y433868D01*
X54541D01*
X54430Y433854D01*
X54278Y433840D01*
X54111Y433812D01*
X53931Y433785D01*
X53723Y433743D01*
X53515Y433688D01*
X53293Y433618D01*
X53071Y433535D01*
X52835Y433438D01*
X52613Y433313D01*
X52392Y433174D01*
X52170Y433022D01*
X51975Y432841D01*
X51962Y432828D01*
X51934Y432800D01*
X51878Y432731D01*
X51823Y432661D01*
X51740Y432550D01*
X51656Y432425D01*
X51559Y432273D01*
X51476Y432107D01*
X51379Y431926D01*
X51282Y431704D01*
X51199Y431482D01*
X51116Y431233D01*
X51060Y430955D01*
X51005Y430664D01*
X50977Y430359D01*
X50963Y430026D01*
X48536Y430276D01*
Y430290D01*
Y430304D01*
X48550Y430345D01*
Y430401D01*
X48564Y430539D01*
X48605Y430720D01*
X48647Y430942D01*
X48703Y431205D01*
X48772Y431496D01*
X48855Y431801D01*
X48966Y432134D01*
X49091Y432467D01*
X49243Y432814D01*
X49424Y433161D01*
X49618Y433493D01*
X49854Y433812D01*
X50103Y434117D01*
X50395Y434395D01*
X50408Y434409D01*
X50464Y434450D01*
X50561Y434533D01*
X50686Y434617D01*
X50852Y434728D01*
X51046Y434852D01*
X51282Y434977D01*
X51546Y435116D01*
X51851Y435241D01*
X52170Y435366D01*
X52530Y435490D01*
X52919Y435601D01*
X53335Y435698D01*
X53778Y435768D01*
X54250Y435809D01*
X54749Y435823D01*
X54874D01*
X55013Y435809D01*
D02*
G37*
G36*
X47316Y416560D02*
X44431D01*
X42212Y422371D01*
X34155D01*
X32060Y416560D01*
X29384D01*
X36748Y435754D01*
X39466D01*
X47316Y416560D01*
D02*
G37*
G36*
X57259Y441960D02*
X54902D01*
Y456966D01*
X54888Y456952D01*
X54860Y456924D01*
X54819Y456882D01*
X54749Y456827D01*
X54666Y456758D01*
X54555Y456660D01*
X54430Y456563D01*
X54305Y456452D01*
X54139Y456342D01*
X53973Y456203D01*
X53792Y456078D01*
X53598Y455925D01*
X53376Y455787D01*
X53154Y455634D01*
X52655Y455329D01*
X52641Y455315D01*
X52600Y455288D01*
X52516Y455246D01*
X52419Y455204D01*
X52308Y455135D01*
X52170Y455052D01*
X52003Y454969D01*
X51837Y454871D01*
X51448Y454677D01*
X51032Y454483D01*
X50602Y454289D01*
X50187Y454123D01*
Y456397D01*
X50214Y456411D01*
X50270Y456439D01*
X50381Y456494D01*
X50519Y456563D01*
X50686Y456647D01*
X50894Y456758D01*
X51116Y456882D01*
X51351Y457021D01*
X51615Y457188D01*
X51892Y457354D01*
X52475Y457742D01*
X53071Y458172D01*
X53640Y458644D01*
X53654Y458658D01*
X53709Y458699D01*
X53778Y458769D01*
X53875Y458866D01*
X54000Y458990D01*
X54139Y459129D01*
X54292Y459296D01*
X54458Y459462D01*
X54624Y459656D01*
X54805Y459864D01*
X55151Y460294D01*
X55470Y460752D01*
X55609Y460987D01*
X55734Y461223D01*
X57259D01*
Y441960D01*
D02*
G37*
G36*
X47316D02*
X44431D01*
X42212Y447771D01*
X34155D01*
X32060Y441960D01*
X29384D01*
X36748Y461154D01*
X39466D01*
X47316Y441960D01*
D02*
G37*
G36*
X54402Y359609D02*
X54597Y359595D01*
X54832Y359582D01*
X55096Y359540D01*
X55401Y359498D01*
X55720Y359429D01*
X56067Y359346D01*
X56413Y359249D01*
X56788Y359124D01*
X57148Y358971D01*
X57509Y358791D01*
X57856Y358597D01*
X58189Y358361D01*
X58507Y358084D01*
X58521Y358070D01*
X58577Y358014D01*
X58660Y357931D01*
X58757Y357806D01*
X58882Y357668D01*
X59021Y357487D01*
X59173Y357279D01*
X59326Y357044D01*
X59464Y356780D01*
X59617Y356489D01*
X59756Y356170D01*
X59880Y355837D01*
X59978Y355477D01*
X60061Y355102D01*
X60116Y354700D01*
X60130Y354284D01*
Y354270D01*
Y354228D01*
Y354173D01*
Y354090D01*
X60116Y353979D01*
X60102Y353868D01*
X60089Y353729D01*
X60075Y353577D01*
X60019Y353230D01*
X59936Y352842D01*
X59811Y352439D01*
X59659Y352023D01*
Y352010D01*
X59631Y351968D01*
X59603Y351912D01*
X59562Y351829D01*
X59520Y351732D01*
X59451Y351607D01*
X59381Y351469D01*
X59284Y351316D01*
X59187Y351150D01*
X59076Y350969D01*
X58799Y350567D01*
X58646Y350359D01*
X58480Y350137D01*
X58286Y349915D01*
X58092Y349680D01*
X58078Y349666D01*
X58036Y349624D01*
X57980Y349555D01*
X57883Y349458D01*
X57759Y349333D01*
X57606Y349180D01*
X57440Y349000D01*
X57232Y348792D01*
X56996Y348570D01*
X56719Y348321D01*
X56427Y348043D01*
X56094Y347738D01*
X55734Y347419D01*
X55346Y347072D01*
X54916Y346698D01*
X54458Y346310D01*
X54430Y346296D01*
X54361Y346226D01*
X54264Y346143D01*
X54125Y346018D01*
X53945Y345880D01*
X53765Y345713D01*
X53556Y345533D01*
X53335Y345339D01*
X52863Y344937D01*
X52641Y344729D01*
X52419Y344534D01*
X52211Y344340D01*
X52031Y344174D01*
X51865Y344021D01*
X51740Y343883D01*
X51712Y343855D01*
X51643Y343772D01*
X51532Y343647D01*
X51393Y343494D01*
X51241Y343300D01*
X51074Y343092D01*
X50908Y342856D01*
X50755Y342621D01*
X60158D01*
Y340360D01*
X47482D01*
Y340374D01*
Y340402D01*
Y340443D01*
Y340499D01*
Y340582D01*
X47496Y340665D01*
X47510Y340887D01*
X47538Y341123D01*
X47579Y341400D01*
X47649Y341691D01*
X47746Y341983D01*
Y341996D01*
X47773Y342038D01*
X47801Y342107D01*
X47843Y342205D01*
X47884Y342329D01*
X47954Y342468D01*
X48037Y342621D01*
X48120Y342787D01*
X48217Y342981D01*
X48342Y343175D01*
X48605Y343605D01*
X48924Y344063D01*
X49299Y344534D01*
X49313Y344548D01*
X49354Y344590D01*
X49410Y344659D01*
X49493Y344756D01*
X49604Y344881D01*
X49743Y345020D01*
X49895Y345186D01*
X50089Y345367D01*
X50297Y345574D01*
X50519Y345796D01*
X50769Y346032D01*
X51046Y346296D01*
X51351Y346559D01*
X51670Y346837D01*
X52017Y347128D01*
X52378Y347433D01*
X52392Y347447D01*
X52419Y347461D01*
X52461Y347502D01*
X52516Y347544D01*
X52586Y347613D01*
X52669Y347682D01*
X52877Y347863D01*
X53140Y348071D01*
X53418Y348334D01*
X53737Y348612D01*
X54070Y348917D01*
X54430Y349236D01*
X54777Y349569D01*
X55138Y349902D01*
X55470Y350248D01*
X55803Y350581D01*
X56094Y350900D01*
X56372Y351219D01*
X56594Y351510D01*
X56607Y351524D01*
X56635Y351580D01*
X56691Y351663D01*
X56774Y351760D01*
X56857Y351898D01*
X56940Y352051D01*
X57051Y352231D01*
X57148Y352425D01*
X57245Y352634D01*
X57356Y352855D01*
X57537Y353341D01*
X57606Y353591D01*
X57661Y353840D01*
X57689Y354090D01*
X57703Y354339D01*
Y354353D01*
Y354409D01*
Y354478D01*
X57689Y354575D01*
X57675Y354700D01*
X57648Y354839D01*
X57620Y354991D01*
X57578Y355158D01*
X57523Y355338D01*
X57453Y355532D01*
X57370Y355726D01*
X57273Y355920D01*
X57162Y356128D01*
X57024Y356323D01*
X56871Y356517D01*
X56691Y356697D01*
X56677Y356711D01*
X56649Y356739D01*
X56594Y356780D01*
X56511Y356850D01*
X56413Y356919D01*
X56289Y357002D01*
X56150Y357099D01*
X55997Y357182D01*
X55817Y357279D01*
X55623Y357363D01*
X55401Y357446D01*
X55179Y357515D01*
X54929Y357585D01*
X54666Y357626D01*
X54389Y357654D01*
X54097Y357668D01*
X53931D01*
X53820Y357654D01*
X53667Y357640D01*
X53501Y357612D01*
X53321Y357585D01*
X53113Y357543D01*
X52905Y357487D01*
X52683Y357418D01*
X52461Y357335D01*
X52225Y357238D01*
X52003Y357113D01*
X51781Y356974D01*
X51559Y356822D01*
X51365Y356642D01*
X51351Y356628D01*
X51324Y356600D01*
X51268Y356531D01*
X51213Y356461D01*
X51129Y356350D01*
X51046Y356225D01*
X50949Y356073D01*
X50866Y355906D01*
X50769Y355726D01*
X50672Y355504D01*
X50589Y355282D01*
X50505Y355033D01*
X50450Y354755D01*
X50395Y354464D01*
X50367Y354159D01*
X50353Y353826D01*
X47926Y354076D01*
Y354090D01*
Y354104D01*
X47940Y354145D01*
Y354201D01*
X47954Y354339D01*
X47995Y354520D01*
X48037Y354742D01*
X48092Y355005D01*
X48162Y355296D01*
X48245Y355601D01*
X48356Y355934D01*
X48481Y356267D01*
X48633Y356614D01*
X48814Y356960D01*
X49008Y357293D01*
X49243Y357612D01*
X49493Y357917D01*
X49784Y358195D01*
X49798Y358209D01*
X49854Y358250D01*
X49951Y358333D01*
X50075Y358417D01*
X50242Y358528D01*
X50436Y358652D01*
X50672Y358777D01*
X50935Y358916D01*
X51241Y359041D01*
X51559Y359166D01*
X51920Y359290D01*
X52308Y359401D01*
X52724Y359498D01*
X53168Y359568D01*
X53640Y359609D01*
X54139Y359623D01*
X54264D01*
X54402Y359609D01*
D02*
G37*
G36*
X36526Y359540D02*
X36748D01*
X36984Y359526D01*
X37247D01*
X37802Y359484D01*
X38371Y359443D01*
X38648Y359401D01*
X38911Y359374D01*
X39161Y359332D01*
X39397Y359277D01*
X39411D01*
X39466Y359263D01*
X39549Y359235D01*
X39674Y359207D01*
X39813Y359152D01*
X39979Y359096D01*
X40160Y359041D01*
X40368Y358957D01*
X40798Y358777D01*
X41269Y358528D01*
X41741Y358250D01*
X41976Y358084D01*
X42198Y357904D01*
X42212Y357890D01*
X42268Y357848D01*
X42351Y357765D01*
X42448Y357668D01*
X42573Y357543D01*
X42725Y357390D01*
X42878Y357210D01*
X43058Y357016D01*
X43238Y356780D01*
X43419Y356531D01*
X43613Y356267D01*
X43807Y355976D01*
X43987Y355657D01*
X44154Y355338D01*
X44320Y354977D01*
X44473Y354617D01*
X44487Y354589D01*
X44500Y354520D01*
X44542Y354423D01*
X44598Y354270D01*
X44653Y354076D01*
X44708Y353854D01*
X44778Y353591D01*
X44861Y353299D01*
X44930Y352980D01*
X45000Y352620D01*
X45055Y352245D01*
X45111Y351843D01*
X45166Y351427D01*
X45208Y350983D01*
X45222Y350526D01*
X45235Y350054D01*
Y350026D01*
Y349957D01*
Y349846D01*
X45222Y349680D01*
Y349499D01*
X45208Y349277D01*
X45194Y349028D01*
X45166Y348750D01*
X45138Y348459D01*
X45111Y348140D01*
X45013Y347488D01*
X44889Y346823D01*
X44722Y346171D01*
Y346157D01*
X44695Y346101D01*
X44667Y346004D01*
X44625Y345894D01*
X44584Y345755D01*
X44514Y345588D01*
X44445Y345394D01*
X44362Y345200D01*
X44181Y344756D01*
X43946Y344285D01*
X43696Y343827D01*
X43405Y343383D01*
X43391Y343369D01*
X43363Y343342D01*
X43322Y343272D01*
X43266Y343203D01*
X43197Y343106D01*
X43100Y342995D01*
X42892Y342745D01*
X42628Y342468D01*
X42337Y342177D01*
X42004Y341899D01*
X41657Y341636D01*
X41644D01*
X41616Y341608D01*
X41560Y341580D01*
X41491Y341539D01*
X41394Y341483D01*
X41283Y341428D01*
X41158Y341358D01*
X41020Y341289D01*
X40853Y341206D01*
X40687Y341123D01*
X40493Y341053D01*
X40298Y340970D01*
X39855Y340818D01*
X39369Y340679D01*
X39355D01*
X39314Y340665D01*
X39230Y340651D01*
X39133Y340624D01*
X39009Y340610D01*
X38856Y340582D01*
X38676Y340554D01*
X38482Y340526D01*
X38260Y340485D01*
X38024Y340457D01*
X37774Y340429D01*
X37497Y340415D01*
X37220Y340388D01*
X36914Y340374D01*
X36290Y340360D01*
X29370D01*
Y359554D01*
X36346D01*
X36526Y359540D01*
D02*
G37*
G36*
X56649Y365760D02*
X54292D01*
Y380766D01*
X54278Y380752D01*
X54250Y380724D01*
X54208Y380682D01*
X54139Y380627D01*
X54056Y380558D01*
X53945Y380461D01*
X53820Y380363D01*
X53695Y380252D01*
X53529Y380141D01*
X53362Y380003D01*
X53182Y379878D01*
X52988Y379725D01*
X52766Y379587D01*
X52544Y379434D01*
X52045Y379129D01*
X52031Y379115D01*
X51989Y379087D01*
X51906Y379046D01*
X51809Y379004D01*
X51698Y378935D01*
X51559Y378852D01*
X51393Y378769D01*
X51227Y378671D01*
X50838Y378477D01*
X50422Y378283D01*
X49992Y378089D01*
X49576Y377923D01*
Y380197D01*
X49604Y380211D01*
X49660Y380239D01*
X49770Y380294D01*
X49909Y380363D01*
X50075Y380447D01*
X50283Y380558D01*
X50505Y380682D01*
X50741Y380821D01*
X51005Y380988D01*
X51282Y381154D01*
X51865Y381542D01*
X52461Y381972D01*
X53029Y382444D01*
X53043Y382458D01*
X53099Y382499D01*
X53168Y382569D01*
X53265Y382666D01*
X53390Y382790D01*
X53529Y382929D01*
X53681Y383096D01*
X53848Y383262D01*
X54014Y383456D01*
X54194Y383664D01*
X54541Y384094D01*
X54860Y384552D01*
X54999Y384787D01*
X55124Y385023D01*
X56649D01*
Y365760D01*
D02*
G37*
G36*
X36526Y384940D02*
X36748D01*
X36984Y384926D01*
X37247D01*
X37802Y384884D01*
X38371Y384843D01*
X38648Y384801D01*
X38911Y384774D01*
X39161Y384732D01*
X39397Y384677D01*
X39411D01*
X39466Y384663D01*
X39549Y384635D01*
X39674Y384607D01*
X39813Y384552D01*
X39979Y384496D01*
X40160Y384441D01*
X40368Y384357D01*
X40798Y384177D01*
X41269Y383928D01*
X41741Y383650D01*
X41976Y383484D01*
X42198Y383303D01*
X42212Y383290D01*
X42268Y383248D01*
X42351Y383165D01*
X42448Y383068D01*
X42573Y382943D01*
X42725Y382790D01*
X42878Y382610D01*
X43058Y382416D01*
X43238Y382180D01*
X43419Y381931D01*
X43613Y381667D01*
X43807Y381376D01*
X43987Y381057D01*
X44154Y380738D01*
X44320Y380377D01*
X44473Y380017D01*
X44487Y379989D01*
X44500Y379920D01*
X44542Y379823D01*
X44598Y379670D01*
X44653Y379476D01*
X44708Y379254D01*
X44778Y378991D01*
X44861Y378699D01*
X44930Y378380D01*
X45000Y378020D01*
X45055Y377645D01*
X45111Y377243D01*
X45166Y376827D01*
X45208Y376383D01*
X45222Y375925D01*
X45235Y375454D01*
Y375426D01*
Y375357D01*
Y375246D01*
X45222Y375080D01*
Y374899D01*
X45208Y374677D01*
X45194Y374428D01*
X45166Y374150D01*
X45138Y373859D01*
X45111Y373540D01*
X45013Y372888D01*
X44889Y372223D01*
X44722Y371571D01*
Y371557D01*
X44695Y371502D01*
X44667Y371404D01*
X44625Y371293D01*
X44584Y371155D01*
X44514Y370988D01*
X44445Y370794D01*
X44362Y370600D01*
X44181Y370156D01*
X43946Y369685D01*
X43696Y369227D01*
X43405Y368783D01*
X43391Y368769D01*
X43363Y368742D01*
X43322Y368672D01*
X43266Y368603D01*
X43197Y368506D01*
X43100Y368395D01*
X42892Y368145D01*
X42628Y367868D01*
X42337Y367577D01*
X42004Y367299D01*
X41657Y367036D01*
X41644D01*
X41616Y367008D01*
X41560Y366980D01*
X41491Y366939D01*
X41394Y366883D01*
X41283Y366828D01*
X41158Y366758D01*
X41020Y366689D01*
X40853Y366606D01*
X40687Y366523D01*
X40493Y366453D01*
X40298Y366370D01*
X39855Y366218D01*
X39369Y366079D01*
X39355D01*
X39314Y366065D01*
X39230Y366051D01*
X39133Y366023D01*
X39009Y366010D01*
X38856Y365982D01*
X38676Y365954D01*
X38482Y365926D01*
X38260Y365885D01*
X38024Y365857D01*
X37774Y365829D01*
X37497Y365816D01*
X37220Y365788D01*
X36914Y365774D01*
X36290Y365760D01*
X29370D01*
Y384954D01*
X36346D01*
X36526Y384940D01*
D02*
G37*
G36*
X759060Y113035D02*
X759208D01*
X759365Y113026D01*
X759541D01*
X759911Y112998D01*
X760290Y112971D01*
X760475Y112943D01*
X760651Y112924D01*
X760817Y112897D01*
X760974Y112860D01*
X760983D01*
X761020Y112850D01*
X761076Y112832D01*
X761159Y112813D01*
X761252Y112776D01*
X761363Y112739D01*
X761483Y112702D01*
X761621Y112647D01*
X761908Y112527D01*
X762222Y112360D01*
X762537Y112175D01*
X762694Y112065D01*
X762842Y111944D01*
X762851Y111935D01*
X762888Y111907D01*
X762943Y111852D01*
X763008Y111787D01*
X763091Y111704D01*
X763193Y111602D01*
X763295Y111482D01*
X763415Y111353D01*
X763535Y111195D01*
X763655Y111029D01*
X763785Y110853D01*
X763914Y110659D01*
X764035Y110447D01*
X764145Y110234D01*
X764256Y109993D01*
X764358Y109753D01*
X764367Y109735D01*
X764377Y109688D01*
X764404Y109624D01*
X764441Y109522D01*
X764478Y109392D01*
X764515Y109245D01*
X764561Y109069D01*
X764617Y108875D01*
X764663Y108662D01*
X764709Y108422D01*
X764746Y108172D01*
X764783Y107904D01*
X764820Y107627D01*
X764848Y107331D01*
X764857Y107026D01*
X764867Y106711D01*
Y106693D01*
Y106647D01*
Y106573D01*
X764857Y106462D01*
Y106341D01*
X764848Y106194D01*
X764839Y106027D01*
X764820Y105842D01*
X764802Y105648D01*
X764783Y105435D01*
X764719Y105001D01*
X764635Y104557D01*
X764525Y104122D01*
Y104113D01*
X764506Y104076D01*
X764488Y104012D01*
X764460Y103938D01*
X764432Y103845D01*
X764386Y103734D01*
X764340Y103605D01*
X764284Y103475D01*
X764164Y103180D01*
X764007Y102865D01*
X763840Y102560D01*
X763646Y102264D01*
X763637Y102255D01*
X763618Y102236D01*
X763591Y102190D01*
X763554Y102144D01*
X763508Y102079D01*
X763443Y102005D01*
X763304Y101839D01*
X763128Y101654D01*
X762934Y101460D01*
X762712Y101275D01*
X762481Y101099D01*
X762472D01*
X762454Y101081D01*
X762417Y101062D01*
X762370Y101034D01*
X762306Y100997D01*
X762232Y100961D01*
X762148Y100914D01*
X762056Y100868D01*
X761945Y100813D01*
X761834Y100757D01*
X761705Y100711D01*
X761575Y100655D01*
X761279Y100554D01*
X760956Y100461D01*
X760946D01*
X760919Y100452D01*
X760863Y100443D01*
X760798Y100424D01*
X760715Y100415D01*
X760614Y100396D01*
X760493Y100378D01*
X760364Y100360D01*
X760216Y100332D01*
X760059Y100313D01*
X759892Y100295D01*
X759707Y100286D01*
X759523Y100267D01*
X759319Y100258D01*
X758903Y100249D01*
X754290D01*
Y113045D01*
X758940D01*
X759060Y113035D01*
D02*
G37*
G36*
X752551Y111538D02*
X748317D01*
Y100249D01*
X746625D01*
Y111538D01*
X742409D01*
Y113045D01*
X752551D01*
Y111538D01*
D02*
G37*
G36*
X772975Y113257D02*
X773095D01*
X773252Y113239D01*
X773437Y113220D01*
X773641Y113193D01*
X773863Y113165D01*
X774103Y113118D01*
X774362Y113063D01*
X774630Y112989D01*
X774898Y112906D01*
X775175Y112813D01*
X775453Y112693D01*
X775730Y112564D01*
X775998Y112416D01*
X776017Y112407D01*
X776063Y112379D01*
X776137Y112333D01*
X776229Y112259D01*
X776350Y112175D01*
X776488Y112074D01*
X776636Y111944D01*
X776803Y111806D01*
X776978Y111648D01*
X777154Y111473D01*
X777339Y111279D01*
X777514Y111066D01*
X777690Y110835D01*
X777866Y110594D01*
X778023Y110336D01*
X778171Y110058D01*
X778180Y110040D01*
X778208Y109993D01*
X778245Y109910D01*
X778291Y109790D01*
X778347Y109651D01*
X778411Y109476D01*
X778476Y109282D01*
X778550Y109060D01*
X778615Y108819D01*
X778680Y108551D01*
X778744Y108274D01*
X778800Y107969D01*
X778855Y107654D01*
X778892Y107322D01*
X778911Y106979D01*
X778920Y106628D01*
Y106619D01*
Y106610D01*
Y106582D01*
Y106545D01*
Y106499D01*
X778911Y106434D01*
Y106295D01*
X778892Y106129D01*
X778883Y105935D01*
X778855Y105703D01*
X778818Y105463D01*
X778781Y105195D01*
X778726Y104918D01*
X778661Y104631D01*
X778587Y104335D01*
X778495Y104030D01*
X778393Y103734D01*
X778273Y103438D01*
X778134Y103142D01*
X778125Y103124D01*
X778097Y103078D01*
X778051Y102995D01*
X777986Y102893D01*
X777912Y102763D01*
X777810Y102615D01*
X777690Y102449D01*
X777561Y102273D01*
X777413Y102088D01*
X777246Y101904D01*
X777061Y101709D01*
X776867Y101515D01*
X776646Y101330D01*
X776414Y101145D01*
X776165Y100979D01*
X775906Y100822D01*
X775887Y100813D01*
X775841Y100785D01*
X775758Y100748D01*
X775656Y100702D01*
X775518Y100637D01*
X775360Y100572D01*
X775185Y100498D01*
X774981Y100434D01*
X774750Y100360D01*
X774510Y100286D01*
X774260Y100221D01*
X773983Y100156D01*
X773705Y100110D01*
X773410Y100073D01*
X773104Y100045D01*
X772799Y100036D01*
X772716D01*
X772624Y100045D01*
X772494Y100055D01*
X772337Y100064D01*
X772152Y100082D01*
X771939Y100110D01*
X771718Y100147D01*
X771468Y100193D01*
X771209Y100249D01*
X770941Y100323D01*
X770673Y100406D01*
X770395Y100498D01*
X770109Y100618D01*
X769831Y100748D01*
X769563Y100905D01*
X769545Y100914D01*
X769499Y100942D01*
X769425Y100997D01*
X769332Y101062D01*
X769212Y101155D01*
X769073Y101256D01*
X768925Y101386D01*
X768759Y101524D01*
X768593Y101691D01*
X768408Y101867D01*
X768232Y102061D01*
X768056Y102273D01*
X767881Y102505D01*
X767714Y102745D01*
X767557Y103004D01*
X767409Y103281D01*
X767400Y103300D01*
X767381Y103346D01*
X767344Y103429D01*
X767298Y103549D01*
X767243Y103688D01*
X767178Y103854D01*
X767113Y104039D01*
X767048Y104252D01*
X766975Y104483D01*
X766910Y104733D01*
X766845Y104992D01*
X766790Y105269D01*
X766743Y105565D01*
X766706Y105861D01*
X766688Y106166D01*
X766679Y106480D01*
Y106489D01*
Y106517D01*
Y106563D01*
Y106619D01*
X766688Y106693D01*
Y106785D01*
X766697Y106887D01*
X766706Y107007D01*
X766716Y107137D01*
X766734Y107275D01*
X766753Y107423D01*
X766771Y107580D01*
X766827Y107922D01*
X766891Y108292D01*
X766984Y108690D01*
X767095Y109097D01*
X767233Y109513D01*
X767400Y109929D01*
X767594Y110336D01*
X767825Y110733D01*
X767955Y110927D01*
X768084Y111112D01*
X768232Y111288D01*
X768389Y111463D01*
X768398Y111473D01*
X768408Y111482D01*
X768435Y111510D01*
X768472Y111538D01*
X768509Y111584D01*
X768565Y111630D01*
X768704Y111750D01*
X768870Y111880D01*
X769073Y112037D01*
X769314Y112194D01*
X769582Y112370D01*
X769887Y112536D01*
X770220Y112693D01*
X770580Y112850D01*
X770969Y112989D01*
X771394Y113100D01*
X771838Y113193D01*
X772069Y113220D01*
X772309Y113248D01*
X772550Y113257D01*
X772799Y113266D01*
X772883D01*
X772975Y113257D01*
D02*
G37*
G36*
X749038Y62457D02*
X749167D01*
X749306Y62439D01*
X749463Y62429D01*
X749639Y62411D01*
X749833Y62383D01*
X750027Y62355D01*
X750453Y62272D01*
X750665Y62226D01*
X750887Y62161D01*
X751100Y62097D01*
X751312Y62013D01*
X751322Y62004D01*
X751359Y61995D01*
X751423Y61967D01*
X751497Y61930D01*
X751590Y61884D01*
X751701Y61828D01*
X751821Y61764D01*
X751960Y61690D01*
X752098Y61597D01*
X752237Y61505D01*
X752533Y61292D01*
X752820Y61043D01*
X752958Y60904D01*
X753078Y60756D01*
X753088Y60747D01*
X753106Y60719D01*
X753143Y60673D01*
X753180Y60608D01*
X753236Y60534D01*
X753300Y60432D01*
X753365Y60321D01*
X753439Y60192D01*
X753513Y60053D01*
X753596Y59887D01*
X753679Y59721D01*
X753753Y59536D01*
X753837Y59332D01*
X753911Y59120D01*
X753985Y58898D01*
X754049Y58657D01*
X752524Y58241D01*
Y58250D01*
X752514Y58287D01*
X752496Y58334D01*
X752468Y58408D01*
X752440Y58482D01*
X752413Y58583D01*
X752366Y58685D01*
X752329Y58805D01*
X752219Y59046D01*
X752098Y59304D01*
X751960Y59554D01*
X751886Y59665D01*
X751803Y59776D01*
X751793Y59785D01*
X751784Y59804D01*
X751756Y59831D01*
X751729Y59868D01*
X751682Y59915D01*
X751627Y59970D01*
X751562Y60035D01*
X751488Y60100D01*
X751405Y60174D01*
X751322Y60248D01*
X751109Y60395D01*
X750860Y60543D01*
X750582Y60673D01*
X750573D01*
X750545Y60691D01*
X750499Y60700D01*
X750443Y60728D01*
X750369Y60756D01*
X750277Y60784D01*
X750175Y60812D01*
X750064Y60848D01*
X749944Y60876D01*
X749806Y60904D01*
X749658Y60932D01*
X749510Y60959D01*
X749177Y60996D01*
X748826Y61015D01*
X748715D01*
X748631Y61006D01*
X748530D01*
X748409Y60996D01*
X748280Y60987D01*
X748141Y60969D01*
X747984Y60950D01*
X747818Y60932D01*
X747485Y60867D01*
X747143Y60774D01*
X746810Y60654D01*
X746801D01*
X746773Y60636D01*
X746727Y60617D01*
X746671Y60590D01*
X746597Y60553D01*
X746514Y60516D01*
X746422Y60460D01*
X746329Y60405D01*
X746107Y60275D01*
X745885Y60109D01*
X745654Y59924D01*
X745451Y59721D01*
X745442Y59711D01*
X745432Y59693D01*
X745405Y59665D01*
X745368Y59619D01*
X745321Y59563D01*
X745275Y59508D01*
X745220Y59434D01*
X745155Y59351D01*
X745025Y59166D01*
X744887Y58953D01*
X744757Y58713D01*
X744637Y58463D01*
X744628Y58454D01*
X744619Y58408D01*
X744591Y58343D01*
X744563Y58260D01*
X744526Y58149D01*
X744489Y58019D01*
X744443Y57862D01*
X744397Y57696D01*
X744351Y57511D01*
X744304Y57317D01*
X744267Y57104D01*
X744230Y56873D01*
X744203Y56642D01*
X744175Y56392D01*
X744166Y56142D01*
X744156Y55884D01*
Y55874D01*
Y55865D01*
Y55810D01*
Y55717D01*
X744166Y55597D01*
X744175Y55449D01*
X744184Y55283D01*
X744203Y55088D01*
X744230Y54885D01*
X744258Y54663D01*
X744295Y54432D01*
X744351Y54192D01*
X744406Y53951D01*
X744471Y53711D01*
X744545Y53471D01*
X744637Y53239D01*
X744739Y53017D01*
X744748Y53008D01*
X744767Y52971D01*
X744804Y52906D01*
X744850Y52832D01*
X744915Y52731D01*
X744988Y52629D01*
X745072Y52509D01*
X745173Y52379D01*
X745294Y52241D01*
X745423Y52102D01*
X745562Y51954D01*
X745719Y51816D01*
X745885Y51677D01*
X746061Y51547D01*
X746255Y51427D01*
X746459Y51316D01*
X746468Y51307D01*
X746514Y51288D01*
X746570Y51261D01*
X746653Y51233D01*
X746754Y51187D01*
X746884Y51141D01*
X747023Y51094D01*
X747180Y51039D01*
X747355Y50983D01*
X747540Y50937D01*
X747735Y50891D01*
X747938Y50845D01*
X748160Y50817D01*
X748382Y50789D01*
X748613Y50771D01*
X748844Y50761D01*
X748955D01*
X749029Y50771D01*
X749131D01*
X749251Y50780D01*
X749380Y50799D01*
X749528Y50817D01*
X749685Y50835D01*
X749852Y50863D01*
X750212Y50937D01*
X750601Y51039D01*
X750795Y51104D01*
X750989Y51178D01*
X750998Y51187D01*
X751035Y51196D01*
X751091Y51224D01*
X751165Y51252D01*
X751248Y51288D01*
X751349Y51335D01*
X751460Y51390D01*
X751581Y51455D01*
X751840Y51584D01*
X752108Y51741D01*
X752366Y51908D01*
X752477Y51991D01*
X752588Y52084D01*
Y54469D01*
X748826D01*
Y55976D01*
X754243D01*
Y51224D01*
X754225Y51214D01*
X754188Y51178D01*
X754123Y51131D01*
X754031Y51057D01*
X753911Y50983D01*
X753781Y50882D01*
X753624Y50780D01*
X753457Y50669D01*
X753263Y50549D01*
X753069Y50429D01*
X752857Y50299D01*
X752625Y50179D01*
X752154Y49939D01*
X751914Y49837D01*
X751664Y49735D01*
X751645Y49726D01*
X751608Y49717D01*
X751534Y49689D01*
X751433Y49661D01*
X751312Y49624D01*
X751174Y49578D01*
X751007Y49532D01*
X750832Y49486D01*
X750628Y49439D01*
X750416Y49393D01*
X750194Y49356D01*
X749963Y49310D01*
X749463Y49254D01*
X749204Y49245D01*
X748946Y49236D01*
X748816D01*
X748761Y49245D01*
X748631D01*
X748465Y49264D01*
X748271Y49282D01*
X748049Y49301D01*
X747808Y49338D01*
X747550Y49384D01*
X747281Y49430D01*
X746995Y49495D01*
X746699Y49578D01*
X746403Y49671D01*
X746107Y49772D01*
X745811Y49902D01*
X745516Y50040D01*
X745497Y50050D01*
X745451Y50077D01*
X745368Y50124D01*
X745266Y50188D01*
X745136Y50272D01*
X744988Y50373D01*
X744822Y50493D01*
X744646Y50632D01*
X744462Y50789D01*
X744267Y50965D01*
X744073Y51150D01*
X743879Y51363D01*
X743694Y51594D01*
X743509Y51834D01*
X743343Y52093D01*
X743186Y52370D01*
X743176Y52389D01*
X743149Y52444D01*
X743112Y52527D01*
X743065Y52638D01*
X743010Y52786D01*
X742936Y52953D01*
X742871Y53156D01*
X742797Y53369D01*
X742723Y53618D01*
X742659Y53877D01*
X742594Y54155D01*
X742529Y54460D01*
X742483Y54774D01*
X742446Y55098D01*
X742418Y55430D01*
X742409Y55782D01*
Y55791D01*
Y55800D01*
Y55828D01*
Y55865D01*
Y55911D01*
X742418Y55967D01*
Y56096D01*
X742437Y56263D01*
X742446Y56457D01*
X742474Y56679D01*
X742511Y56919D01*
X742548Y57178D01*
X742603Y57455D01*
X742659Y57742D01*
X742733Y58038D01*
X742825Y58343D01*
X742927Y58657D01*
X743047Y58962D01*
X743186Y59267D01*
Y59277D01*
X743195Y59286D01*
X743223Y59341D01*
X743269Y59425D01*
X743334Y59536D01*
X743408Y59665D01*
X743509Y59822D01*
X743629Y59998D01*
X743759Y60183D01*
X743907Y60377D01*
X744073Y60571D01*
X744258Y60774D01*
X744462Y60969D01*
X744683Y61163D01*
X744915Y61348D01*
X745164Y61523D01*
X745432Y61680D01*
X745451Y61690D01*
X745497Y61718D01*
X745580Y61754D01*
X745691Y61801D01*
X745830Y61866D01*
X745996Y61930D01*
X746190Y62004D01*
X746403Y62078D01*
X746644Y62143D01*
X746902Y62217D01*
X747180Y62281D01*
X747476Y62346D01*
X747790Y62393D01*
X748113Y62429D01*
X748456Y62457D01*
X748807Y62466D01*
X748946D01*
X749038Y62457D01*
D02*
G37*
G36*
X766799Y49449D02*
X765051D01*
X758348Y59489D01*
Y49449D01*
X756721D01*
Y62245D01*
X758459D01*
X765172Y52195D01*
Y62245D01*
X766799D01*
Y49449D01*
D02*
G37*
G36*
X774417Y62235D02*
X774565D01*
X774722Y62226D01*
X774898D01*
X775268Y62198D01*
X775647Y62171D01*
X775832Y62143D01*
X776008Y62124D01*
X776174Y62097D01*
X776331Y62060D01*
X776340D01*
X776377Y62050D01*
X776433Y62032D01*
X776516Y62013D01*
X776609Y61976D01*
X776719Y61939D01*
X776840Y61902D01*
X776978Y61847D01*
X777265Y61727D01*
X777579Y61560D01*
X777894Y61375D01*
X778051Y61265D01*
X778199Y61144D01*
X778208Y61135D01*
X778245Y61107D01*
X778300Y61052D01*
X778365Y60987D01*
X778448Y60904D01*
X778550Y60802D01*
X778652Y60682D01*
X778772Y60553D01*
X778892Y60395D01*
X779012Y60229D01*
X779142Y60053D01*
X779271Y59859D01*
X779391Y59647D01*
X779502Y59434D01*
X779613Y59194D01*
X779715Y58953D01*
X779724Y58935D01*
X779734Y58888D01*
X779761Y58824D01*
X779798Y58722D01*
X779835Y58593D01*
X779872Y58445D01*
X779918Y58269D01*
X779974Y58075D01*
X780020Y57862D01*
X780066Y57622D01*
X780103Y57372D01*
X780140Y57104D01*
X780177Y56827D01*
X780205Y56531D01*
X780214Y56226D01*
X780223Y55911D01*
Y55893D01*
Y55847D01*
Y55773D01*
X780214Y55662D01*
Y55542D01*
X780205Y55394D01*
X780196Y55227D01*
X780177Y55042D01*
X780159Y54848D01*
X780140Y54635D01*
X780076Y54201D01*
X779992Y53757D01*
X779881Y53323D01*
Y53313D01*
X779863Y53276D01*
X779844Y53212D01*
X779817Y53138D01*
X779789Y53045D01*
X779743Y52934D01*
X779697Y52805D01*
X779641Y52675D01*
X779521Y52379D01*
X779364Y52065D01*
X779197Y51760D01*
X779003Y51464D01*
X778994Y51455D01*
X778975Y51436D01*
X778948Y51390D01*
X778911Y51344D01*
X778864Y51279D01*
X778800Y51205D01*
X778661Y51039D01*
X778485Y50854D01*
X778291Y50660D01*
X778069Y50475D01*
X777838Y50299D01*
X777829D01*
X777810Y50281D01*
X777773Y50262D01*
X777727Y50234D01*
X777663Y50198D01*
X777589Y50160D01*
X777505Y50114D01*
X777413Y50068D01*
X777302Y50013D01*
X777191Y49957D01*
X777061Y49911D01*
X776932Y49855D01*
X776636Y49754D01*
X776313Y49661D01*
X776303D01*
X776276Y49652D01*
X776220Y49643D01*
X776155Y49624D01*
X776072Y49615D01*
X775971Y49597D01*
X775850Y49578D01*
X775721Y49560D01*
X775573Y49532D01*
X775416Y49513D01*
X775249Y49495D01*
X775064Y49486D01*
X774880Y49467D01*
X774676Y49458D01*
X774260Y49449D01*
X769647D01*
Y62245D01*
X774297D01*
X774417Y62235D01*
D02*
G37*
G36*
X760022Y87857D02*
X760161Y87848D01*
X760327Y87839D01*
X760512Y87811D01*
X760724Y87783D01*
X760965Y87746D01*
X761215Y87691D01*
X761473Y87626D01*
X761742Y87552D01*
X762010Y87450D01*
X762278Y87339D01*
X762555Y87210D01*
X762814Y87062D01*
X763064Y86886D01*
X763082Y86877D01*
X763119Y86840D01*
X763193Y86785D01*
X763276Y86701D01*
X763387Y86609D01*
X763508Y86480D01*
X763637Y86341D01*
X763785Y86174D01*
X763933Y85990D01*
X764090Y85786D01*
X764238Y85555D01*
X764386Y85315D01*
X764534Y85047D01*
X764663Y84760D01*
X764793Y84455D01*
X764894Y84131D01*
X763230Y83743D01*
X763221Y83761D01*
X763212Y83808D01*
X763184Y83872D01*
X763147Y83974D01*
X763101Y84085D01*
X763045Y84214D01*
X762971Y84362D01*
X762897Y84520D01*
X762814Y84686D01*
X762712Y84852D01*
X762611Y85019D01*
X762490Y85194D01*
X762361Y85352D01*
X762232Y85509D01*
X762084Y85647D01*
X761926Y85777D01*
X761917Y85786D01*
X761889Y85805D01*
X761843Y85832D01*
X761778Y85879D01*
X761695Y85925D01*
X761594Y85980D01*
X761473Y86036D01*
X761344Y86101D01*
X761196Y86156D01*
X761039Y86212D01*
X760863Y86267D01*
X760678Y86313D01*
X760475Y86359D01*
X760262Y86387D01*
X760040Y86406D01*
X759800Y86415D01*
X759661D01*
X759560Y86406D01*
X759430Y86396D01*
X759282Y86378D01*
X759116Y86359D01*
X758940Y86322D01*
X758746Y86285D01*
X758552Y86239D01*
X758348Y86184D01*
X758136Y86119D01*
X757932Y86036D01*
X757729Y85934D01*
X757526Y85832D01*
X757331Y85703D01*
X757322Y85694D01*
X757285Y85675D01*
X757239Y85629D01*
X757174Y85574D01*
X757091Y85499D01*
X756999Y85416D01*
X756897Y85315D01*
X756786Y85204D01*
X756675Y85074D01*
X756555Y84936D01*
X756444Y84778D01*
X756333Y84603D01*
X756222Y84427D01*
X756120Y84233D01*
X756028Y84030D01*
X755945Y83808D01*
Y83798D01*
X755926Y83752D01*
X755908Y83687D01*
X755880Y83604D01*
X755852Y83493D01*
X755815Y83364D01*
X755787Y83216D01*
X755750Y83049D01*
X755713Y82874D01*
X755676Y82680D01*
X755639Y82476D01*
X755612Y82264D01*
X755565Y81820D01*
X755556Y81589D01*
X755547Y81348D01*
Y81330D01*
Y81274D01*
Y81191D01*
X755556Y81071D01*
X755565Y80932D01*
X755575Y80766D01*
X755584Y80581D01*
X755602Y80387D01*
X755630Y80165D01*
X755658Y79934D01*
X755750Y79462D01*
X755797Y79212D01*
X755861Y78972D01*
X755935Y78732D01*
X756019Y78501D01*
X756028Y78491D01*
X756037Y78445D01*
X756065Y78390D01*
X756111Y78306D01*
X756157Y78205D01*
X756222Y78085D01*
X756296Y77955D01*
X756379Y77817D01*
X756481Y77678D01*
X756592Y77530D01*
X756712Y77373D01*
X756841Y77225D01*
X756989Y77077D01*
X757147Y76938D01*
X757313Y76809D01*
X757498Y76688D01*
X757507Y76679D01*
X757544Y76661D01*
X757599Y76633D01*
X757673Y76596D01*
X757766Y76550D01*
X757877Y76494D01*
X758006Y76448D01*
X758145Y76393D01*
X758302Y76328D01*
X758469Y76282D01*
X758653Y76226D01*
X758838Y76180D01*
X759042Y76143D01*
X759245Y76115D01*
X759458Y76097D01*
X759670Y76087D01*
X759735D01*
X759809Y76097D01*
X759911D01*
X760031Y76115D01*
X760170Y76134D01*
X760336Y76152D01*
X760503Y76189D01*
X760688Y76235D01*
X760882Y76291D01*
X761085Y76356D01*
X761289Y76430D01*
X761492Y76522D01*
X761695Y76633D01*
X761889Y76762D01*
X762084Y76901D01*
X762093Y76910D01*
X762130Y76938D01*
X762176Y76984D01*
X762241Y77058D01*
X762324Y77141D01*
X762417Y77243D01*
X762518Y77373D01*
X762620Y77511D01*
X762731Y77678D01*
X762842Y77853D01*
X762962Y78057D01*
X763064Y78279D01*
X763175Y78510D01*
X763267Y78769D01*
X763350Y79037D01*
X763424Y79333D01*
X765116Y78907D01*
Y78898D01*
X765107Y78880D01*
X765098Y78852D01*
X765089Y78815D01*
X765079Y78769D01*
X765061Y78704D01*
X765014Y78565D01*
X764950Y78390D01*
X764876Y78196D01*
X764783Y77974D01*
X764672Y77733D01*
X764552Y77474D01*
X764414Y77215D01*
X764256Y76957D01*
X764081Y76688D01*
X763886Y76430D01*
X763674Y76180D01*
X763443Y75949D01*
X763193Y75727D01*
X763175Y75718D01*
X763128Y75681D01*
X763054Y75625D01*
X762943Y75560D01*
X762814Y75477D01*
X762648Y75385D01*
X762463Y75283D01*
X762250Y75181D01*
X762019Y75080D01*
X761760Y74978D01*
X761483Y74886D01*
X761187Y74802D01*
X760863Y74738D01*
X760530Y74682D01*
X760179Y74645D01*
X759809Y74636D01*
X759670D01*
X759606Y74645D01*
X759467D01*
X759292Y74664D01*
X759088Y74682D01*
X758857Y74710D01*
X758616Y74738D01*
X758348Y74784D01*
X758080Y74839D01*
X757794Y74913D01*
X757516Y74987D01*
X757239Y75089D01*
X756962Y75200D01*
X756693Y75329D01*
X756444Y75477D01*
X756425Y75487D01*
X756388Y75514D01*
X756324Y75570D01*
X756231Y75634D01*
X756120Y75718D01*
X756000Y75829D01*
X755861Y75949D01*
X755713Y76097D01*
X755556Y76263D01*
X755399Y76439D01*
X755233Y76642D01*
X755066Y76855D01*
X754909Y77095D01*
X754752Y77345D01*
X754604Y77622D01*
X754474Y77909D01*
Y77918D01*
X754465Y77927D01*
X754447Y77983D01*
X754410Y78066D01*
X754373Y78186D01*
X754317Y78334D01*
X754262Y78510D01*
X754197Y78713D01*
X754142Y78935D01*
X754077Y79185D01*
X754012Y79453D01*
X753957Y79730D01*
X753901Y80035D01*
X753864Y80340D01*
X753827Y80664D01*
X753809Y80997D01*
X753800Y81339D01*
Y81348D01*
Y81367D01*
Y81395D01*
Y81432D01*
Y81478D01*
X753809Y81533D01*
Y81672D01*
X753827Y81847D01*
X753837Y82051D01*
X753864Y82282D01*
X753892Y82532D01*
X753938Y82791D01*
X753985Y83068D01*
X754049Y83364D01*
X754123Y83660D01*
X754206Y83955D01*
X754308Y84251D01*
X754428Y84538D01*
X754558Y84825D01*
X754567Y84843D01*
X754595Y84889D01*
X754641Y84963D01*
X754696Y85074D01*
X754780Y85194D01*
X754872Y85333D01*
X754992Y85499D01*
X755122Y85666D01*
X755260Y85842D01*
X755427Y86036D01*
X755602Y86221D01*
X755797Y86406D01*
X756009Y86590D01*
X756231Y86766D01*
X756472Y86933D01*
X756730Y87090D01*
X756749Y87099D01*
X756795Y87127D01*
X756869Y87164D01*
X756980Y87210D01*
X757110Y87275D01*
X757267Y87339D01*
X757452Y87404D01*
X757646Y87478D01*
X757868Y87552D01*
X758108Y87617D01*
X758367Y87691D01*
X758635Y87746D01*
X758922Y87793D01*
X759218Y87829D01*
X759523Y87857D01*
X759837Y87866D01*
X759966D01*
X760022Y87857D01*
D02*
G37*
G36*
X772097Y82449D02*
X777709Y74849D01*
X775471D01*
X770913Y81302D01*
X768824Y79286D01*
Y74849D01*
X767132D01*
Y87645D01*
X768824D01*
Y81293D01*
X775175Y87645D01*
X777478D01*
X772097Y82449D01*
D02*
G37*
G36*
X752551Y86138D02*
X748317D01*
Y74849D01*
X746625D01*
Y86138D01*
X742409D01*
Y87645D01*
X752551D01*
Y86138D01*
D02*
G37*
G36*
X47316Y467679D02*
X44431D01*
X42212Y473490D01*
X34155D01*
X32060Y467679D01*
X29384D01*
X36748Y486873D01*
X39466D01*
X47316Y467679D01*
D02*
G37*
G36*
X54902Y486928D02*
X55026D01*
X55193Y486914D01*
X55359Y486887D01*
X55553Y486859D01*
X55970Y486790D01*
X56427Y486679D01*
X56899Y486526D01*
X57121Y486429D01*
X57343Y486318D01*
X57356D01*
X57398Y486290D01*
X57453Y486249D01*
X57537Y486207D01*
X57634Y486138D01*
X57745Y486055D01*
X57883Y485971D01*
X58022Y485860D01*
X58327Y485611D01*
X58646Y485292D01*
X58965Y484931D01*
X59256Y484515D01*
X59270Y484501D01*
X59284Y484460D01*
X59326Y484390D01*
X59381Y484307D01*
X59451Y484196D01*
X59520Y484058D01*
X59603Y483905D01*
X59686Y483725D01*
X59783Y483531D01*
X59880Y483309D01*
X59978Y483073D01*
X60089Y482823D01*
X60186Y482560D01*
X60269Y482282D01*
X60366Y481977D01*
X60449Y481672D01*
Y481658D01*
X60463Y481589D01*
X60491Y481506D01*
X60518Y481367D01*
X60546Y481201D01*
X60588Y480993D01*
X60629Y480757D01*
X60671Y480480D01*
X60713Y480174D01*
X60754Y479828D01*
X60796Y479453D01*
X60823Y479051D01*
X60851Y478621D01*
X60879Y478150D01*
X60893Y477664D01*
Y477137D01*
Y477123D01*
Y477096D01*
Y477054D01*
Y476985D01*
Y476915D01*
Y476818D01*
X60879Y476707D01*
Y476582D01*
X60865Y476291D01*
X60851Y475958D01*
X60837Y475598D01*
X60810Y475196D01*
X60768Y474766D01*
X60726Y474322D01*
X60602Y473420D01*
X60518Y472963D01*
X60421Y472519D01*
X60310Y472089D01*
X60186Y471687D01*
X60172Y471659D01*
X60158Y471590D01*
X60116Y471493D01*
X60061Y471340D01*
X59978Y471174D01*
X59894Y470966D01*
X59783Y470744D01*
X59672Y470508D01*
X59534Y470258D01*
X59367Y469995D01*
X59201Y469731D01*
X59021Y469454D01*
X58813Y469191D01*
X58591Y468941D01*
X58355Y468705D01*
X58105Y468483D01*
X58092Y468470D01*
X58036Y468442D01*
X57967Y468386D01*
X57856Y468303D01*
X57717Y468220D01*
X57565Y468123D01*
X57370Y468026D01*
X57162Y467929D01*
X56913Y467818D01*
X56649Y467721D01*
X56372Y467623D01*
X56067Y467540D01*
X55734Y467471D01*
X55387Y467416D01*
X55026Y467374D01*
X54638Y467360D01*
X54513D01*
X54375Y467374D01*
X54181Y467388D01*
X53945Y467416D01*
X53667Y467471D01*
X53376Y467526D01*
X53043Y467610D01*
X52697Y467707D01*
X52350Y467845D01*
X51989Y467998D01*
X51615Y468192D01*
X51254Y468414D01*
X50908Y468677D01*
X50575Y468983D01*
X50270Y469329D01*
Y469343D01*
X50256Y469357D01*
X50228Y469399D01*
X50187Y469440D01*
X50145Y469510D01*
X50089Y469593D01*
X50034Y469676D01*
X49978Y469787D01*
X49909Y469912D01*
X49826Y470051D01*
X49756Y470203D01*
X49673Y470369D01*
X49590Y470564D01*
X49507Y470758D01*
X49410Y470980D01*
X49327Y471202D01*
X49243Y471451D01*
X49146Y471715D01*
X49063Y471992D01*
X48980Y472297D01*
X48897Y472602D01*
X48827Y472935D01*
X48744Y473268D01*
X48675Y473642D01*
X48619Y474017D01*
X48564Y474405D01*
X48508Y474821D01*
X48467Y475251D01*
X48425Y475695D01*
X48411Y476153D01*
X48384Y476638D01*
Y477137D01*
Y477151D01*
Y477179D01*
Y477220D01*
Y477290D01*
Y477373D01*
Y477470D01*
X48397Y477581D01*
Y477706D01*
X48411Y477983D01*
X48425Y478316D01*
X48439Y478690D01*
X48467Y479093D01*
X48508Y479523D01*
X48550Y479966D01*
X48675Y480882D01*
X48758Y481339D01*
X48855Y481783D01*
X48952Y482213D01*
X49077Y482615D01*
X49091Y482643D01*
X49105Y482712D01*
X49146Y482809D01*
X49202Y482962D01*
X49285Y483128D01*
X49368Y483336D01*
X49479Y483558D01*
X49604Y483794D01*
X49729Y484044D01*
X49895Y484307D01*
X50062Y484585D01*
X50242Y484848D01*
X50450Y485112D01*
X50672Y485361D01*
X50908Y485597D01*
X51157Y485819D01*
X51171Y485833D01*
X51227Y485874D01*
X51296Y485930D01*
X51407Y485999D01*
X51546Y486082D01*
X51712Y486179D01*
X51892Y486277D01*
X52114Y486387D01*
X52350Y486484D01*
X52613Y486582D01*
X52905Y486679D01*
X53210Y486762D01*
X53543Y486845D01*
X53889Y486901D01*
X54250Y486928D01*
X54638Y486942D01*
X54791D01*
X54902Y486928D01*
D02*
G37*
G36*
X774269Y37057D02*
X774408Y37048D01*
X774574Y37039D01*
X774759Y37011D01*
X774972Y36983D01*
X775212Y36946D01*
X775462Y36891D01*
X775721Y36826D01*
X775989Y36752D01*
X776257Y36650D01*
X776525Y36539D01*
X776803Y36410D01*
X777061Y36262D01*
X777311Y36086D01*
X777330Y36077D01*
X777367Y36040D01*
X777441Y35985D01*
X777524Y35902D01*
X777635Y35809D01*
X777755Y35680D01*
X777884Y35541D01*
X778032Y35375D01*
X778180Y35190D01*
X778337Y34986D01*
X778485Y34755D01*
X778633Y34515D01*
X778781Y34246D01*
X778911Y33960D01*
X779040Y33655D01*
X779142Y33331D01*
X777478Y32943D01*
X777468Y32961D01*
X777459Y33008D01*
X777431Y33072D01*
X777394Y33174D01*
X777348Y33285D01*
X777293Y33414D01*
X777219Y33562D01*
X777145Y33719D01*
X777061Y33886D01*
X776960Y34052D01*
X776858Y34219D01*
X776738Y34394D01*
X776609Y34552D01*
X776479Y34709D01*
X776331Y34848D01*
X776174Y34977D01*
X776165Y34986D01*
X776137Y35005D01*
X776091Y35032D01*
X776026Y35079D01*
X775943Y35125D01*
X775841Y35180D01*
X775721Y35236D01*
X775592Y35301D01*
X775443Y35356D01*
X775286Y35412D01*
X775111Y35467D01*
X774926Y35513D01*
X774722Y35559D01*
X774510Y35587D01*
X774288Y35606D01*
X774047Y35615D01*
X773909D01*
X773807Y35606D01*
X773678Y35596D01*
X773530Y35578D01*
X773363Y35559D01*
X773188Y35522D01*
X772993Y35485D01*
X772799Y35439D01*
X772596Y35384D01*
X772383Y35319D01*
X772180Y35236D01*
X771976Y35134D01*
X771773Y35032D01*
X771579Y34903D01*
X771570Y34894D01*
X771533Y34875D01*
X771486Y34829D01*
X771422Y34773D01*
X771339Y34699D01*
X771246Y34616D01*
X771144Y34515D01*
X771033Y34404D01*
X770922Y34274D01*
X770802Y34136D01*
X770691Y33978D01*
X770580Y33803D01*
X770469Y33627D01*
X770368Y33433D01*
X770275Y33229D01*
X770192Y33008D01*
Y32998D01*
X770173Y32952D01*
X770155Y32887D01*
X770127Y32804D01*
X770100Y32693D01*
X770063Y32564D01*
X770035Y32416D01*
X769998Y32250D01*
X769961Y32074D01*
X769924Y31880D01*
X769887Y31676D01*
X769859Y31464D01*
X769813Y31020D01*
X769804Y30789D01*
X769794Y30548D01*
Y30530D01*
Y30474D01*
Y30391D01*
X769804Y30271D01*
X769813Y30132D01*
X769822Y29966D01*
X769831Y29781D01*
X769850Y29587D01*
X769878Y29365D01*
X769905Y29134D01*
X769998Y28662D01*
X770044Y28412D01*
X770109Y28172D01*
X770183Y27932D01*
X770266Y27701D01*
X770275Y27691D01*
X770285Y27645D01*
X770312Y27590D01*
X770359Y27506D01*
X770405Y27405D01*
X770469Y27285D01*
X770543Y27155D01*
X770627Y27016D01*
X770728Y26878D01*
X770839Y26730D01*
X770959Y26573D01*
X771089Y26425D01*
X771237Y26277D01*
X771394Y26138D01*
X771560Y26009D01*
X771745Y25889D01*
X771755Y25879D01*
X771792Y25861D01*
X771847Y25833D01*
X771921Y25796D01*
X772013Y25750D01*
X772124Y25694D01*
X772254Y25648D01*
X772393Y25593D01*
X772550Y25528D01*
X772716Y25482D01*
X772901Y25426D01*
X773086Y25380D01*
X773289Y25343D01*
X773493Y25315D01*
X773705Y25297D01*
X773918Y25287D01*
X773983D01*
X774057Y25297D01*
X774158D01*
X774279Y25315D01*
X774417Y25334D01*
X774584Y25352D01*
X774750Y25389D01*
X774935Y25436D01*
X775129Y25491D01*
X775333Y25556D01*
X775536Y25630D01*
X775739Y25722D01*
X775943Y25833D01*
X776137Y25963D01*
X776331Y26101D01*
X776340Y26110D01*
X776377Y26138D01*
X776424Y26184D01*
X776488Y26258D01*
X776572Y26342D01*
X776664Y26443D01*
X776766Y26573D01*
X776867Y26711D01*
X776978Y26878D01*
X777089Y27053D01*
X777209Y27257D01*
X777311Y27479D01*
X777422Y27710D01*
X777514Y27969D01*
X777598Y28237D01*
X777672Y28533D01*
X779364Y28107D01*
Y28098D01*
X779354Y28080D01*
X779345Y28052D01*
X779336Y28015D01*
X779327Y27969D01*
X779308Y27904D01*
X779262Y27765D01*
X779197Y27590D01*
X779123Y27396D01*
X779031Y27174D01*
X778920Y26933D01*
X778800Y26674D01*
X778661Y26416D01*
X778504Y26157D01*
X778328Y25889D01*
X778134Y25630D01*
X777921Y25380D01*
X777690Y25149D01*
X777441Y24927D01*
X777422Y24918D01*
X777376Y24881D01*
X777302Y24825D01*
X777191Y24760D01*
X777061Y24677D01*
X776895Y24585D01*
X776710Y24483D01*
X776497Y24381D01*
X776266Y24280D01*
X776008Y24178D01*
X775730Y24086D01*
X775434Y24002D01*
X775111Y23938D01*
X774778Y23882D01*
X774426Y23845D01*
X774057Y23836D01*
X773918D01*
X773853Y23845D01*
X773715D01*
X773539Y23864D01*
X773335Y23882D01*
X773104Y23910D01*
X772864Y23938D01*
X772596Y23984D01*
X772328Y24039D01*
X772041Y24113D01*
X771764Y24187D01*
X771486Y24289D01*
X771209Y24400D01*
X770941Y24529D01*
X770691Y24677D01*
X770673Y24687D01*
X770636Y24714D01*
X770571Y24770D01*
X770479Y24834D01*
X770368Y24918D01*
X770247Y25029D01*
X770109Y25149D01*
X769961Y25297D01*
X769804Y25463D01*
X769647Y25639D01*
X769480Y25842D01*
X769314Y26055D01*
X769156Y26295D01*
X768999Y26545D01*
X768851Y26822D01*
X768722Y27109D01*
Y27118D01*
X768713Y27127D01*
X768694Y27183D01*
X768657Y27266D01*
X768620Y27386D01*
X768565Y27534D01*
X768509Y27710D01*
X768445Y27913D01*
X768389Y28135D01*
X768324Y28385D01*
X768260Y28653D01*
X768204Y28930D01*
X768149Y29235D01*
X768112Y29541D01*
X768075Y29864D01*
X768056Y30197D01*
X768047Y30539D01*
Y30548D01*
Y30567D01*
Y30594D01*
Y30631D01*
Y30678D01*
X768056Y30733D01*
Y30872D01*
X768075Y31047D01*
X768084Y31251D01*
X768112Y31482D01*
X768139Y31732D01*
X768186Y31991D01*
X768232Y32268D01*
X768297Y32564D01*
X768371Y32860D01*
X768454Y33156D01*
X768556Y33451D01*
X768676Y33738D01*
X768805Y34025D01*
X768814Y34043D01*
X768842Y34089D01*
X768888Y34163D01*
X768944Y34274D01*
X769027Y34394D01*
X769119Y34533D01*
X769240Y34699D01*
X769369Y34866D01*
X769508Y35042D01*
X769674Y35236D01*
X769850Y35421D01*
X770044Y35606D01*
X770257Y35791D01*
X770479Y35966D01*
X770719Y36133D01*
X770978Y36290D01*
X770996Y36299D01*
X771043Y36327D01*
X771117Y36364D01*
X771227Y36410D01*
X771357Y36475D01*
X771514Y36539D01*
X771699Y36604D01*
X771893Y36678D01*
X772115Y36752D01*
X772355Y36817D01*
X772614Y36891D01*
X772883Y36946D01*
X773169Y36992D01*
X773465Y37029D01*
X773770Y37057D01*
X774084Y37066D01*
X774214D01*
X774269Y37057D01*
D02*
G37*
G36*
X761363D02*
X761501Y37048D01*
X761668Y37039D01*
X761852Y37011D01*
X762065Y36983D01*
X762306Y36946D01*
X762555Y36891D01*
X762814Y36826D01*
X763082Y36752D01*
X763350Y36650D01*
X763618Y36539D01*
X763896Y36410D01*
X764155Y36262D01*
X764404Y36086D01*
X764423Y36077D01*
X764460Y36040D01*
X764534Y35985D01*
X764617Y35902D01*
X764728Y35809D01*
X764848Y35680D01*
X764977Y35541D01*
X765125Y35375D01*
X765273Y35190D01*
X765431Y34986D01*
X765579Y34755D01*
X765726Y34515D01*
X765874Y34246D01*
X766004Y33960D01*
X766133Y33655D01*
X766235Y33331D01*
X764571Y32943D01*
X764561Y32961D01*
X764552Y33008D01*
X764525Y33072D01*
X764488Y33174D01*
X764441Y33285D01*
X764386Y33414D01*
X764312Y33562D01*
X764238Y33719D01*
X764155Y33886D01*
X764053Y34052D01*
X763951Y34219D01*
X763831Y34394D01*
X763702Y34552D01*
X763572Y34709D01*
X763424Y34848D01*
X763267Y34977D01*
X763258Y34986D01*
X763230Y35005D01*
X763184Y35032D01*
X763119Y35079D01*
X763036Y35125D01*
X762934Y35180D01*
X762814Y35236D01*
X762685Y35301D01*
X762537Y35356D01*
X762380Y35412D01*
X762204Y35467D01*
X762019Y35513D01*
X761815Y35559D01*
X761603Y35587D01*
X761381Y35606D01*
X761141Y35615D01*
X761002D01*
X760900Y35606D01*
X760771Y35596D01*
X760623Y35578D01*
X760456Y35559D01*
X760281Y35522D01*
X760087Y35485D01*
X759892Y35439D01*
X759689Y35384D01*
X759476Y35319D01*
X759273Y35236D01*
X759070Y35134D01*
X758866Y35032D01*
X758672Y34903D01*
X758663Y34894D01*
X758626Y34875D01*
X758580Y34829D01*
X758515Y34773D01*
X758432Y34699D01*
X758339Y34616D01*
X758238Y34515D01*
X758127Y34404D01*
X758016Y34274D01*
X757895Y34136D01*
X757784Y33978D01*
X757673Y33803D01*
X757562Y33627D01*
X757461Y33433D01*
X757368Y33229D01*
X757285Y33008D01*
Y32998D01*
X757267Y32952D01*
X757248Y32887D01*
X757221Y32804D01*
X757193Y32693D01*
X757156Y32564D01*
X757128Y32416D01*
X757091Y32250D01*
X757054Y32074D01*
X757017Y31880D01*
X756980Y31676D01*
X756952Y31464D01*
X756906Y31020D01*
X756897Y30789D01*
X756888Y30548D01*
Y30530D01*
Y30474D01*
Y30391D01*
X756897Y30271D01*
X756906Y30132D01*
X756915Y29966D01*
X756925Y29781D01*
X756943Y29587D01*
X756971Y29365D01*
X756999Y29134D01*
X757091Y28662D01*
X757137Y28412D01*
X757202Y28172D01*
X757276Y27932D01*
X757359Y27701D01*
X757368Y27691D01*
X757378Y27645D01*
X757405Y27590D01*
X757452Y27506D01*
X757498Y27405D01*
X757562Y27285D01*
X757636Y27155D01*
X757720Y27016D01*
X757821Y26878D01*
X757932Y26730D01*
X758053Y26573D01*
X758182Y26425D01*
X758330Y26277D01*
X758487Y26138D01*
X758653Y26009D01*
X758838Y25889D01*
X758848Y25879D01*
X758885Y25861D01*
X758940Y25833D01*
X759014Y25796D01*
X759107Y25750D01*
X759218Y25694D01*
X759347Y25648D01*
X759486Y25593D01*
X759643Y25528D01*
X759809Y25482D01*
X759994Y25426D01*
X760179Y25380D01*
X760383Y25343D01*
X760586Y25315D01*
X760798Y25297D01*
X761011Y25287D01*
X761076D01*
X761150Y25297D01*
X761252D01*
X761372Y25315D01*
X761510Y25334D01*
X761677Y25352D01*
X761843Y25389D01*
X762028Y25436D01*
X762222Y25491D01*
X762426Y25556D01*
X762629Y25630D01*
X762832Y25722D01*
X763036Y25833D01*
X763230Y25963D01*
X763424Y26101D01*
X763434Y26110D01*
X763471Y26138D01*
X763517Y26184D01*
X763581Y26258D01*
X763665Y26342D01*
X763757Y26443D01*
X763859Y26573D01*
X763960Y26711D01*
X764071Y26878D01*
X764182Y27053D01*
X764303Y27257D01*
X764404Y27479D01*
X764515Y27710D01*
X764608Y27969D01*
X764691Y28237D01*
X764765Y28533D01*
X766457Y28107D01*
Y28098D01*
X766448Y28080D01*
X766438Y28052D01*
X766429Y28015D01*
X766420Y27969D01*
X766401Y27904D01*
X766355Y27765D01*
X766290Y27590D01*
X766216Y27396D01*
X766124Y27174D01*
X766013Y26933D01*
X765893Y26674D01*
X765754Y26416D01*
X765597Y26157D01*
X765421Y25889D01*
X765227Y25630D01*
X765014Y25380D01*
X764783Y25149D01*
X764534Y24927D01*
X764515Y24918D01*
X764469Y24881D01*
X764395Y24825D01*
X764284Y24760D01*
X764155Y24677D01*
X763988Y24585D01*
X763803Y24483D01*
X763591Y24381D01*
X763360Y24280D01*
X763101Y24178D01*
X762823Y24086D01*
X762527Y24002D01*
X762204Y23938D01*
X761871Y23882D01*
X761520Y23845D01*
X761150Y23836D01*
X761011D01*
X760946Y23845D01*
X760808D01*
X760632Y23864D01*
X760429Y23882D01*
X760198Y23910D01*
X759957Y23938D01*
X759689Y23984D01*
X759421Y24039D01*
X759134Y24113D01*
X758857Y24187D01*
X758580Y24289D01*
X758302Y24400D01*
X758034Y24529D01*
X757784Y24677D01*
X757766Y24687D01*
X757729Y24714D01*
X757664Y24770D01*
X757572Y24834D01*
X757461Y24918D01*
X757341Y25029D01*
X757202Y25149D01*
X757054Y25297D01*
X756897Y25463D01*
X756740Y25639D01*
X756573Y25842D01*
X756407Y26055D01*
X756250Y26295D01*
X756093Y26545D01*
X755945Y26822D01*
X755815Y27109D01*
Y27118D01*
X755806Y27127D01*
X755787Y27183D01*
X755750Y27266D01*
X755713Y27386D01*
X755658Y27534D01*
X755602Y27710D01*
X755538Y27913D01*
X755482Y28135D01*
X755418Y28385D01*
X755353Y28653D01*
X755297Y28930D01*
X755242Y29235D01*
X755205Y29541D01*
X755168Y29864D01*
X755149Y30197D01*
X755140Y30539D01*
Y30548D01*
Y30567D01*
Y30594D01*
Y30631D01*
Y30678D01*
X755149Y30733D01*
Y30872D01*
X755168Y31047D01*
X755177Y31251D01*
X755205Y31482D01*
X755233Y31732D01*
X755279Y31991D01*
X755325Y32268D01*
X755390Y32564D01*
X755464Y32860D01*
X755547Y33156D01*
X755649Y33451D01*
X755769Y33738D01*
X755898Y34025D01*
X755908Y34043D01*
X755935Y34089D01*
X755982Y34163D01*
X756037Y34274D01*
X756120Y34394D01*
X756213Y34533D01*
X756333Y34699D01*
X756462Y34866D01*
X756601Y35042D01*
X756767Y35236D01*
X756943Y35421D01*
X757137Y35606D01*
X757350Y35791D01*
X757572Y35966D01*
X757812Y36133D01*
X758071Y36290D01*
X758090Y36299D01*
X758136Y36327D01*
X758210Y36364D01*
X758321Y36410D01*
X758450Y36475D01*
X758607Y36539D01*
X758792Y36604D01*
X758986Y36678D01*
X759208Y36752D01*
X759449Y36817D01*
X759707Y36891D01*
X759976Y36946D01*
X760262Y36992D01*
X760558Y37029D01*
X760863Y37057D01*
X761178Y37066D01*
X761307D01*
X761363Y37057D01*
D02*
G37*
G36*
X749103Y24049D02*
X747355D01*
X742400Y36844D01*
X744240D01*
X747559Y27543D01*
X747568Y27534D01*
X747577Y27497D01*
X747596Y27432D01*
X747624Y27349D01*
X747661Y27257D01*
X747698Y27137D01*
X747744Y27007D01*
X747799Y26859D01*
X747845Y26702D01*
X747901Y26536D01*
X748012Y26184D01*
X748132Y25814D01*
X748234Y25445D01*
Y25454D01*
X748243Y25491D01*
X748261Y25546D01*
X748289Y25620D01*
X748317Y25722D01*
X748345Y25833D01*
X748391Y25963D01*
X748428Y26101D01*
X748483Y26249D01*
X748530Y26416D01*
X748594Y26591D01*
X748650Y26767D01*
X748779Y27155D01*
X748927Y27543D01*
X752385Y36844D01*
X754114D01*
X749103Y24049D01*
D02*
G37*
G36*
X769175Y125436D02*
X767483D01*
Y138232D01*
X769175D01*
Y125436D01*
D02*
G37*
G36*
X759060Y138223D02*
X759208D01*
X759365Y138213D01*
X759541D01*
X759911Y138186D01*
X760290Y138158D01*
X760475Y138130D01*
X760651Y138112D01*
X760817Y138084D01*
X760974Y138047D01*
X760983D01*
X761020Y138038D01*
X761076Y138019D01*
X761159Y138001D01*
X761252Y137964D01*
X761363Y137927D01*
X761483Y137890D01*
X761621Y137834D01*
X761908Y137714D01*
X762222Y137548D01*
X762537Y137363D01*
X762694Y137252D01*
X762842Y137132D01*
X762851Y137122D01*
X762888Y137095D01*
X762943Y137039D01*
X763008Y136974D01*
X763091Y136891D01*
X763193Y136790D01*
X763295Y136669D01*
X763415Y136540D01*
X763535Y136383D01*
X763655Y136216D01*
X763785Y136041D01*
X763914Y135847D01*
X764035Y135634D01*
X764145Y135421D01*
X764256Y135181D01*
X764358Y134940D01*
X764367Y134922D01*
X764377Y134876D01*
X764404Y134811D01*
X764441Y134709D01*
X764478Y134580D01*
X764515Y134432D01*
X764561Y134256D01*
X764617Y134062D01*
X764663Y133849D01*
X764709Y133609D01*
X764746Y133359D01*
X764783Y133091D01*
X764820Y132814D01*
X764848Y132518D01*
X764857Y132213D01*
X764867Y131899D01*
Y131880D01*
Y131834D01*
Y131760D01*
X764857Y131649D01*
Y131529D01*
X764848Y131381D01*
X764839Y131215D01*
X764820Y131030D01*
X764802Y130835D01*
X764783Y130623D01*
X764719Y130188D01*
X764635Y129744D01*
X764525Y129310D01*
Y129301D01*
X764506Y129264D01*
X764488Y129199D01*
X764460Y129125D01*
X764432Y129032D01*
X764386Y128922D01*
X764340Y128792D01*
X764284Y128663D01*
X764164Y128367D01*
X764007Y128053D01*
X763840Y127747D01*
X763646Y127451D01*
X763637Y127442D01*
X763618Y127424D01*
X763591Y127378D01*
X763554Y127331D01*
X763508Y127267D01*
X763443Y127193D01*
X763304Y127026D01*
X763128Y126841D01*
X762934Y126647D01*
X762712Y126462D01*
X762481Y126287D01*
X762472D01*
X762454Y126268D01*
X762417Y126250D01*
X762370Y126222D01*
X762306Y126185D01*
X762232Y126148D01*
X762148Y126102D01*
X762056Y126055D01*
X761945Y126000D01*
X761834Y125944D01*
X761705Y125898D01*
X761575Y125843D01*
X761279Y125741D01*
X760956Y125649D01*
X760946D01*
X760919Y125639D01*
X760863Y125630D01*
X760798Y125612D01*
X760715Y125602D01*
X760614Y125584D01*
X760493Y125565D01*
X760364Y125547D01*
X760216Y125519D01*
X760059Y125501D01*
X759892Y125482D01*
X759707Y125473D01*
X759523Y125455D01*
X759319Y125445D01*
X758903Y125436D01*
X754290D01*
Y138232D01*
X758940D01*
X759060Y138223D01*
D02*
G37*
G36*
X752551Y136725D02*
X748317D01*
Y125436D01*
X746625D01*
Y136725D01*
X742409D01*
Y138232D01*
X752551D01*
Y136725D01*
D02*
G37*
G36*
X773826Y164057D02*
X773946D01*
X774094Y164039D01*
X774251Y164029D01*
X774436Y164011D01*
X774621Y163983D01*
X774824Y163955D01*
X775240Y163872D01*
X775462Y163817D01*
X775675Y163761D01*
X775887Y163687D01*
X776091Y163604D01*
X776100Y163595D01*
X776137Y163586D01*
X776192Y163558D01*
X776266Y163521D01*
X776359Y163475D01*
X776461Y163410D01*
X776581Y163345D01*
X776701Y163262D01*
X776840Y163179D01*
X776969Y163077D01*
X777108Y162966D01*
X777246Y162846D01*
X777385Y162717D01*
X777514Y162569D01*
X777644Y162421D01*
X777755Y162254D01*
X777764Y162245D01*
X777783Y162217D01*
X777810Y162162D01*
X777847Y162097D01*
X777894Y162014D01*
X777949Y161912D01*
X777995Y161801D01*
X778060Y161672D01*
X778115Y161533D01*
X778171Y161376D01*
X778226Y161210D01*
X778273Y161034D01*
X778319Y160849D01*
X778356Y160655D01*
X778374Y160451D01*
X778393Y160248D01*
X776766Y160128D01*
Y160146D01*
X776756Y160183D01*
X776747Y160248D01*
X776729Y160331D01*
X776710Y160424D01*
X776682Y160544D01*
X776646Y160673D01*
X776599Y160812D01*
X776553Y160960D01*
X776488Y161108D01*
X776414Y161256D01*
X776331Y161413D01*
X776239Y161561D01*
X776128Y161700D01*
X776008Y161838D01*
X775878Y161958D01*
X775869Y161968D01*
X775841Y161986D01*
X775804Y162014D01*
X775739Y162060D01*
X775656Y162106D01*
X775564Y162153D01*
X775453Y162208D01*
X775323Y162273D01*
X775175Y162328D01*
X775009Y162384D01*
X774824Y162430D01*
X774630Y162485D01*
X774408Y162522D01*
X774177Y162550D01*
X773927Y162569D01*
X773659Y162578D01*
X773511D01*
X773410Y162569D01*
X773280Y162559D01*
X773141Y162550D01*
X772975Y162532D01*
X772809Y162504D01*
X772439Y162439D01*
X772254Y162393D01*
X772069Y162337D01*
X771893Y162273D01*
X771718Y162199D01*
X771560Y162116D01*
X771422Y162014D01*
X771413Y162005D01*
X771394Y161986D01*
X771357Y161958D01*
X771311Y161912D01*
X771264Y161857D01*
X771200Y161792D01*
X771144Y161718D01*
X771080Y161635D01*
X771015Y161542D01*
X770950Y161431D01*
X770839Y161200D01*
X770793Y161080D01*
X770756Y160941D01*
X770738Y160803D01*
X770728Y160655D01*
Y160646D01*
Y160627D01*
Y160590D01*
X770738Y160544D01*
X770747Y160479D01*
X770756Y160414D01*
X770793Y160257D01*
X770848Y160072D01*
X770932Y159887D01*
X770987Y159786D01*
X771061Y159693D01*
X771135Y159601D01*
X771218Y159518D01*
X771227Y159508D01*
X771246Y159499D01*
X771274Y159471D01*
X771329Y159444D01*
X771394Y159397D01*
X771486Y159351D01*
X771588Y159296D01*
X771718Y159231D01*
X771875Y159166D01*
X772050Y159092D01*
X772263Y159018D01*
X772494Y158935D01*
X772762Y158852D01*
X773058Y158769D01*
X773391Y158686D01*
X773761Y158593D01*
X773770D01*
X773789Y158584D01*
X773816D01*
X773853Y158574D01*
X773900Y158565D01*
X773955Y158547D01*
X774094Y158519D01*
X774260Y158473D01*
X774454Y158427D01*
X774667Y158380D01*
X774889Y158316D01*
X775360Y158195D01*
X775592Y158131D01*
X775823Y158057D01*
X776044Y157992D01*
X776248Y157918D01*
X776433Y157853D01*
X776590Y157789D01*
X776599Y157779D01*
X776636Y157761D01*
X776701Y157733D01*
X776775Y157696D01*
X776867Y157641D01*
X776969Y157585D01*
X777089Y157511D01*
X777219Y157428D01*
X777348Y157345D01*
X777487Y157243D01*
X777764Y157021D01*
X778023Y156762D01*
X778134Y156624D01*
X778245Y156476D01*
X778254Y156467D01*
X778273Y156439D01*
X778291Y156393D01*
X778328Y156337D01*
X778365Y156263D01*
X778411Y156171D01*
X778467Y156069D01*
X778513Y155958D01*
X778559Y155829D01*
X778615Y155690D01*
X778661Y155542D01*
X778698Y155376D01*
X778735Y155209D01*
X778763Y155034D01*
X778772Y154858D01*
X778781Y154664D01*
Y154654D01*
Y154617D01*
Y154562D01*
X778772Y154488D01*
X778763Y154396D01*
X778754Y154294D01*
X778735Y154174D01*
X778707Y154035D01*
X778680Y153896D01*
X778633Y153739D01*
X778587Y153582D01*
X778532Y153415D01*
X778467Y153249D01*
X778384Y153073D01*
X778291Y152907D01*
X778189Y152731D01*
X778180Y152722D01*
X778162Y152694D01*
X778125Y152648D01*
X778079Y152583D01*
X778023Y152509D01*
X777949Y152417D01*
X777866Y152324D01*
X777764Y152223D01*
X777653Y152112D01*
X777524Y152001D01*
X777385Y151881D01*
X777237Y151761D01*
X777080Y151650D01*
X776904Y151539D01*
X776719Y151437D01*
X776516Y151335D01*
X776507Y151326D01*
X776470Y151317D01*
X776405Y151289D01*
X776322Y151261D01*
X776220Y151224D01*
X776100Y151178D01*
X775961Y151132D01*
X775804Y151086D01*
X775628Y151039D01*
X775434Y150993D01*
X775231Y150956D01*
X775018Y150910D01*
X774796Y150882D01*
X774556Y150855D01*
X774306Y150845D01*
X774057Y150836D01*
X773890D01*
X773770Y150845D01*
X773622Y150855D01*
X773447Y150864D01*
X773252Y150882D01*
X773040Y150901D01*
X772818Y150928D01*
X772587Y150956D01*
X772097Y151049D01*
X771847Y151104D01*
X771607Y151169D01*
X771366Y151252D01*
X771144Y151335D01*
X771135Y151344D01*
X771089Y151363D01*
X771033Y151391D01*
X770950Y151428D01*
X770848Y151483D01*
X770738Y151548D01*
X770608Y151631D01*
X770479Y151714D01*
X770331Y151816D01*
X770183Y151927D01*
X770026Y152056D01*
X769878Y152195D01*
X769721Y152343D01*
X769573Y152500D01*
X769434Y152676D01*
X769305Y152861D01*
X769295Y152870D01*
X769277Y152907D01*
X769240Y152963D01*
X769203Y153036D01*
X769147Y153138D01*
X769092Y153249D01*
X769027Y153378D01*
X768972Y153526D01*
X768907Y153693D01*
X768842Y153869D01*
X768787Y154063D01*
X768731Y154257D01*
X768685Y154469D01*
X768648Y154691D01*
X768620Y154923D01*
X768611Y155163D01*
X770210Y155302D01*
Y155292D01*
X770220Y155255D01*
Y155209D01*
X770238Y155144D01*
X770247Y155061D01*
X770266Y154959D01*
X770294Y154858D01*
X770322Y154738D01*
X770386Y154488D01*
X770479Y154220D01*
X770590Y153961D01*
X770728Y153711D01*
X770738Y153702D01*
X770747Y153684D01*
X770775Y153656D01*
X770811Y153610D01*
X770848Y153554D01*
X770904Y153499D01*
X770969Y153434D01*
X771043Y153360D01*
X771126Y153286D01*
X771227Y153203D01*
X771329Y153120D01*
X771449Y153036D01*
X771570Y152953D01*
X771708Y152870D01*
X771856Y152796D01*
X772013Y152722D01*
X772023D01*
X772050Y152704D01*
X772106Y152685D01*
X772171Y152667D01*
X772254Y152639D01*
X772346Y152602D01*
X772467Y152565D01*
X772587Y152537D01*
X772725Y152500D01*
X772883Y152463D01*
X773040Y152436D01*
X773215Y152399D01*
X773585Y152361D01*
X773983Y152343D01*
X774075D01*
X774149Y152352D01*
X774232D01*
X774325Y152361D01*
X774436Y152371D01*
X774556Y152380D01*
X774824Y152417D01*
X775111Y152463D01*
X775397Y152537D01*
X775684Y152630D01*
X775693D01*
X775721Y152639D01*
X775758Y152657D01*
X775804Y152685D01*
X775869Y152713D01*
X775934Y152750D01*
X776100Y152833D01*
X776276Y152944D01*
X776461Y153083D01*
X776636Y153240D01*
X776784Y153415D01*
Y153425D01*
X776803Y153443D01*
X776821Y153471D01*
X776840Y153508D01*
X776867Y153554D01*
X776904Y153610D01*
X776969Y153748D01*
X777034Y153905D01*
X777098Y154090D01*
X777135Y154303D01*
X777154Y154516D01*
Y154525D01*
Y154544D01*
Y154571D01*
X777145Y154617D01*
Y154673D01*
X777135Y154728D01*
X777108Y154876D01*
X777071Y155034D01*
X777006Y155209D01*
X776914Y155385D01*
X776793Y155561D01*
Y155570D01*
X776775Y155579D01*
X776729Y155634D01*
X776636Y155718D01*
X776581Y155773D01*
X776516Y155829D01*
X776442Y155884D01*
X776359Y155949D01*
X776266Y156013D01*
X776155Y156078D01*
X776044Y156143D01*
X775915Y156208D01*
X775786Y156263D01*
X775638Y156328D01*
X775628D01*
X775610Y156337D01*
X775582Y156346D01*
X775527Y156365D01*
X775462Y156383D01*
X775388Y156411D01*
X775286Y156439D01*
X775166Y156476D01*
X775018Y156522D01*
X774861Y156568D01*
X774676Y156615D01*
X774464Y156670D01*
X774232Y156735D01*
X773964Y156799D01*
X773678Y156873D01*
X773363Y156947D01*
X773354D01*
X773345Y156957D01*
X773317D01*
X773289Y156966D01*
X773197Y156994D01*
X773077Y157021D01*
X772938Y157058D01*
X772772Y157105D01*
X772587Y157151D01*
X772402Y157206D01*
X771995Y157326D01*
X771588Y157465D01*
X771394Y157539D01*
X771209Y157613D01*
X771052Y157678D01*
X770904Y157752D01*
X770895Y157761D01*
X770867Y157770D01*
X770821Y157798D01*
X770756Y157835D01*
X770682Y157881D01*
X770590Y157946D01*
X770497Y158011D01*
X770386Y158084D01*
X770164Y158251D01*
X769942Y158454D01*
X769721Y158686D01*
X769628Y158815D01*
X769536Y158944D01*
X769526Y158954D01*
X769517Y158981D01*
X769499Y159018D01*
X769471Y159074D01*
X769434Y159138D01*
X769397Y159213D01*
X769360Y159305D01*
X769314Y159407D01*
X769277Y159527D01*
X769230Y159647D01*
X769166Y159915D01*
X769110Y160211D01*
X769101Y160368D01*
X769092Y160535D01*
Y160544D01*
Y160581D01*
Y160627D01*
X769101Y160701D01*
X769110Y160784D01*
X769119Y160886D01*
X769138Y160997D01*
X769156Y161126D01*
X769193Y161265D01*
X769221Y161404D01*
X769268Y161552D01*
X769323Y161709D01*
X769388Y161866D01*
X769462Y162023D01*
X769545Y162190D01*
X769637Y162347D01*
X769647Y162356D01*
X769665Y162384D01*
X769693Y162430D01*
X769739Y162485D01*
X769794Y162559D01*
X769868Y162633D01*
X769952Y162726D01*
X770044Y162818D01*
X770146Y162920D01*
X770266Y163031D01*
X770395Y163133D01*
X770543Y163244D01*
X770701Y163345D01*
X770867Y163447D01*
X771043Y163539D01*
X771237Y163623D01*
X771246Y163632D01*
X771283Y163641D01*
X771339Y163660D01*
X771422Y163697D01*
X771523Y163724D01*
X771634Y163761D01*
X771773Y163808D01*
X771930Y163845D01*
X772097Y163891D01*
X772272Y163928D01*
X772467Y163965D01*
X772670Y164002D01*
X772892Y164029D01*
X773114Y164048D01*
X773345Y164057D01*
X773585Y164066D01*
X773724D01*
X773826Y164057D01*
D02*
G37*
G36*
X766457Y151049D02*
X764820D01*
Y161755D01*
X761094Y151049D01*
X759560D01*
X755871Y161940D01*
Y151049D01*
X754234D01*
Y163845D01*
X756777D01*
X759809Y154784D01*
X759818Y154765D01*
X759828Y154728D01*
X759846Y154664D01*
X759874Y154580D01*
X759911Y154469D01*
X759948Y154349D01*
X759994Y154220D01*
X760040Y154072D01*
X760142Y153767D01*
X760244Y153453D01*
X760290Y153295D01*
X760336Y153147D01*
X760383Y153018D01*
X760419Y152888D01*
Y152898D01*
X760429Y152926D01*
X760447Y152963D01*
X760466Y153018D01*
X760484Y153092D01*
X760512Y153184D01*
X760549Y153286D01*
X760586Y153406D01*
X760632Y153545D01*
X760688Y153693D01*
X760743Y153859D01*
X760798Y154044D01*
X760872Y154248D01*
X760937Y154460D01*
X761020Y154691D01*
X761104Y154941D01*
X764173Y163845D01*
X766457D01*
Y151049D01*
D02*
G37*
G36*
X752551Y162337D02*
X748317D01*
Y151049D01*
X746625D01*
Y162337D01*
X742409D01*
Y163845D01*
X752551D01*
Y162337D01*
D02*
G37*
%LPC*%
G36*
X697114Y171382D02*
X696909D01*
Y171177D01*
X697114D01*
Y171382D01*
D02*
G37*
G36*
X696704Y171177D02*
X696499D01*
Y170972D01*
X696704D01*
Y171177D01*
D02*
G37*
G36*
X657083D02*
X656672D01*
Y170972D01*
X657083D01*
Y171177D01*
D02*
G37*
G36*
Y167071D02*
X656877D01*
Y166866D01*
X657083D01*
Y167071D01*
D02*
G37*
G36*
X694446Y165839D02*
X694240D01*
Y165634D01*
X694446D01*
Y165839D01*
D02*
G37*
G36*
X691366D02*
X691161D01*
Y165634D01*
X691366D01*
Y165839D01*
D02*
G37*
G36*
X671453Y165634D02*
X671248D01*
Y165429D01*
X671453D01*
Y165634D01*
D02*
G37*
G36*
X689929Y165839D02*
X674943D01*
Y165634D01*
X674532D01*
Y165429D01*
X674327D01*
Y165224D01*
X673916D01*
Y165429D01*
X673711D01*
Y165634D01*
X673506D01*
Y165429D01*
X673711D01*
Y164813D01*
X673506D01*
Y164608D01*
X673301D01*
Y164402D01*
X673095D01*
Y164608D01*
X672890D01*
Y163787D01*
X672685D01*
Y163581D01*
X672479D01*
Y163171D01*
X672274D01*
Y155575D01*
X672479D01*
Y155164D01*
X672685D01*
Y154959D01*
X672890D01*
Y154343D01*
X673301D01*
Y154138D01*
X673711D01*
Y153933D01*
X673916D01*
Y153727D01*
X674122D01*
Y153522D01*
X674738D01*
Y153317D01*
X674943D01*
Y153522D01*
X675148D01*
Y153317D01*
X676585D01*
Y153111D01*
X688492D01*
Y152906D01*
X688698D01*
Y153111D01*
X688492D01*
Y153317D01*
X690135D01*
Y153522D01*
X691161D01*
Y153727D01*
X691366D01*
Y153933D01*
X691572D01*
Y154138D01*
X691777D01*
Y154343D01*
X691982D01*
Y154548D01*
X692188D01*
Y154959D01*
X692393D01*
Y154754D01*
X692598D01*
Y154959D01*
X692393D01*
Y155164D01*
X692598D01*
Y155370D01*
X692803D01*
Y163376D01*
X692598D01*
Y163581D01*
X692393D01*
Y164197D01*
X692188D01*
Y164402D01*
X691777D01*
Y164608D01*
X691572D01*
Y165018D01*
X691366D01*
Y165224D01*
X690750D01*
Y165429D01*
X690545D01*
Y165634D01*
X689929D01*
Y165839D01*
D02*
G37*
G36*
X672685Y165429D02*
X672479D01*
Y165224D01*
X672685D01*
Y165429D01*
D02*
G37*
G36*
X694035Y165224D02*
X693624D01*
Y165018D01*
X694035D01*
Y165224D01*
D02*
G37*
G36*
X693214D02*
X693009D01*
Y165018D01*
X693214D01*
Y165224D01*
D02*
G37*
G36*
X692393D02*
X692188D01*
Y165018D01*
X692393D01*
Y165224D01*
D02*
G37*
G36*
X672685Y165018D02*
X672479D01*
Y164813D01*
X672685D01*
Y165018D01*
D02*
G37*
G36*
X672069D02*
X671864D01*
Y164813D01*
X672069D01*
Y165018D01*
D02*
G37*
G36*
X670221D02*
X670016D01*
Y164813D01*
X670221D01*
Y165018D01*
D02*
G37*
G36*
X671658Y164813D02*
X671453D01*
Y164608D01*
X671658D01*
Y164813D01*
D02*
G37*
G36*
X694035Y164608D02*
X693830D01*
Y164402D01*
X694035D01*
Y164608D01*
D02*
G37*
G36*
X692598D02*
X692393D01*
Y164402D01*
X692598D01*
Y164608D01*
D02*
G37*
G36*
X670426Y164402D02*
X670221D01*
Y164197D01*
X670426D01*
Y164402D01*
D02*
G37*
G36*
X672069Y164197D02*
X671864D01*
Y163992D01*
X672069D01*
Y164197D01*
D02*
G37*
G36*
Y162555D02*
X671864D01*
Y162349D01*
X672069D01*
Y162555D01*
D02*
G37*
G36*
X697320Y162349D02*
X697114D01*
Y162144D01*
X697320D01*
Y162349D01*
D02*
G37*
G36*
X696704Y162144D02*
X696499D01*
Y161939D01*
X696704D01*
Y162144D01*
D02*
G37*
G36*
X667963Y161118D02*
X667758D01*
Y160912D01*
X667963D01*
Y161118D01*
D02*
G37*
G36*
X668374Y160091D02*
X668168D01*
Y159886D01*
X668374D01*
Y160091D01*
D02*
G37*
G36*
X697525Y159475D02*
X697320D01*
Y159270D01*
X697525D01*
Y159475D01*
D02*
G37*
G36*
X697114Y155780D02*
X696909D01*
Y155575D01*
X697114D01*
Y155780D01*
D02*
G37*
G36*
X696704D02*
X696499D01*
Y155575D01*
X696704D01*
Y155780D01*
D02*
G37*
G36*
X668374D02*
X668168D01*
Y155575D01*
X668374D01*
Y155780D01*
D02*
G37*
G36*
X672685Y154548D02*
X672479D01*
Y154343D01*
X672685D01*
Y154548D01*
D02*
G37*
G36*
X692803Y154343D02*
X692598D01*
Y154138D01*
X692803D01*
Y154343D01*
D02*
G37*
G36*
X672479D02*
X672274D01*
Y154138D01*
X672479D01*
Y154343D01*
D02*
G37*
G36*
X696909Y153933D02*
X696704D01*
Y153727D01*
X696909D01*
Y153933D01*
D02*
G37*
G36*
X692598D02*
X692393D01*
Y153727D01*
X692598D01*
Y153933D01*
D02*
G37*
G36*
X668168D02*
X667963D01*
Y153727D01*
X668168D01*
Y153933D01*
D02*
G37*
G36*
X692393Y153727D02*
X692188D01*
Y153522D01*
X692393D01*
Y153727D01*
D02*
G37*
G36*
X692188Y153522D02*
X691982D01*
Y153317D01*
X692188D01*
Y153522D01*
D02*
G37*
G36*
X673711D02*
X673506D01*
Y153317D01*
X673711D01*
Y153522D01*
D02*
G37*
G36*
X672685Y153933D02*
X672479D01*
Y153727D01*
X672685D01*
Y153522D01*
X672890D01*
Y153317D01*
X673095D01*
Y153522D01*
X672890D01*
Y153727D01*
X672685D01*
Y153933D01*
D02*
G37*
G36*
X696704Y153317D02*
X696499D01*
Y153111D01*
X696704D01*
Y153317D01*
D02*
G37*
G36*
X691777D02*
X691572D01*
Y153111D01*
X691777D01*
Y153317D01*
D02*
G37*
G36*
X673506D02*
X673301D01*
Y153111D01*
X673506D01*
Y153317D01*
D02*
G37*
G36*
X668168D02*
X667963D01*
Y153111D01*
X668168D01*
Y153317D01*
D02*
G37*
G36*
X673711Y152906D02*
X673506D01*
Y152701D01*
X673711D01*
Y152906D01*
D02*
G37*
G36*
X668374Y152701D02*
X668168D01*
Y152495D01*
X668374D01*
Y152701D01*
D02*
G37*
G36*
X695883Y151880D02*
X695677D01*
Y151674D01*
X695883D01*
Y151880D01*
D02*
G37*
G36*
X693419Y149416D02*
X693214D01*
Y149211D01*
X693419D01*
Y149416D01*
D02*
G37*
G36*
X672890D02*
X672685D01*
Y149211D01*
X672890D01*
Y149416D01*
D02*
G37*
G36*
X693009Y149211D02*
X692803D01*
Y149005D01*
X693009D01*
Y149211D01*
D02*
G37*
G36*
X691366D02*
X691161D01*
Y149005D01*
X691366D01*
Y149211D01*
D02*
G37*
G36*
X692598Y148800D02*
X692393D01*
Y148595D01*
X692598D01*
Y148800D01*
D02*
G37*
G36*
X674943D02*
X674532D01*
Y148595D01*
X674943D01*
Y148800D01*
D02*
G37*
G36*
X690545D02*
X690340D01*
Y148390D01*
X690750D01*
Y148595D01*
X690545D01*
Y148800D01*
D02*
G37*
G36*
X673301Y148390D02*
X673095D01*
Y148184D01*
X673301D01*
Y148390D01*
D02*
G37*
G36*
X652566Y171382D02*
X652361D01*
Y171177D01*
X652566D01*
Y171382D01*
D02*
G37*
G36*
X652156Y170972D02*
X651950D01*
Y170767D01*
X652156D01*
Y170972D01*
D02*
G37*
G36*
X617051Y169945D02*
X616845D01*
Y169740D01*
X617051D01*
Y169945D01*
D02*
G37*
G36*
X619104Y169535D02*
X618898D01*
Y169329D01*
X619104D01*
Y169535D01*
D02*
G37*
G36*
X649897Y169329D02*
X649692D01*
Y169124D01*
X649897D01*
Y169329D01*
D02*
G37*
G36*
X648871Y168919D02*
X648666D01*
Y168713D01*
X648871D01*
Y168919D01*
D02*
G37*
G36*
X620541Y168508D02*
X620335D01*
Y168303D01*
X620541D01*
Y168508D01*
D02*
G37*
G36*
X619925D02*
X619514D01*
Y168303D01*
X619925D01*
Y168508D01*
D02*
G37*
G36*
X621157Y168303D02*
X620951D01*
Y168098D01*
X621157D01*
Y168303D01*
D02*
G37*
G36*
X647844Y168098D02*
X647639D01*
Y167892D01*
X647844D01*
Y168098D01*
D02*
G37*
G36*
X621362Y167892D02*
X621157D01*
Y167687D01*
X621362D01*
Y167892D01*
D02*
G37*
G36*
X620541D02*
X620335D01*
Y167687D01*
X620541D01*
Y167892D01*
D02*
G37*
G36*
X619925D02*
X619719D01*
Y167687D01*
X619925D01*
Y167892D01*
D02*
G37*
G36*
X645586Y166455D02*
X645381D01*
Y166250D01*
X645586D01*
Y166455D01*
D02*
G37*
G36*
X644560D02*
X644354D01*
Y166250D01*
X644560D01*
Y166455D01*
D02*
G37*
G36*
X623415Y166045D02*
X623209D01*
Y165839D01*
X623415D01*
Y166045D01*
D02*
G37*
G36*
X652566Y165839D02*
X652361D01*
Y165634D01*
X652566D01*
Y165839D01*
D02*
G37*
G36*
X643123Y165224D02*
X642917D01*
Y165018D01*
X643123D01*
Y165224D01*
D02*
G37*
G36*
X625057Y165018D02*
X624852D01*
Y164813D01*
X625057D01*
Y165018D01*
D02*
G37*
G36*
X652361Y164813D02*
X652156D01*
Y164608D01*
X652361D01*
Y164813D01*
D02*
G37*
G36*
X617256D02*
X617051D01*
Y164608D01*
X617256D01*
Y164813D01*
D02*
G37*
G36*
X624441Y164402D02*
X624236D01*
Y164197D01*
X624441D01*
Y164402D01*
D02*
G37*
G36*
X617051D02*
X616845D01*
Y164197D01*
X617051D01*
Y164402D01*
D02*
G37*
G36*
X618077Y164197D02*
X617667D01*
Y163992D01*
X618077D01*
Y164197D01*
D02*
G37*
G36*
X617461Y163992D02*
X617256D01*
Y163787D01*
X617461D01*
Y163992D01*
D02*
G37*
G36*
X651129Y163787D02*
X650719D01*
Y163581D01*
X651129D01*
Y163787D01*
D02*
G37*
G36*
X649692Y163581D02*
X649487D01*
Y163376D01*
X649692D01*
Y163581D01*
D02*
G37*
G36*
X640454D02*
X640249D01*
Y163376D01*
X640454D01*
Y163581D01*
D02*
G37*
G36*
X640043D02*
X639838D01*
Y163376D01*
X640043D01*
Y163581D01*
D02*
G37*
G36*
X627726D02*
X627520D01*
Y163376D01*
X627726D01*
Y163581D01*
D02*
G37*
G36*
X617872D02*
X617667D01*
Y163376D01*
X617872D01*
Y163581D01*
D02*
G37*
G36*
X639222Y162760D02*
X639017D01*
Y162555D01*
X639222D01*
Y162760D01*
D02*
G37*
G36*
X629573D02*
X629368D01*
Y162555D01*
X629573D01*
Y162760D01*
D02*
G37*
G36*
X627726D02*
X627520D01*
Y162555D01*
X627726D01*
Y162760D01*
D02*
G37*
G36*
X619309D02*
X619104D01*
Y162555D01*
X619309D01*
Y162760D01*
D02*
G37*
G36*
X649487Y162555D02*
X648871D01*
Y162349D01*
X649487D01*
Y162555D01*
D02*
G37*
G36*
X619719D02*
X619514D01*
Y162349D01*
X619719D01*
Y162555D01*
D02*
G37*
G36*
X648460Y162349D02*
X648255D01*
Y162144D01*
X648460D01*
Y162349D01*
D02*
G37*
G36*
X631626Y161734D02*
X631421D01*
Y161528D01*
X631626D01*
Y161734D01*
D02*
G37*
G36*
X620335D02*
X620130D01*
Y161528D01*
X620335D01*
Y161734D01*
D02*
G37*
G36*
X631832Y161118D02*
X631626D01*
Y160912D01*
X631832D01*
Y161118D01*
D02*
G37*
G36*
X631421D02*
X631216D01*
Y160912D01*
X631421D01*
Y161118D01*
D02*
G37*
G36*
X624236Y160912D02*
X624031D01*
Y160707D01*
X624236D01*
Y160912D01*
D02*
G37*
G36*
X635732Y160707D02*
X635527D01*
Y160502D01*
X635732D01*
Y160707D01*
D02*
G37*
G36*
X623415D02*
X623209D01*
Y160502D01*
X623415D01*
Y160707D01*
D02*
G37*
G36*
X644560Y160502D02*
X644354D01*
Y160296D01*
X644560D01*
Y160502D01*
D02*
G37*
G36*
X624031D02*
X623825D01*
Y160296D01*
X624031D01*
Y160502D01*
D02*
G37*
G36*
X635116Y160296D02*
X634911D01*
Y160091D01*
X635116D01*
Y160296D01*
D02*
G37*
G36*
X633885D02*
X633679D01*
Y160091D01*
X633885D01*
Y159886D01*
X634090D01*
Y160091D01*
X633885D01*
Y160296D01*
D02*
G37*
G36*
X633474D02*
X633269D01*
Y160091D01*
X633474D01*
Y159886D01*
X633679D01*
Y160091D01*
X633474D01*
Y160296D01*
D02*
G37*
G36*
X635732Y159886D02*
X635527D01*
Y159681D01*
X635732D01*
Y159886D01*
D02*
G37*
G36*
X635322D02*
X635116D01*
Y159681D01*
X635322D01*
Y159886D01*
D02*
G37*
G36*
X633063Y159681D02*
X632858D01*
Y159475D01*
X633063D01*
Y159681D01*
D02*
G37*
G36*
X624441Y159270D02*
X624236D01*
Y159065D01*
X624441D01*
Y159270D01*
D02*
G37*
G36*
X625057Y159065D02*
X624852D01*
Y158860D01*
X625057D01*
Y159065D01*
D02*
G37*
G36*
X627315Y158654D02*
X627110D01*
Y158449D01*
X627315D01*
Y158654D01*
D02*
G37*
G36*
X626905D02*
X626699D01*
Y158449D01*
X626905D01*
Y158654D01*
D02*
G37*
G36*
X626083Y158449D02*
X625878D01*
Y158244D01*
X626083D01*
Y158449D01*
D02*
G37*
G36*
X626905Y157833D02*
X626699D01*
Y157628D01*
X626905D01*
Y157833D01*
D02*
G37*
G36*
X639838Y157628D02*
X639633D01*
Y157423D01*
X639838D01*
Y157628D01*
D02*
G37*
G36*
X639222D02*
X639017D01*
Y157423D01*
X639222D01*
Y157628D01*
D02*
G37*
G36*
X628547Y156807D02*
X628342D01*
Y156601D01*
X628547D01*
Y156807D01*
D02*
G37*
G36*
X631011Y155985D02*
X630805D01*
Y155780D01*
X631011D01*
Y155985D01*
D02*
G37*
G36*
X631421Y155780D02*
X631216D01*
Y155575D01*
X631421D01*
Y155780D01*
D02*
G37*
G36*
X636143Y154548D02*
X635938D01*
Y154343D01*
X636143D01*
Y154548D01*
D02*
G37*
G36*
X634090Y153727D02*
X633885D01*
Y153522D01*
X634090D01*
Y153727D01*
D02*
G37*
G36*
X652566Y145926D02*
X652361D01*
Y145721D01*
X652566D01*
Y145926D01*
D02*
G37*
G36*
X603501Y144489D02*
X603296D01*
Y144284D01*
X603501D01*
Y144489D01*
D02*
G37*
G36*
X652771Y134635D02*
X652566D01*
Y134430D01*
X652771D01*
Y134635D01*
D02*
G37*
G36*
X622593Y134019D02*
X622388D01*
Y133814D01*
X622593D01*
Y134019D01*
D02*
G37*
G36*
X652977Y133609D02*
X652771D01*
Y133403D01*
X652977D01*
Y133609D01*
D02*
G37*
G36*
X623620D02*
X623415D01*
Y133403D01*
X623620D01*
Y133609D01*
D02*
G37*
G36*
X622799D02*
X622593D01*
Y133403D01*
X622799D01*
Y133609D01*
D02*
G37*
G36*
X624031Y133403D02*
X623825D01*
Y133198D01*
X624031D01*
Y133403D01*
D02*
G37*
G36*
X620746Y132171D02*
X620541D01*
Y131966D01*
X620746D01*
Y132171D01*
D02*
G37*
G36*
X619514Y131761D02*
X619309D01*
Y131556D01*
X619514D01*
Y131761D01*
D02*
G37*
G36*
X618693Y130735D02*
X618488D01*
Y130529D01*
X618693D01*
Y130735D01*
D02*
G37*
G36*
X627110Y128887D02*
X626905D01*
Y128682D01*
X627110D01*
Y128887D01*
D02*
G37*
G36*
X624646Y128066D02*
X624441D01*
Y127860D01*
X624646D01*
Y128066D01*
D02*
G37*
G36*
X623004Y127450D02*
X622799D01*
Y127245D01*
X623004D01*
Y127450D01*
D02*
G37*
G36*
X617256Y127039D02*
X617051D01*
Y126834D01*
X617256D01*
Y127039D01*
D02*
G37*
G36*
X617667Y126013D02*
X617461D01*
Y125808D01*
X617667D01*
Y126013D01*
D02*
G37*
G36*
X617256Y125808D02*
X617051D01*
Y125602D01*
X617256D01*
Y125808D01*
D02*
G37*
G36*
X621772Y124165D02*
X621567D01*
Y123960D01*
X621772D01*
Y124165D01*
D02*
G37*
G36*
X617256Y121291D02*
X617051D01*
Y121086D01*
X617256D01*
Y121291D01*
D02*
G37*
G36*
X617667Y120059D02*
X617461D01*
Y119854D01*
X617667D01*
Y120059D01*
D02*
G37*
G36*
X621978Y119649D02*
X621772D01*
Y119443D01*
X621978D01*
Y119649D01*
D02*
G37*
G36*
X617461D02*
X617256D01*
Y119443D01*
X617461D01*
Y119649D01*
D02*
G37*
G36*
X621157Y119033D02*
X620951D01*
Y118827D01*
X621157D01*
Y119033D01*
D02*
G37*
G36*
X622388Y117390D02*
X622183D01*
Y117185D01*
X622388D01*
Y117390D01*
D02*
G37*
G36*
X622593Y116775D02*
X622388D01*
Y116569D01*
X622593D01*
Y116775D01*
D02*
G37*
G36*
X618282Y116569D02*
X618077D01*
Y116364D01*
X618282D01*
Y116569D01*
D02*
G37*
G36*
X623415Y115338D02*
X623209D01*
Y115132D01*
X623415D01*
Y115338D01*
D02*
G37*
G36*
X623004Y114927D02*
X622799D01*
Y114722D01*
X623004D01*
Y114927D01*
D02*
G37*
G36*
X623620Y114311D02*
X623415D01*
Y114106D01*
X623620D01*
Y114311D01*
D02*
G37*
G36*
X620335D02*
X620130D01*
Y114106D01*
X620335D01*
Y114311D01*
D02*
G37*
G36*
X624852Y113901D02*
X624646D01*
Y113695D01*
X624852D01*
Y113901D01*
D02*
G37*
G36*
X624236Y113695D02*
X624031D01*
Y113490D01*
X624236D01*
Y113695D01*
D02*
G37*
G36*
X622799D02*
X622593D01*
Y113490D01*
X622799D01*
Y113285D01*
X623004D01*
Y113490D01*
X622799D01*
Y113695D01*
D02*
G37*
G36*
X652977Y112258D02*
X652771D01*
Y111848D01*
X652977D01*
Y112258D01*
D02*
G37*
G36*
X617051Y107331D02*
X616845D01*
Y107126D01*
X617051D01*
Y107331D01*
D02*
G37*
G36*
X670426Y143052D02*
X670221D01*
Y142847D01*
X670426D01*
Y143052D01*
D02*
G37*
G36*
X672069Y142231D02*
X671864D01*
Y142026D01*
X672069D01*
Y142231D01*
D02*
G37*
G36*
X668168Y139357D02*
X667963D01*
Y139151D01*
X668168D01*
Y139357D01*
D02*
G37*
G36*
X672479Y136072D02*
X672274D01*
Y135867D01*
X672479D01*
Y136072D01*
D02*
G37*
G36*
X669811D02*
X669605D01*
Y135867D01*
X669811D01*
Y136072D01*
D02*
G37*
G36*
X672274Y135661D02*
X672069D01*
Y135456D01*
X672274D01*
Y135661D01*
D02*
G37*
G36*
X670016Y135456D02*
X669811D01*
Y135251D01*
X670016D01*
Y135456D01*
D02*
G37*
G36*
X672685D02*
X672479D01*
Y135046D01*
X672685D01*
Y135456D01*
D02*
G37*
G36*
X671248Y134019D02*
X671042D01*
Y133814D01*
X671248D01*
Y134019D01*
D02*
G37*
G36*
X671042Y133814D02*
X670837D01*
Y133609D01*
X671042D01*
Y133814D01*
D02*
G37*
G36*
X675559Y133198D02*
X675148D01*
Y132993D01*
X675559D01*
Y133198D01*
D02*
G37*
G36*
X671658D02*
X671453D01*
Y132993D01*
X671658D01*
Y133198D01*
D02*
G37*
G36*
X669400D02*
X669195D01*
Y132993D01*
X669400D01*
Y133198D01*
D02*
G37*
G36*
X696704Y132377D02*
X696499D01*
Y132171D01*
X696704D01*
Y132377D01*
D02*
G37*
G36*
X697114Y131966D02*
X696909D01*
Y131761D01*
X697114D01*
Y131966D01*
D02*
G37*
G36*
X667963D02*
X667758D01*
Y131761D01*
X667963D01*
Y131966D01*
D02*
G37*
G36*
X697320Y129708D02*
X697114D01*
Y129503D01*
X697320D01*
Y129708D01*
D02*
G37*
G36*
X668168D02*
X667963D01*
Y129503D01*
X668168D01*
Y129708D01*
D02*
G37*
G36*
X668579Y128887D02*
X668374D01*
Y128682D01*
X668579D01*
Y128887D01*
D02*
G37*
G36*
Y128271D02*
X668374D01*
Y128066D01*
X668579D01*
Y128271D01*
D02*
G37*
G36*
X696704Y119443D02*
X696499D01*
Y119238D01*
X696704D01*
Y119443D01*
D02*
G37*
G36*
X667963D02*
X667758D01*
Y119238D01*
X667963D01*
Y119443D01*
D02*
G37*
G36*
X697320Y118827D02*
X697114D01*
Y118622D01*
X697320D01*
Y118827D01*
D02*
G37*
G36*
X697114Y116364D02*
X696909D01*
Y116159D01*
X697114D01*
Y116364D01*
D02*
G37*
G36*
X696704Y115132D02*
X696499D01*
Y114927D01*
X696704D01*
Y115132D01*
D02*
G37*
G36*
X697114Y114927D02*
X696909D01*
Y114722D01*
X697114D01*
Y114927D01*
D02*
G37*
G36*
X691572D02*
X691366D01*
Y114722D01*
X691572D01*
Y114927D01*
D02*
G37*
G36*
X689519D02*
X689313D01*
Y114722D01*
X689519D01*
Y114927D01*
D02*
G37*
G36*
X688698D02*
X688492D01*
Y114722D01*
X688698D01*
Y114927D01*
D02*
G37*
G36*
X688082D02*
X687876D01*
Y114722D01*
X688082D01*
Y114927D01*
D02*
G37*
G36*
X672069D02*
X671864D01*
Y114722D01*
X672069D01*
Y114927D01*
D02*
G37*
G36*
X690956Y114722D02*
X690750D01*
Y114516D01*
X690956D01*
Y114722D01*
D02*
G37*
G36*
X694240Y114516D02*
X694035D01*
Y114311D01*
X694240D01*
Y114516D01*
D02*
G37*
G36*
X672069Y113901D02*
X671864D01*
Y113695D01*
X672069D01*
Y113901D01*
D02*
G37*
G36*
X693419Y113695D02*
X693214D01*
Y113490D01*
X693419D01*
Y113695D01*
D02*
G37*
G36*
X672069Y113490D02*
X671864D01*
Y113285D01*
X672069D01*
Y113490D01*
D02*
G37*
G36*
X696088Y112464D02*
X695883D01*
Y112258D01*
X696088D01*
Y112464D01*
D02*
G37*
G36*
X695472D02*
X695267D01*
Y112258D01*
X695472D01*
Y112464D01*
D02*
G37*
G36*
X696499Y112258D02*
X696293D01*
Y112053D01*
X696499D01*
Y112258D01*
D02*
G37*
G36*
X697320Y110821D02*
X697114D01*
Y110616D01*
X697320D01*
Y110821D01*
D02*
G37*
G36*
X696909Y110616D02*
X696704D01*
Y110411D01*
X696909D01*
Y110616D01*
D02*
G37*
G36*
X672069Y105073D02*
X671864D01*
Y104868D01*
X672069D01*
Y105073D01*
D02*
G37*
G36*
X697320D02*
X697114D01*
Y104662D01*
X697320D01*
Y105073D01*
D02*
G37*
G36*
X667963Y104662D02*
X667758D01*
Y104457D01*
X667963D01*
Y104662D01*
D02*
G37*
G36*
X668168Y103841D02*
X667963D01*
Y103636D01*
X668168D01*
Y103841D01*
D02*
G37*
G36*
X697114Y103636D02*
X696909D01*
Y103431D01*
X697114D01*
Y103636D01*
D02*
G37*
G36*
X672685D02*
X672479D01*
Y103431D01*
X672685D01*
Y103636D01*
D02*
G37*
G36*
X667963D02*
X667758D01*
Y103431D01*
X667963D01*
Y103636D01*
D02*
G37*
G36*
X672069Y103431D02*
X671864D01*
Y103225D01*
X672069D01*
Y103431D01*
D02*
G37*
G36*
X693214Y103020D02*
X693009D01*
Y102815D01*
X693214D01*
Y103020D01*
D02*
G37*
G36*
X691982Y102610D02*
X691777D01*
Y102404D01*
X691982D01*
Y102610D01*
D02*
G37*
G36*
X673301Y103020D02*
X673095D01*
Y102815D01*
X673301D01*
Y102404D01*
X673506D01*
Y102815D01*
X673301D01*
Y103020D01*
D02*
G37*
G36*
X688082Y114516D02*
X672685D01*
Y114311D01*
X672274D01*
Y104457D01*
X672479D01*
Y104047D01*
X672685D01*
Y103636D01*
X672890D01*
Y103431D01*
X673095D01*
Y103225D01*
X673301D01*
Y103020D01*
X673506D01*
Y102815D01*
X673711D01*
Y102610D01*
X674122D01*
Y102199D01*
X674327D01*
Y102404D01*
X674532D01*
Y102199D01*
X675148D01*
Y101994D01*
X689929D01*
Y102199D01*
X690545D01*
Y102404D01*
X690956D01*
Y102199D01*
X691161D01*
Y102404D01*
X690956D01*
Y102610D01*
X691366D01*
Y102815D01*
X691572D01*
Y103020D01*
X691777D01*
Y103225D01*
X691982D01*
Y103431D01*
X692188D01*
Y103636D01*
X692393D01*
Y104047D01*
X692598D01*
Y104457D01*
X692803D01*
Y104662D01*
X693009D01*
Y104868D01*
X692803D01*
Y109795D01*
X693009D01*
Y110000D01*
X692803D01*
Y111642D01*
X692598D01*
Y112053D01*
X692393D01*
Y112258D01*
X692188D01*
Y113079D01*
X691982D01*
Y113285D01*
X691777D01*
Y113079D01*
X691982D01*
Y112874D01*
X691777D01*
Y113079D01*
X691572D01*
Y113490D01*
X691366D01*
Y113695D01*
X690750D01*
Y113901D01*
X690545D01*
Y114106D01*
X690135D01*
Y114311D01*
X688082D01*
Y114516D01*
D02*
G37*
G36*
X692188Y102199D02*
X691982D01*
Y101994D01*
X692188D01*
Y102199D01*
D02*
G37*
G36*
X673506D02*
X673301D01*
Y101994D01*
X673506D01*
Y102199D01*
D02*
G37*
G36*
X668374D02*
X668168D01*
Y101994D01*
X668374D01*
Y102199D01*
D02*
G37*
G36*
X693214Y101994D02*
X693009D01*
Y101788D01*
X693214D01*
Y101994D01*
D02*
G37*
G36*
X691161D02*
X690956D01*
Y101788D01*
X691161D01*
Y101994D01*
D02*
G37*
G36*
X668579Y101788D02*
X668374D01*
Y101583D01*
X668579D01*
Y101788D01*
D02*
G37*
G36*
X695267Y100146D02*
X695062D01*
Y99941D01*
X695267D01*
Y100146D01*
D02*
G37*
G36*
X695883Y99941D02*
X695677D01*
Y99735D01*
X695883D01*
Y99941D01*
D02*
G37*
G36*
X673506Y98298D02*
X673301D01*
Y98093D01*
X673506D01*
Y98298D01*
D02*
G37*
G36*
X672479D02*
X672069D01*
Y98093D01*
X672479D01*
Y98298D01*
D02*
G37*
G36*
X671864D02*
X671658D01*
Y98093D01*
X671864D01*
Y98298D01*
D02*
G37*
G36*
X672069Y97683D02*
X671864D01*
Y97477D01*
X672069D01*
Y97683D01*
D02*
G37*
G36*
X692393Y97477D02*
X692188D01*
Y97272D01*
X692393D01*
Y97477D01*
D02*
G37*
G36*
X689519Y96861D02*
X689313D01*
Y96656D01*
X689519D01*
Y96861D01*
D02*
G37*
G36*
X652361Y95424D02*
X652156D01*
Y95219D01*
X652361D01*
Y95424D01*
D02*
G37*
G36*
X652771Y91934D02*
X652566D01*
Y91729D01*
X652771D01*
Y91934D01*
D02*
G37*
G36*
X617461Y91318D02*
X617256D01*
Y91113D01*
X617461D01*
Y91318D01*
D02*
G37*
G36*
X609660Y96451D02*
X609455D01*
Y96245D01*
X609660D01*
Y96451D01*
D02*
G37*
G36*
X603707D02*
X603501D01*
Y96245D01*
X603707D01*
Y96040D01*
X603912D01*
Y96245D01*
X603707D01*
Y96451D01*
D02*
G37*
G36*
X610687Y96040D02*
X610481D01*
Y95835D01*
X610687D01*
Y96040D01*
D02*
G37*
G36*
X610892Y95630D02*
X610687D01*
Y95424D01*
X610892D01*
Y95630D01*
D02*
G37*
G36*
X604528Y95424D02*
X604323D01*
Y95219D01*
X604528D01*
Y95424D01*
D02*
G37*
G36*
X603707D02*
X603501D01*
Y95219D01*
X603707D01*
Y95424D01*
D02*
G37*
G36*
X675559Y89265D02*
X675353D01*
Y89060D01*
X675559D01*
Y89265D01*
D02*
G37*
G36*
X692393Y88855D02*
X692188D01*
Y88650D01*
X692393D01*
Y88855D01*
D02*
G37*
G36*
X673301D02*
X673095D01*
Y88650D01*
X673301D01*
Y88855D01*
D02*
G37*
G36*
X671864Y87829D02*
X671453D01*
Y87623D01*
X671864D01*
Y87829D01*
D02*
G37*
G36*
X670837D02*
X670632D01*
Y87623D01*
X670837D01*
Y87829D01*
D02*
G37*
G36*
X695062Y87418D02*
X694856D01*
Y87213D01*
X695062D01*
Y87418D01*
D02*
G37*
G36*
X694240Y87213D02*
X694035D01*
Y87007D01*
X694240D01*
Y87213D01*
D02*
G37*
G36*
X670221Y86186D02*
X670016D01*
Y85981D01*
X670221D01*
Y86186D01*
D02*
G37*
G36*
X696088Y85981D02*
X695883D01*
Y85775D01*
X696088D01*
Y85981D01*
D02*
G37*
G36*
X669811D02*
X669605D01*
Y85775D01*
X669811D01*
Y85981D01*
D02*
G37*
G36*
X691572Y85365D02*
X691366D01*
Y85160D01*
X691572D01*
Y85365D01*
D02*
G37*
G36*
X689929D02*
X689724D01*
Y85160D01*
X689929D01*
Y85365D01*
D02*
G37*
G36*
X688698Y85160D02*
X688492D01*
Y84954D01*
X688698D01*
Y85160D01*
D02*
G37*
G36*
X691161Y84749D02*
X690956D01*
Y84544D01*
X691161D01*
Y84749D01*
D02*
G37*
G36*
X689313Y84544D02*
X689108D01*
Y84339D01*
X689313D01*
Y84544D01*
D02*
G37*
G36*
X676380D02*
X676175D01*
Y84339D01*
X676380D01*
Y84544D01*
D02*
G37*
G36*
X675969D02*
X675764D01*
Y84339D01*
X675969D01*
Y84544D01*
D02*
G37*
G36*
X690545Y84339D02*
X690340D01*
Y84133D01*
X690545D01*
Y84339D01*
D02*
G37*
G36*
X691366Y84133D02*
X691161D01*
Y83928D01*
X691366D01*
Y84133D01*
D02*
G37*
G36*
X696909Y83928D02*
X696704D01*
Y83723D01*
X696909D01*
Y83928D01*
D02*
G37*
G36*
X673916Y84133D02*
X673711D01*
Y83723D01*
X673916D01*
Y84133D01*
D02*
G37*
G36*
X697114Y83312D02*
X696909D01*
Y83107D01*
X697114D01*
Y83312D01*
D02*
G37*
G36*
X672685D02*
X672479D01*
Y83107D01*
X672685D01*
Y83312D01*
D02*
G37*
G36*
X697114Y82901D02*
X696909D01*
Y82696D01*
X697114D01*
Y82901D01*
D02*
G37*
G36*
X692598D02*
X692393D01*
Y82696D01*
X692598D01*
Y82901D01*
D02*
G37*
G36*
X672069Y81259D02*
X671864D01*
Y81054D01*
X672069D01*
Y81259D01*
D02*
G37*
G36*
X697525Y80643D02*
X697320D01*
Y80438D01*
X697525D01*
Y80643D01*
D02*
G37*
G36*
X696704Y75511D02*
X696499D01*
Y75306D01*
X696704D01*
Y75511D01*
D02*
G37*
G36*
X668579D02*
X668374D01*
Y75306D01*
X668579D01*
Y75511D01*
D02*
G37*
G36*
X668374Y74485D02*
X668168D01*
Y74279D01*
X668374D01*
Y74485D01*
D02*
G37*
G36*
X697525Y74074D02*
X697320D01*
Y73869D01*
X697525D01*
Y74074D01*
D02*
G37*
G36*
X696704D02*
X696499D01*
Y73869D01*
X696704D01*
Y74074D01*
D02*
G37*
G36*
X696909Y72021D02*
X696704D01*
Y71610D01*
X696909D01*
Y72021D01*
D02*
G37*
G36*
X691572Y71610D02*
X691161D01*
Y71405D01*
X691572D01*
Y71610D01*
D02*
G37*
G36*
X690135Y84339D02*
X689929D01*
Y84133D01*
X674943D01*
Y83928D01*
X674327D01*
Y83723D01*
X674122D01*
Y83517D01*
X673711D01*
Y83312D01*
X673301D01*
Y83107D01*
X673095D01*
Y82901D01*
X672890D01*
Y82491D01*
X672685D01*
Y82080D01*
X672479D01*
Y81875D01*
X672274D01*
Y76537D01*
X671864D01*
Y76332D01*
X672274D01*
Y73869D01*
X672479D01*
Y73047D01*
X672890D01*
Y72637D01*
X673095D01*
Y72432D01*
X673506D01*
Y72226D01*
X673711D01*
Y72021D01*
X673916D01*
Y71816D01*
X674327D01*
Y71610D01*
X674532D01*
Y71816D01*
X674943D01*
Y71610D01*
X676380D01*
Y71405D01*
X688698D01*
Y71610D01*
X690135D01*
Y71816D01*
X690956D01*
Y72021D01*
X691366D01*
Y72226D01*
X691572D01*
Y72432D01*
X691982D01*
Y72637D01*
X692188D01*
Y73253D01*
X692393D01*
Y73458D01*
X692598D01*
Y73869D01*
X692803D01*
Y80643D01*
X693009D01*
Y80849D01*
X692803D01*
Y81670D01*
X692598D01*
Y82080D01*
X692393D01*
Y82491D01*
X692188D01*
Y82696D01*
X691982D01*
Y83312D01*
X691366D01*
Y83517D01*
X690956D01*
Y83723D01*
X690750D01*
Y83928D01*
X690135D01*
Y84339D01*
D02*
G37*
G36*
X690750Y71405D02*
X690545D01*
Y71200D01*
X690750D01*
Y71405D01*
D02*
G37*
G36*
X674532D02*
X674327D01*
Y71200D01*
X674532D01*
Y71405D01*
D02*
G37*
G36*
X676585Y70995D02*
X676380D01*
Y70789D01*
X676585D01*
Y70995D01*
D02*
G37*
G36*
X690135Y70789D02*
X689929D01*
Y70584D01*
X690135D01*
Y70789D01*
D02*
G37*
G36*
X668579D02*
X668374D01*
Y70584D01*
X668579D01*
Y70789D01*
D02*
G37*
G36*
X696293Y70379D02*
X696088D01*
Y70173D01*
X696293D01*
Y70379D01*
D02*
G37*
G36*
X669195D02*
X668989D01*
Y70173D01*
X669195D01*
Y70379D01*
D02*
G37*
G36*
X695472Y69352D02*
X695062D01*
Y69147D01*
X695472D01*
Y69352D01*
D02*
G37*
G36*
X669811D02*
X669605D01*
Y69147D01*
X669811D01*
Y69352D01*
D02*
G37*
G36*
X671658Y68736D02*
X671453D01*
Y68531D01*
X671658D01*
Y68736D01*
D02*
G37*
G36*
X671042D02*
X670837D01*
Y68531D01*
X671042D01*
Y68736D01*
D02*
G37*
G36*
X694035Y68531D02*
X693830D01*
Y68326D01*
X694035D01*
Y68531D01*
D02*
G37*
G36*
X671042Y67915D02*
X670837D01*
Y67710D01*
X671042D01*
Y67915D01*
D02*
G37*
G36*
X690750Y67299D02*
X690545D01*
Y67094D01*
X690750D01*
Y67299D01*
D02*
G37*
G36*
X676585D02*
X676380D01*
Y67094D01*
X676585D01*
Y67299D01*
D02*
G37*
G36*
X689519Y66889D02*
X689313D01*
Y66683D01*
X689519D01*
Y66889D01*
D02*
G37*
G36*
X675764D02*
X675559D01*
Y66683D01*
X675764D01*
Y66889D01*
D02*
G37*
G36*
X691572Y66683D02*
X691366D01*
Y66478D01*
X691572D01*
Y66683D01*
D02*
G37*
G36*
X688698D02*
X688492D01*
Y66478D01*
X688287D01*
Y66273D01*
X688698D01*
Y66683D01*
D02*
G37*
G36*
X676175D02*
X675969D01*
Y66273D01*
X676175D01*
Y66683D01*
D02*
G37*
G36*
X674943Y66478D02*
X674738D01*
Y66273D01*
X674943D01*
Y66478D01*
D02*
G37*
G36*
X674327D02*
X674122D01*
Y66273D01*
X674327D01*
Y66478D01*
D02*
G37*
G36*
X652361Y79822D02*
X652156D01*
Y79617D01*
X652361D01*
Y79822D01*
D02*
G37*
G36*
X603091Y79206D02*
X602886D01*
Y79001D01*
X603091D01*
Y79206D01*
D02*
G37*
G36*
X604528Y79001D02*
X604323D01*
Y78796D01*
X604528D01*
Y79001D01*
D02*
G37*
G36*
X604117D02*
X603912D01*
Y78796D01*
X604117D01*
Y79001D01*
D02*
G37*
G36*
X603707D02*
X603501D01*
Y78796D01*
X603707D01*
Y79001D01*
D02*
G37*
G36*
X652361Y75100D02*
X652156D01*
Y74895D01*
X652361D01*
Y75100D01*
D02*
G37*
G36*
Y74485D02*
X652156D01*
Y74279D01*
X652361D01*
Y74485D01*
D02*
G37*
G36*
X645791Y63604D02*
X645586D01*
Y63399D01*
X645791D01*
Y63604D01*
D02*
G37*
G36*
X644560Y63399D02*
X644354D01*
Y63193D01*
X644560D01*
Y63399D01*
D02*
G37*
G36*
X646613Y63193D02*
X646407D01*
Y62988D01*
X646613D01*
Y63193D01*
D02*
G37*
G36*
X645997D02*
X645791D01*
Y62988D01*
X645997D01*
Y63193D01*
D02*
G37*
G36*
X624236D02*
X624031D01*
Y62988D01*
X624236D01*
Y63193D01*
D02*
G37*
G36*
X647639Y62988D02*
X647434D01*
Y62783D01*
X647639D01*
Y62988D01*
D02*
G37*
G36*
X644970D02*
X644765D01*
Y62783D01*
X644970D01*
Y62988D01*
D02*
G37*
G36*
X647639Y62578D02*
X647434D01*
Y62372D01*
X647639D01*
Y62578D01*
D02*
G37*
G36*
X645997D02*
X645791D01*
Y62372D01*
X645997D01*
Y62578D01*
D02*
G37*
G36*
X644149D02*
X643944D01*
Y62372D01*
X644149D01*
Y62578D01*
D02*
G37*
G36*
X624236D02*
X624031D01*
Y62372D01*
X624236D01*
Y62578D01*
D02*
G37*
G36*
X649076Y61551D02*
X648871D01*
Y61346D01*
X649076D01*
Y61551D01*
D02*
G37*
G36*
X650924Y60114D02*
X650719D01*
Y59909D01*
X650924D01*
Y60114D01*
D02*
G37*
G36*
X618282Y59293D02*
X618077D01*
Y59088D01*
X618282D01*
Y59293D01*
D02*
G37*
G36*
X651540Y58677D02*
X651334D01*
Y58472D01*
X651540D01*
Y58677D01*
D02*
G37*
G36*
X651129Y58472D02*
X650924D01*
Y58266D01*
X651129D01*
Y58472D01*
D02*
G37*
G36*
X650719Y58061D02*
X650513D01*
Y57856D01*
X650719D01*
Y58061D01*
D02*
G37*
G36*
X645586Y57445D02*
X645381D01*
Y57240D01*
X645586D01*
Y57445D01*
D02*
G37*
G36*
X643123D02*
X626083D01*
Y57240D01*
X625673D01*
Y57445D01*
X625468D01*
Y57240D01*
X625262D01*
Y57035D01*
X624852D01*
Y56829D01*
X624441D01*
Y56624D01*
X624031D01*
Y56419D01*
X623620D01*
Y56008D01*
X623209D01*
Y55803D01*
X623004D01*
Y55392D01*
X622799D01*
Y54982D01*
X622593D01*
Y54571D01*
X622388D01*
Y54161D01*
X622183D01*
Y46154D01*
X621978D01*
Y45949D01*
X622388D01*
Y45333D01*
X622593D01*
Y44922D01*
X622799D01*
Y44512D01*
X623004D01*
Y44101D01*
X623209D01*
Y43896D01*
X623415D01*
Y43691D01*
X623620D01*
Y43485D01*
X623825D01*
Y43280D01*
X624031D01*
Y43075D01*
X624441D01*
Y42870D01*
X624852D01*
Y42459D01*
X625057D01*
Y42664D01*
X625262D01*
Y42459D01*
X625673D01*
Y42254D01*
X627931D01*
Y42048D01*
X646613D01*
Y42254D01*
X647229D01*
Y53750D01*
X647023D01*
Y54366D01*
X646818D01*
Y55187D01*
X646613D01*
Y55392D01*
X646407D01*
Y55598D01*
X646202D01*
Y56213D01*
X645997D01*
Y56008D01*
X645791D01*
Y56213D01*
X645586D01*
Y56419D01*
X645381D01*
Y56624D01*
X644765D01*
Y56829D01*
X644560D01*
Y57035D01*
X644149D01*
Y57240D01*
X643123D01*
Y57445D01*
D02*
G37*
G36*
X623004D02*
X622799D01*
Y57240D01*
X623004D01*
Y57445D01*
D02*
G37*
G36*
X617667D02*
X617461D01*
Y57240D01*
X617667D01*
Y57445D01*
D02*
G37*
G36*
X646202Y57240D02*
X645997D01*
Y57035D01*
X646202D01*
Y57240D01*
D02*
G37*
G36*
X646818Y57035D02*
X646613D01*
Y56829D01*
X646818D01*
Y57035D01*
D02*
G37*
G36*
X645791Y56829D02*
X645586D01*
Y56624D01*
X645791D01*
Y56829D01*
D02*
G37*
G36*
X646613Y56624D02*
X646407D01*
Y56419D01*
X646613D01*
Y56624D01*
D02*
G37*
G36*
X646202D02*
X645997D01*
Y56419D01*
X646202D01*
Y56624D01*
D02*
G37*
G36*
X617051D02*
X616845D01*
Y56419D01*
X617051D01*
Y56624D01*
D02*
G37*
G36*
X623415Y56419D02*
X623004D01*
Y56213D01*
X623415D01*
Y56419D01*
D02*
G37*
G36*
X652361Y55598D02*
X652156D01*
Y55392D01*
X652361D01*
Y55598D01*
D02*
G37*
G36*
X621362Y55392D02*
X621157D01*
Y55187D01*
X621362D01*
Y55392D01*
D02*
G37*
G36*
X622388Y54982D02*
X622183D01*
Y54776D01*
X622388D01*
Y54982D01*
D02*
G37*
G36*
X621772Y54571D02*
X621567D01*
Y54161D01*
X621772D01*
Y54571D01*
D02*
G37*
G36*
X617667Y54366D02*
X617461D01*
Y54161D01*
X617667D01*
Y54366D01*
D02*
G37*
G36*
X652361Y53750D02*
X652156D01*
Y53545D01*
X652361D01*
Y53750D01*
D02*
G37*
G36*
X652977Y53545D02*
X652771D01*
Y53339D01*
X652977D01*
Y53545D01*
D02*
G37*
G36*
X617256Y53339D02*
X617051D01*
Y53134D01*
X617256D01*
Y53339D01*
D02*
G37*
G36*
X652361Y52723D02*
X652156D01*
Y52518D01*
X652361D01*
Y52723D01*
D02*
G37*
G36*
X617461D02*
X617256D01*
Y52518D01*
X617461D01*
Y52723D01*
D02*
G37*
G36*
X621157Y52108D02*
X620951D01*
Y51902D01*
X621157D01*
Y52108D01*
D02*
G37*
G36*
X621772Y51697D02*
X621567D01*
Y51492D01*
X621772D01*
Y51287D01*
X621978D01*
Y51492D01*
X621772D01*
Y51697D01*
D02*
G37*
G36*
X621362Y51492D02*
X620951D01*
Y51287D01*
X621362D01*
Y51492D01*
D02*
G37*
G36*
X617051Y50671D02*
X616845D01*
Y50465D01*
X617051D01*
Y50671D01*
D02*
G37*
G36*
X617667Y49439D02*
X617461D01*
Y49234D01*
X617667D01*
Y49439D01*
D02*
G37*
G36*
X616845Y49234D02*
X616640D01*
Y49028D01*
X616845D01*
Y49234D01*
D02*
G37*
G36*
X621567Y49028D02*
X621362D01*
Y48823D01*
X621567D01*
Y49028D01*
D02*
G37*
G36*
X592005Y48823D02*
X591800D01*
Y48618D01*
X592005D01*
Y48823D01*
D02*
G37*
G36*
X621978Y48618D02*
X621772D01*
Y48412D01*
X621978D01*
Y48618D01*
D02*
G37*
G36*
X596521D02*
X596316D01*
Y48412D01*
X596521D01*
Y48618D01*
D02*
G37*
G36*
X591594Y48412D02*
X591389D01*
Y48207D01*
X591594D01*
Y48412D01*
D02*
G37*
G36*
X621362Y48207D02*
X621157D01*
Y48002D01*
X621362D01*
Y48207D01*
D02*
G37*
G36*
X597548D02*
X597343D01*
Y48002D01*
X597548D01*
Y48207D01*
D02*
G37*
G36*
X590568D02*
X590363D01*
Y48002D01*
X590568D01*
Y48207D01*
D02*
G37*
G36*
X617256Y48002D02*
X617051D01*
Y47797D01*
X617256D01*
Y48002D01*
D02*
G37*
G36*
X621978D02*
X621772D01*
Y47591D01*
X621978D01*
Y48002D01*
D02*
G37*
G36*
X598574Y47797D02*
X598369D01*
Y47591D01*
X598574D01*
Y47797D01*
D02*
G37*
G36*
X590568D02*
X590363D01*
Y47591D01*
X590568D01*
Y47797D01*
D02*
G37*
G36*
X589336Y47386D02*
X589131D01*
Y47181D01*
X589336D01*
Y47386D01*
D02*
G37*
G36*
X621157Y47181D02*
X620951D01*
Y46975D01*
X621157D01*
Y47181D01*
D02*
G37*
G36*
X617051D02*
X616845D01*
Y46975D01*
X617051D01*
Y47181D01*
D02*
G37*
G36*
X621772Y46975D02*
X621567D01*
Y46770D01*
X621772D01*
Y46565D01*
X621978D01*
Y46770D01*
X621772D01*
Y46975D01*
D02*
G37*
G36*
X621567Y46770D02*
X621362D01*
Y46565D01*
X621567D01*
Y46770D01*
D02*
G37*
G36*
X621157D02*
X620951D01*
Y46565D01*
X621157D01*
Y46770D01*
D02*
G37*
G36*
X587899Y46565D02*
X587694D01*
Y46360D01*
X587899D01*
Y46565D01*
D02*
G37*
G36*
X588720Y46360D02*
X588515D01*
Y46154D01*
X588720D01*
Y46360D01*
D02*
G37*
G36*
X617667Y46154D02*
X617461D01*
Y45949D01*
X617667D01*
Y46154D01*
D02*
G37*
G36*
X601654D02*
X601448D01*
Y45949D01*
X601654D01*
Y46154D01*
D02*
G37*
G36*
X600422D02*
X600217D01*
Y45949D01*
X600422D01*
Y46154D01*
D02*
G37*
G36*
X618693Y45744D02*
X618488D01*
Y45538D01*
X618693D01*
Y45744D01*
D02*
G37*
G36*
X593237D02*
X593031D01*
Y45538D01*
X593237D01*
Y45744D01*
D02*
G37*
G36*
X597753Y45538D02*
X597548D01*
Y45333D01*
X597753D01*
Y45538D01*
D02*
G37*
G36*
X596521D02*
X596316D01*
Y45333D01*
X596521D01*
Y45538D01*
D02*
G37*
G36*
X595700D02*
X595495D01*
Y45333D01*
X595700D01*
Y45538D01*
D02*
G37*
G36*
X594468D02*
X594263D01*
Y45333D01*
X594468D01*
Y45538D01*
D02*
G37*
G36*
X622388Y45333D02*
X622183D01*
Y45128D01*
X622388D01*
Y45333D01*
D02*
G37*
G36*
X619104D02*
X618898D01*
Y45128D01*
X619104D01*
Y45333D01*
D02*
G37*
G36*
X592005D02*
X591800D01*
Y45128D01*
X592005D01*
Y45333D01*
D02*
G37*
G36*
X621772Y45128D02*
X621567D01*
Y44922D01*
X621772D01*
Y45128D01*
D02*
G37*
G36*
X617872D02*
X617667D01*
Y44922D01*
X617872D01*
Y45128D01*
D02*
G37*
G36*
X622388Y44922D02*
X622183D01*
Y44717D01*
X622388D01*
Y44922D01*
D02*
G37*
G36*
X603091D02*
X602886D01*
Y44717D01*
X603091D01*
Y44922D01*
D02*
G37*
G36*
X597548Y45128D02*
X597343D01*
Y44717D01*
X597548D01*
Y45128D01*
D02*
G37*
G36*
X586257Y44922D02*
X586051D01*
Y44717D01*
X586257D01*
Y44922D01*
D02*
G37*
G36*
X592826Y45333D02*
X592621D01*
Y45128D01*
X592826D01*
Y44922D01*
X592621D01*
Y44717D01*
X592210D01*
Y44512D01*
X591800D01*
Y44717D01*
X591594D01*
Y44512D01*
X591800D01*
Y44307D01*
X591184D01*
Y44101D01*
X590568D01*
Y43691D01*
X590157D01*
Y43485D01*
X589952D01*
Y43280D01*
X589747D01*
Y43075D01*
X589542D01*
Y42870D01*
X589336D01*
Y42664D01*
X589131D01*
Y42254D01*
X588720D01*
Y42048D01*
X588515D01*
Y41432D01*
X588310D01*
Y41227D01*
X588104D01*
Y40817D01*
X587899D01*
Y39995D01*
X587694D01*
Y39380D01*
X587489D01*
Y37943D01*
X587283D01*
Y37737D01*
X587489D01*
Y36711D01*
X587283D01*
Y36505D01*
X587489D01*
Y36300D01*
X587694D01*
Y35684D01*
X587899D01*
Y34863D01*
X588104D01*
Y34453D01*
X588310D01*
Y34247D01*
X588515D01*
Y33837D01*
X588720D01*
Y33631D01*
X588515D01*
Y33426D01*
X589131D01*
Y33015D01*
X589336D01*
Y32810D01*
X589542D01*
Y32605D01*
X589747D01*
Y32400D01*
X589952D01*
Y32194D01*
X590157D01*
Y31989D01*
X590568D01*
Y31784D01*
X590773D01*
Y31578D01*
X590979D01*
Y31373D01*
X591800D01*
Y31168D01*
X592210D01*
Y30963D01*
X592621D01*
Y30757D01*
X593647D01*
Y30552D01*
X595700D01*
Y30757D01*
X595905D01*
Y30552D01*
X596111D01*
Y30757D01*
X596521D01*
Y30963D01*
X596932D01*
Y31168D01*
X597137D01*
Y30963D01*
X597343D01*
Y31373D01*
X598164D01*
Y31578D01*
X598369D01*
Y31784D01*
X598574D01*
Y31989D01*
X598985D01*
Y32194D01*
X599190D01*
Y32400D01*
X599395D01*
Y32605D01*
X599601D01*
Y32810D01*
X600011D01*
Y33221D01*
X600422D01*
Y33631D01*
X600627D01*
Y34042D01*
X600832D01*
Y34453D01*
X601038D01*
Y34863D01*
X601243D01*
Y35274D01*
X601448D01*
Y35890D01*
X601654D01*
Y37121D01*
X601859D01*
Y37327D01*
X601654D01*
Y39790D01*
X601448D01*
Y40406D01*
X601243D01*
Y40817D01*
X601038D01*
Y41022D01*
X601243D01*
Y41227D01*
X600832D01*
Y41638D01*
X600627D01*
Y42048D01*
X600422D01*
Y42459D01*
X600217D01*
Y42664D01*
X600011D01*
Y42870D01*
X599601D01*
Y43075D01*
X599395D01*
Y43280D01*
X599190D01*
Y43485D01*
X598985D01*
Y43691D01*
X598574D01*
Y43896D01*
X598369D01*
Y44101D01*
X598164D01*
Y44307D01*
X597343D01*
Y44512D01*
X596932D01*
Y44717D01*
X596521D01*
Y44922D01*
X593031D01*
Y45128D01*
X592826D01*
Y45333D01*
D02*
G37*
G36*
X618488Y44512D02*
X618282D01*
Y44307D01*
X618488D01*
Y44512D01*
D02*
G37*
G36*
X619514Y44307D02*
X619309D01*
Y44101D01*
X619514D01*
Y44307D01*
D02*
G37*
G36*
X601038D02*
X600832D01*
Y44101D01*
X601038D01*
Y44307D01*
D02*
G37*
G36*
X598780D02*
X598369D01*
Y44101D01*
X598780D01*
Y44307D01*
D02*
G37*
G36*
X589542D02*
X589336D01*
Y44101D01*
X589542D01*
Y44307D01*
D02*
G37*
G36*
X589131D02*
X588926D01*
Y44101D01*
X589131D01*
Y44307D01*
D02*
G37*
G36*
X599190Y44101D02*
X598985D01*
Y43896D01*
X599190D01*
Y44101D01*
D02*
G37*
G36*
X588310D02*
X588104D01*
Y43896D01*
X588310D01*
Y44101D01*
D02*
G37*
G36*
X603501D02*
X603296D01*
Y43896D01*
X603501D01*
Y43691D01*
X603707D01*
Y43896D01*
X603501D01*
Y44101D01*
D02*
G37*
G36*
X601038Y43896D02*
X600832D01*
Y43691D01*
X601038D01*
Y43896D01*
D02*
G37*
G36*
X599601Y43691D02*
X599395D01*
Y43485D01*
X599601D01*
Y43691D01*
D02*
G37*
G36*
X589747D02*
X589542D01*
Y43485D01*
X589747D01*
Y43691D01*
D02*
G37*
G36*
X589336D02*
X589131D01*
Y43485D01*
X589336D01*
Y43691D01*
D02*
G37*
G36*
X623415D02*
X623209D01*
Y43485D01*
X623415D01*
Y43280D01*
X623620D01*
Y43485D01*
X623415D01*
Y43691D01*
D02*
G37*
G36*
X601038Y43485D02*
X600832D01*
Y43280D01*
X601038D01*
Y43485D01*
D02*
G37*
G36*
X588515D02*
X588310D01*
Y43280D01*
X588515D01*
Y43485D01*
D02*
G37*
G36*
X585436D02*
X585230D01*
Y43280D01*
X585436D01*
Y43485D01*
D02*
G37*
G36*
X586257Y43280D02*
X586051D01*
Y43075D01*
X586257D01*
Y43280D01*
D02*
G37*
G36*
X623620Y43075D02*
X623415D01*
Y42870D01*
X623620D01*
Y43075D01*
D02*
G37*
G36*
X623209Y42870D02*
X623004D01*
Y42664D01*
X623209D01*
Y42870D01*
D02*
G37*
G36*
X601038D02*
X600627D01*
Y42664D01*
X601038D01*
Y42870D01*
D02*
G37*
G36*
X585230D02*
X585025D01*
Y42664D01*
X585230D01*
Y42870D01*
D02*
G37*
G36*
X584820Y42664D02*
X584614D01*
Y42459D01*
X584820D01*
Y42664D01*
D02*
G37*
G36*
X600832Y42254D02*
X600627D01*
Y42048D01*
X600832D01*
Y42254D01*
D02*
G37*
G36*
X584820D02*
X584614D01*
Y42048D01*
X584820D01*
Y42254D01*
D02*
G37*
G36*
X605554Y41843D02*
X605349D01*
Y41638D01*
X605554D01*
Y41843D01*
D02*
G37*
G36*
X601243Y42048D02*
X601038D01*
Y41638D01*
X601243D01*
Y42048D01*
D02*
G37*
G36*
X588310Y41843D02*
X588104D01*
Y41638D01*
X588310D01*
Y41843D01*
D02*
G37*
G36*
X647023Y41638D02*
X646818D01*
Y41432D01*
X647023D01*
Y41638D01*
D02*
G37*
G36*
X628547D02*
X628342D01*
Y41432D01*
X628547D01*
Y41638D01*
D02*
G37*
G36*
X627931D02*
X627726D01*
Y41432D01*
X627931D01*
Y41638D01*
D02*
G37*
G36*
X645997Y41227D02*
X645791D01*
Y41022D01*
X645997D01*
Y41227D01*
D02*
G37*
G36*
X605349D02*
X605144D01*
Y41022D01*
X605349D01*
Y41227D01*
D02*
G37*
G36*
X602886Y40817D02*
X602680D01*
Y40611D01*
X602886D01*
Y40817D01*
D02*
G37*
G36*
X587283Y40611D02*
X587078D01*
Y40406D01*
X587283D01*
Y40611D01*
D02*
G37*
G36*
X584204Y40406D02*
X583999D01*
Y40201D01*
X584204D01*
Y40406D01*
D02*
G37*
G36*
X587489Y39790D02*
X587283D01*
Y39585D01*
X587489D01*
Y39790D01*
D02*
G37*
G36*
X583999D02*
X583793D01*
Y39585D01*
X583999D01*
Y39790D01*
D02*
G37*
G36*
X584409Y39585D02*
X584204D01*
Y39380D01*
X584409D01*
Y39585D01*
D02*
G37*
G36*
X587283Y39380D02*
X587078D01*
Y39174D01*
X587283D01*
Y39380D01*
D02*
G37*
G36*
X586873Y39174D02*
X586667D01*
Y38969D01*
X586873D01*
Y39174D01*
D02*
G37*
G36*
X602270Y38764D02*
X602064D01*
Y38558D01*
X602270D01*
Y38764D01*
D02*
G37*
G36*
X602475Y38353D02*
X602270D01*
Y38148D01*
X602475D01*
Y38353D01*
D02*
G37*
G36*
X587078Y37532D02*
X586873D01*
Y37327D01*
X587078D01*
Y37532D01*
D02*
G37*
G36*
X602475Y37327D02*
X602270D01*
Y37121D01*
X602475D01*
Y37327D01*
D02*
G37*
G36*
X586873D02*
X586667D01*
Y37121D01*
X586873D01*
Y37327D01*
D02*
G37*
G36*
X587283Y36505D02*
X587078D01*
Y36300D01*
X587283D01*
Y36505D01*
D02*
G37*
G36*
X652361Y36300D02*
X652156D01*
Y36095D01*
X652361D01*
Y36300D01*
D02*
G37*
G36*
X602064Y35684D02*
X601859D01*
Y35479D01*
X602064D01*
Y35684D01*
D02*
G37*
G36*
X584409Y36095D02*
X584204D01*
Y35890D01*
X584409D01*
Y35684D01*
X584614D01*
Y35479D01*
X584820D01*
Y35684D01*
X584614D01*
Y35890D01*
X584409D01*
Y36095D01*
D02*
G37*
G36*
X612739Y35274D02*
X612534D01*
Y35068D01*
X612739D01*
Y35274D01*
D02*
G37*
G36*
X586667D02*
X586462D01*
Y35068D01*
X586667D01*
Y35274D01*
D02*
G37*
G36*
X587078Y35068D02*
X586873D01*
Y34863D01*
X587078D01*
Y35068D01*
D02*
G37*
G36*
X602064Y34863D02*
X601859D01*
Y34658D01*
X602064D01*
Y34863D01*
D02*
G37*
G36*
X609249Y34453D02*
X609044D01*
Y34247D01*
X609249D01*
Y34453D01*
D02*
G37*
G36*
X606991Y34042D02*
X606786D01*
Y33837D01*
X606991D01*
Y34042D01*
D02*
G37*
G36*
X588310Y33426D02*
X588104D01*
Y33221D01*
X588310D01*
Y33426D01*
D02*
G37*
G36*
X588926Y32810D02*
X588720D01*
Y32605D01*
X588926D01*
Y32810D01*
D02*
G37*
G36*
X599601Y32194D02*
X599395D01*
Y31989D01*
X599601D01*
Y32194D01*
D02*
G37*
G36*
X589131Y32400D02*
X588926D01*
Y32194D01*
X589131D01*
Y31989D01*
X589336D01*
Y32194D01*
X589131D01*
Y32400D01*
D02*
G37*
G36*
X586257Y32194D02*
X586051D01*
Y31989D01*
X586257D01*
Y32194D01*
D02*
G37*
G36*
X588926Y31989D02*
X588720D01*
Y31784D01*
X588926D01*
Y31989D01*
D02*
G37*
G36*
X589747D02*
X589542D01*
Y31784D01*
X589747D01*
Y31578D01*
X589952D01*
Y31784D01*
X589747D01*
Y31989D01*
D02*
G37*
G36*
X585436Y31784D02*
X585230D01*
Y31578D01*
X585436D01*
Y31784D01*
D02*
G37*
G36*
X602680Y31168D02*
X602475D01*
Y30963D01*
X602680D01*
Y31168D01*
D02*
G37*
G36*
X602064D02*
X601859D01*
Y30963D01*
X602064D01*
Y31168D01*
D02*
G37*
G36*
X586667Y30757D02*
X586257D01*
Y30552D01*
X586667D01*
Y30757D01*
D02*
G37*
G36*
X593237Y30552D02*
X593031D01*
Y30347D01*
X593237D01*
Y30552D01*
D02*
G37*
G36*
X597137Y30757D02*
X596932D01*
Y30141D01*
X597137D01*
Y30757D01*
D02*
G37*
G36*
X593031Y30347D02*
X592826D01*
Y30141D01*
X593031D01*
Y30347D01*
D02*
G37*
G36*
X601654Y30141D02*
X601448D01*
Y29936D01*
X601654D01*
Y30141D01*
D02*
G37*
G36*
X587283Y30347D02*
X587078D01*
Y30141D01*
X587283D01*
Y29936D01*
X587489D01*
Y30141D01*
X587283D01*
Y30347D01*
D02*
G37*
G36*
X595700Y29936D02*
X595495D01*
Y29731D01*
X595700D01*
Y29936D01*
D02*
G37*
G36*
X593031D02*
X592826D01*
Y29731D01*
X593031D01*
Y29936D01*
D02*
G37*
G36*
X593442Y29731D02*
X593237D01*
Y29525D01*
X593442D01*
Y29731D01*
D02*
G37*
G36*
X587694D02*
X587489D01*
Y29525D01*
X587694D01*
Y29731D01*
D02*
G37*
G36*
X589542Y29525D02*
X589336D01*
Y29320D01*
X589542D01*
Y29525D01*
D02*
G37*
G36*
X587283D02*
X587078D01*
Y29320D01*
X587283D01*
Y29525D01*
D02*
G37*
G36*
X588720Y29320D02*
X588515D01*
Y28910D01*
X588720D01*
Y29320D01*
D02*
G37*
G36*
X588926Y28704D02*
X588720D01*
Y28499D01*
X588926D01*
Y28704D01*
D02*
G37*
G36*
X599806Y28499D02*
X599601D01*
Y28294D01*
X599806D01*
Y28499D01*
D02*
G37*
G36*
X594674Y27883D02*
X594468D01*
Y27678D01*
X594674D01*
Y27883D01*
D02*
G37*
G36*
X592826D02*
X592621D01*
Y27678D01*
X592826D01*
Y27883D01*
D02*
G37*
G36*
X589952D02*
X589747D01*
Y27678D01*
X589952D01*
Y27883D01*
D02*
G37*
G36*
X597958Y27473D02*
X597753D01*
Y27267D01*
X597958D01*
Y27473D01*
D02*
G37*
G36*
X595700Y27267D02*
X595495D01*
Y27062D01*
X595700D01*
Y27267D01*
D02*
G37*
G36*
X594058D02*
X593853D01*
Y27062D01*
X594058D01*
Y27267D01*
D02*
G37*
G36*
X594468Y26857D02*
X594263D01*
Y26651D01*
X594468D01*
Y26857D01*
D02*
G37*
G36*
X593031D02*
X592621D01*
Y26651D01*
X593031D01*
Y26857D01*
D02*
G37*
G36*
X672890Y58472D02*
X672685D01*
Y58266D01*
X672890D01*
Y58472D01*
D02*
G37*
G36*
X673711Y58061D02*
X673506D01*
Y57856D01*
X673711D01*
Y58061D01*
D02*
G37*
G36*
X672479D02*
X672274D01*
Y57856D01*
X672479D01*
Y58061D01*
D02*
G37*
G36*
X672274Y57856D02*
X672069D01*
Y57650D01*
X672274D01*
Y57856D01*
D02*
G37*
G36*
X692803Y57650D02*
X692598D01*
Y57445D01*
X692803D01*
Y57650D01*
D02*
G37*
G36*
X673301D02*
X673095D01*
Y57445D01*
X673301D01*
Y57650D01*
D02*
G37*
G36*
X671864D02*
X671658D01*
Y57445D01*
X671864D01*
Y57650D01*
D02*
G37*
G36*
X669400Y56213D02*
X669195D01*
Y56008D01*
X669400D01*
Y56213D01*
D02*
G37*
G36*
X695677Y55187D02*
X695472D01*
Y54982D01*
X695677D01*
Y55187D01*
D02*
G37*
G36*
X696088Y54982D02*
X695883D01*
Y54776D01*
X696088D01*
Y54982D01*
D02*
G37*
G36*
X695062Y55187D02*
X694856D01*
Y54776D01*
X695062D01*
Y55187D01*
D02*
G37*
G36*
X695472Y54571D02*
X695267D01*
Y54366D01*
X695472D01*
Y54571D01*
D02*
G37*
G36*
X696909Y54161D02*
X696704D01*
Y53955D01*
X696909D01*
Y54161D01*
D02*
G37*
G36*
X691572D02*
X691366D01*
Y53955D01*
X691572D01*
Y54161D01*
D02*
G37*
G36*
X676175D02*
X675764D01*
Y53955D01*
X676175D01*
Y54161D01*
D02*
G37*
G36*
X673711D02*
X673506D01*
Y53955D01*
X673711D01*
Y54161D01*
D02*
G37*
G36*
X672069Y53955D02*
X671864D01*
Y53750D01*
X672069D01*
Y53955D01*
D02*
G37*
G36*
X668579D02*
X668374D01*
Y53750D01*
X668579D01*
Y53955D01*
D02*
G37*
G36*
X673916Y53750D02*
X673711D01*
Y53545D01*
X673916D01*
Y53750D01*
D02*
G37*
G36*
X667963D02*
X667758D01*
Y53545D01*
X667963D01*
Y53750D01*
D02*
G37*
G36*
X674943D02*
X674738D01*
Y53545D01*
X674943D01*
Y53339D01*
X674327D01*
Y53545D01*
X674122D01*
Y53134D01*
X673711D01*
Y52929D01*
X673506D01*
Y52723D01*
X673095D01*
Y52518D01*
X672890D01*
Y52313D01*
X672685D01*
Y51902D01*
X672479D01*
Y51697D01*
X672274D01*
Y51081D01*
X672069D01*
Y50260D01*
X671864D01*
Y44717D01*
X672069D01*
Y43896D01*
X672274D01*
Y43075D01*
X672479D01*
Y42870D01*
X672685D01*
Y42459D01*
X672890D01*
Y42254D01*
X673095D01*
Y42048D01*
X673301D01*
Y41843D01*
X673506D01*
Y41638D01*
X673916D01*
Y41432D01*
X674327D01*
Y41227D01*
X674738D01*
Y41022D01*
X675148D01*
Y40817D01*
X692803D01*
Y41022D01*
X693009D01*
Y41227D01*
X692803D01*
Y51081D01*
X692598D01*
Y51492D01*
X692393D01*
Y51902D01*
X692188D01*
Y52108D01*
X692393D01*
Y52313D01*
X691982D01*
Y52518D01*
X691572D01*
Y53134D01*
X690750D01*
Y53339D01*
X689929D01*
Y53545D01*
X674943D01*
Y53750D01*
D02*
G37*
G36*
X696909Y52723D02*
X696704D01*
Y52518D01*
X696909D01*
Y52723D01*
D02*
G37*
G36*
X693214Y52518D02*
X693009D01*
Y52313D01*
X693214D01*
Y52518D01*
D02*
G37*
G36*
X668374Y52108D02*
X668168D01*
Y51902D01*
X668374D01*
Y52108D01*
D02*
G37*
G36*
X667758Y51902D02*
X667552D01*
Y51697D01*
X667758D01*
Y51902D01*
D02*
G37*
G36*
X696909Y51697D02*
X696704D01*
Y51492D01*
X696909D01*
Y51697D01*
D02*
G37*
G36*
X697114Y49850D02*
X696704D01*
Y49644D01*
X697114D01*
Y49850D01*
D02*
G37*
G36*
X668374Y47591D02*
X668168D01*
Y47386D01*
X668374D01*
Y47591D01*
D02*
G37*
G36*
X667758Y47181D02*
X667552D01*
Y46975D01*
X667347D01*
Y46770D01*
X667758D01*
Y47181D01*
D02*
G37*
G36*
X667552Y46565D02*
X667347D01*
Y46360D01*
X667552D01*
Y46565D01*
D02*
G37*
G36*
X668579Y45128D02*
X668374D01*
Y44922D01*
X668579D01*
Y45128D01*
D02*
G37*
G36*
Y44512D02*
X668374D01*
Y44307D01*
X668579D01*
Y44512D01*
D02*
G37*
G36*
X668374Y44307D02*
X668168D01*
Y44101D01*
X668374D01*
Y44307D01*
D02*
G37*
G36*
X667963D02*
X667758D01*
Y44101D01*
X667963D01*
Y44307D01*
D02*
G37*
G36*
X672069Y42664D02*
X671864D01*
Y42459D01*
X672069D01*
Y42664D01*
D02*
G37*
G36*
X672890Y42254D02*
X672685D01*
Y42048D01*
X672890D01*
Y42254D01*
D02*
G37*
G36*
X670221Y42048D02*
X670016D01*
Y41843D01*
X670221D01*
Y42048D01*
D02*
G37*
G36*
X674327Y41227D02*
X674122D01*
Y41022D01*
X674327D01*
Y41227D01*
D02*
G37*
G36*
X692598Y40611D02*
X692393D01*
Y40406D01*
X692598D01*
Y40611D01*
D02*
G37*
G36*
X676380Y40201D02*
X676175D01*
Y39995D01*
X676380D01*
Y40201D01*
D02*
G37*
G36*
X675764Y39995D02*
X675559D01*
Y39790D01*
X675764D01*
Y39995D01*
D02*
G37*
G36*
X669195D02*
X668989D01*
Y39790D01*
X669195D01*
Y39995D01*
D02*
G37*
G36*
X692188Y39585D02*
X691982D01*
Y39380D01*
X692188D01*
Y39585D01*
D02*
G37*
G36*
X691777D02*
X691572D01*
Y39380D01*
X691777D01*
Y39585D01*
D02*
G37*
G36*
X656261Y36095D02*
X656056D01*
Y35890D01*
X656261D01*
Y36095D01*
D02*
G37*
G36*
X36346Y408412D02*
X31908D01*
Y393740D01*
X36318D01*
X36471Y393753D01*
X36651D01*
X36859Y393767D01*
X37081Y393781D01*
X37552Y393823D01*
X38052Y393892D01*
X38537Y393975D01*
X38759Y394031D01*
X38967Y394086D01*
X38981D01*
X39009Y394100D01*
X39078Y394128D01*
X39147Y394156D01*
X39244Y394183D01*
X39341Y394239D01*
X39591Y394350D01*
X39868Y394488D01*
X40160Y394655D01*
X40437Y394863D01*
X40700Y395085D01*
X40714Y395099D01*
X40742Y395126D01*
X40784Y395182D01*
X40853Y395251D01*
X40922Y395334D01*
X41006Y395445D01*
X41103Y395584D01*
X41214Y395723D01*
X41325Y395889D01*
X41435Y396069D01*
X41560Y396277D01*
X41671Y396485D01*
X41782Y396721D01*
X41893Y396971D01*
X42004Y397234D01*
X42101Y397512D01*
Y397526D01*
X42129Y397581D01*
X42143Y397664D01*
X42184Y397789D01*
X42226Y397928D01*
X42268Y398108D01*
X42309Y398316D01*
X42365Y398552D01*
X42406Y398801D01*
X42448Y399093D01*
X42490Y399398D01*
X42531Y399717D01*
X42573Y400064D01*
X42587Y400424D01*
X42614Y400812D01*
Y401215D01*
Y401228D01*
Y401242D01*
Y401284D01*
Y401353D01*
Y401423D01*
Y401506D01*
X42600Y401714D01*
X42587Y401964D01*
X42559Y402255D01*
X42531Y402574D01*
X42490Y402920D01*
X42434Y403281D01*
X42365Y403669D01*
X42295Y404044D01*
X42198Y404432D01*
X42073Y404807D01*
X41949Y405167D01*
X41796Y405514D01*
X41616Y405833D01*
X41602Y405847D01*
X41574Y405902D01*
X41519Y405985D01*
X41435Y406096D01*
X41338Y406221D01*
X41227Y406374D01*
X41103Y406540D01*
X40950Y406720D01*
X40784Y406901D01*
X40603Y407081D01*
X40395Y407261D01*
X40187Y407441D01*
X39966Y407608D01*
X39730Y407761D01*
X39480Y407899D01*
X39217Y408010D01*
X39203D01*
X39175Y408024D01*
X39106Y408052D01*
X39022Y408079D01*
X38911Y408107D01*
X38773Y408135D01*
X38606Y408176D01*
X38426Y408218D01*
X38204Y408246D01*
X37968Y408288D01*
X37691Y408315D01*
X37400Y408357D01*
X37067Y408371D01*
X36720Y408398D01*
X36346Y408412D01*
D02*
G37*
G36*
X57148Y408815D02*
X57024D01*
X56885Y408801D01*
X56705Y408787D01*
X56469Y408759D01*
X56192Y408717D01*
X55886Y408662D01*
X55567Y408579D01*
X55207Y408482D01*
X54832Y408357D01*
X54458Y408204D01*
X54056Y408038D01*
X53667Y407816D01*
X53279Y407566D01*
X52891Y407289D01*
X52516Y406956D01*
X52489Y406928D01*
X52433Y406873D01*
X52336Y406762D01*
X52211Y406595D01*
X52073Y406401D01*
X51906Y406138D01*
X51726Y405847D01*
X51546Y405500D01*
X51365Y405098D01*
X51185Y404640D01*
X51032Y404127D01*
X50880Y403572D01*
X50755Y402962D01*
X50700Y402629D01*
X50658Y402296D01*
X50616Y401936D01*
X50602Y401561D01*
X50575Y401187D01*
Y400785D01*
Y400771D01*
Y400743D01*
Y400701D01*
Y400632D01*
X50589Y400549D01*
Y400452D01*
Y400341D01*
X50602Y400216D01*
X50630Y399925D01*
X50672Y399578D01*
X50727Y399204D01*
X50810Y398801D01*
X50908Y398372D01*
X51032Y397928D01*
X51185Y397470D01*
X51365Y397012D01*
X51573Y396569D01*
X51823Y396125D01*
X52100Y395709D01*
X52433Y395321D01*
X52461Y395293D01*
X52516Y395237D01*
X52627Y395140D01*
X52766Y395015D01*
X52960Y394863D01*
X53168Y394696D01*
X53432Y394516D01*
X53723Y394336D01*
X54042Y394142D01*
X54402Y393961D01*
X54791Y393795D01*
X55207Y393642D01*
X55637Y393518D01*
X56108Y393420D01*
X56607Y393365D01*
X57121Y393337D01*
X57245D01*
X57315Y393351D01*
X57398D01*
X57592Y393365D01*
X57842Y393393D01*
X58119Y393448D01*
X58438Y393504D01*
X58785Y393587D01*
X59145Y393698D01*
X59534Y393823D01*
X59922Y393989D01*
X60310Y394183D01*
X60713Y394419D01*
X61101Y394683D01*
X61475Y395001D01*
X61836Y395348D01*
X61864Y395376D01*
X61919Y395445D01*
X62002Y395556D01*
X62127Y395723D01*
X62266Y395931D01*
X62418Y396180D01*
X62599Y396472D01*
X62765Y396818D01*
X62945Y397207D01*
X63112Y397623D01*
X63264Y398094D01*
X63403Y398607D01*
X63528Y399162D01*
X63611Y399758D01*
X63680Y400382D01*
X63694Y401062D01*
Y401090D01*
Y401159D01*
Y401284D01*
X63680Y401450D01*
X63667Y401658D01*
X63653Y401894D01*
X63625Y402158D01*
X63597Y402449D01*
X63556Y402754D01*
X63500Y403087D01*
X63431Y403420D01*
X63361Y403766D01*
X63264Y404113D01*
X63153Y404460D01*
X63029Y404807D01*
X62890Y405139D01*
X62876Y405153D01*
X62848Y405223D01*
X62807Y405306D01*
X62737Y405431D01*
X62654Y405569D01*
X62557Y405750D01*
X62446Y405930D01*
X62307Y406138D01*
X62155Y406346D01*
X61975Y406568D01*
X61794Y406790D01*
X61586Y407012D01*
X61350Y407234D01*
X61115Y407455D01*
X60851Y407649D01*
X60574Y407844D01*
X60560Y407858D01*
X60505Y407885D01*
X60421Y407927D01*
X60310Y407996D01*
X60158Y408066D01*
X59991Y408149D01*
X59797Y408246D01*
X59575Y408329D01*
X59326Y408426D01*
X59062Y408509D01*
X58785Y408593D01*
X58480Y408662D01*
X58175Y408731D01*
X57842Y408773D01*
X57495Y408801D01*
X57148Y408815D01*
D02*
G37*
G36*
X38038Y433743D02*
Y433715D01*
X38024Y433660D01*
X37996Y433563D01*
X37968Y433424D01*
X37927Y433258D01*
X37885Y433063D01*
X37830Y432841D01*
X37774Y432592D01*
X37691Y432314D01*
X37622Y432023D01*
X37538Y431732D01*
X37441Y431413D01*
X37233Y430747D01*
X36998Y430068D01*
X34890Y424437D01*
X41408D01*
X39397Y429749D01*
Y429763D01*
X39383Y429777D01*
X39355Y429860D01*
X39314Y429985D01*
X39244Y430151D01*
X39175Y430359D01*
X39078Y430595D01*
X38995Y430872D01*
X38884Y431163D01*
X38773Y431469D01*
X38662Y431787D01*
X38440Y432453D01*
X38218Y433119D01*
X38121Y433438D01*
X38038Y433743D01*
D02*
G37*
G36*
Y459143D02*
Y459115D01*
X38024Y459060D01*
X37996Y458963D01*
X37968Y458824D01*
X37927Y458658D01*
X37885Y458463D01*
X37830Y458242D01*
X37774Y457992D01*
X37691Y457715D01*
X37622Y457423D01*
X37538Y457132D01*
X37441Y456813D01*
X37233Y456147D01*
X36998Y455468D01*
X34890Y449837D01*
X41408D01*
X39397Y455149D01*
Y455163D01*
X39383Y455177D01*
X39355Y455260D01*
X39314Y455385D01*
X39244Y455551D01*
X39175Y455759D01*
X39078Y455995D01*
X38995Y456272D01*
X38884Y456563D01*
X38773Y456869D01*
X38662Y457188D01*
X38440Y457853D01*
X38218Y458519D01*
X38121Y458838D01*
X38038Y459143D01*
D02*
G37*
G36*
X36346Y357293D02*
X31908D01*
Y342621D01*
X36318D01*
X36471Y342634D01*
X36651D01*
X36859Y342648D01*
X37081Y342662D01*
X37552Y342704D01*
X38052Y342773D01*
X38537Y342856D01*
X38759Y342912D01*
X38967Y342967D01*
X38981D01*
X39009Y342981D01*
X39078Y343009D01*
X39147Y343037D01*
X39244Y343064D01*
X39341Y343120D01*
X39591Y343231D01*
X39868Y343369D01*
X40160Y343536D01*
X40437Y343744D01*
X40700Y343966D01*
X40714Y343980D01*
X40742Y344007D01*
X40784Y344063D01*
X40853Y344132D01*
X40922Y344215D01*
X41006Y344326D01*
X41103Y344465D01*
X41214Y344604D01*
X41325Y344770D01*
X41435Y344950D01*
X41560Y345159D01*
X41671Y345367D01*
X41782Y345602D01*
X41893Y345852D01*
X42004Y346115D01*
X42101Y346393D01*
Y346407D01*
X42129Y346462D01*
X42143Y346545D01*
X42184Y346670D01*
X42226Y346809D01*
X42268Y346989D01*
X42309Y347197D01*
X42365Y347433D01*
X42406Y347682D01*
X42448Y347974D01*
X42490Y348279D01*
X42531Y348598D01*
X42573Y348945D01*
X42587Y349305D01*
X42614Y349693D01*
Y350096D01*
Y350109D01*
Y350123D01*
Y350165D01*
Y350234D01*
Y350304D01*
Y350387D01*
X42600Y350595D01*
X42587Y350844D01*
X42559Y351136D01*
X42531Y351455D01*
X42490Y351801D01*
X42434Y352162D01*
X42365Y352550D01*
X42295Y352925D01*
X42198Y353313D01*
X42073Y353688D01*
X41949Y354048D01*
X41796Y354395D01*
X41616Y354714D01*
X41602Y354728D01*
X41574Y354783D01*
X41519Y354866D01*
X41435Y354977D01*
X41338Y355102D01*
X41227Y355255D01*
X41103Y355421D01*
X40950Y355601D01*
X40784Y355782D01*
X40603Y355962D01*
X40395Y356142D01*
X40187Y356323D01*
X39966Y356489D01*
X39730Y356642D01*
X39480Y356780D01*
X39217Y356891D01*
X39203D01*
X39175Y356905D01*
X39106Y356933D01*
X39022Y356960D01*
X38911Y356988D01*
X38773Y357016D01*
X38606Y357058D01*
X38426Y357099D01*
X38204Y357127D01*
X37968Y357169D01*
X37691Y357196D01*
X37400Y357238D01*
X37067Y357252D01*
X36720Y357279D01*
X36346Y357293D01*
D02*
G37*
G36*
Y382693D02*
X31908D01*
Y368021D01*
X36318D01*
X36471Y368034D01*
X36651D01*
X36859Y368048D01*
X37081Y368062D01*
X37552Y368104D01*
X38052Y368173D01*
X38537Y368256D01*
X38759Y368312D01*
X38967Y368367D01*
X38981D01*
X39009Y368381D01*
X39078Y368409D01*
X39147Y368437D01*
X39244Y368464D01*
X39341Y368520D01*
X39591Y368631D01*
X39868Y368769D01*
X40160Y368936D01*
X40437Y369144D01*
X40700Y369366D01*
X40714Y369380D01*
X40742Y369407D01*
X40784Y369463D01*
X40853Y369532D01*
X40922Y369615D01*
X41006Y369726D01*
X41103Y369865D01*
X41214Y370004D01*
X41325Y370170D01*
X41435Y370350D01*
X41560Y370559D01*
X41671Y370766D01*
X41782Y371002D01*
X41893Y371252D01*
X42004Y371515D01*
X42101Y371793D01*
Y371807D01*
X42129Y371862D01*
X42143Y371945D01*
X42184Y372070D01*
X42226Y372209D01*
X42268Y372389D01*
X42309Y372597D01*
X42365Y372833D01*
X42406Y373083D01*
X42448Y373374D01*
X42490Y373679D01*
X42531Y373998D01*
X42573Y374344D01*
X42587Y374705D01*
X42614Y375093D01*
Y375496D01*
Y375509D01*
Y375523D01*
Y375565D01*
Y375634D01*
Y375704D01*
Y375787D01*
X42600Y375995D01*
X42587Y376245D01*
X42559Y376536D01*
X42531Y376855D01*
X42490Y377201D01*
X42434Y377562D01*
X42365Y377950D01*
X42295Y378325D01*
X42198Y378713D01*
X42073Y379087D01*
X41949Y379448D01*
X41796Y379795D01*
X41616Y380114D01*
X41602Y380128D01*
X41574Y380183D01*
X41519Y380266D01*
X41435Y380377D01*
X41338Y380502D01*
X41227Y380655D01*
X41103Y380821D01*
X40950Y381001D01*
X40784Y381182D01*
X40603Y381362D01*
X40395Y381542D01*
X40187Y381722D01*
X39966Y381889D01*
X39730Y382042D01*
X39480Y382180D01*
X39217Y382291D01*
X39203D01*
X39175Y382305D01*
X39106Y382333D01*
X39022Y382360D01*
X38911Y382388D01*
X38773Y382416D01*
X38606Y382458D01*
X38426Y382499D01*
X38204Y382527D01*
X37968Y382569D01*
X37691Y382596D01*
X37400Y382638D01*
X37067Y382652D01*
X36720Y382679D01*
X36346Y382693D01*
D02*
G37*
G36*
X758940Y111538D02*
X755982D01*
Y101756D01*
X758922D01*
X759023Y101765D01*
X759144D01*
X759282Y101774D01*
X759430Y101783D01*
X759744Y101811D01*
X760077Y101857D01*
X760401Y101913D01*
X760549Y101950D01*
X760688Y101987D01*
X760697D01*
X760715Y101996D01*
X760761Y102015D01*
X760808Y102033D01*
X760872Y102051D01*
X760937Y102088D01*
X761104Y102163D01*
X761289Y102255D01*
X761483Y102366D01*
X761668Y102505D01*
X761843Y102653D01*
X761852Y102662D01*
X761871Y102680D01*
X761899Y102717D01*
X761945Y102763D01*
X761991Y102819D01*
X762047Y102893D01*
X762111Y102985D01*
X762185Y103078D01*
X762259Y103189D01*
X762333Y103309D01*
X762417Y103448D01*
X762490Y103586D01*
X762564Y103743D01*
X762638Y103910D01*
X762712Y104086D01*
X762777Y104270D01*
Y104280D01*
X762796Y104317D01*
X762805Y104372D01*
X762832Y104455D01*
X762860Y104548D01*
X762888Y104668D01*
X762916Y104807D01*
X762953Y104964D01*
X762980Y105130D01*
X763008Y105324D01*
X763036Y105528D01*
X763064Y105740D01*
X763091Y105972D01*
X763101Y106212D01*
X763119Y106471D01*
Y106739D01*
Y106748D01*
Y106757D01*
Y106785D01*
Y106832D01*
Y106878D01*
Y106933D01*
X763110Y107072D01*
X763101Y107238D01*
X763082Y107432D01*
X763064Y107645D01*
X763036Y107876D01*
X762999Y108117D01*
X762953Y108376D01*
X762906Y108625D01*
X762842Y108884D01*
X762759Y109134D01*
X762675Y109374D01*
X762574Y109605D01*
X762454Y109818D01*
X762444Y109827D01*
X762426Y109864D01*
X762389Y109920D01*
X762333Y109993D01*
X762269Y110077D01*
X762195Y110178D01*
X762111Y110289D01*
X762010Y110409D01*
X761899Y110530D01*
X761778Y110650D01*
X761640Y110770D01*
X761501Y110890D01*
X761353Y111001D01*
X761196Y111103D01*
X761030Y111195D01*
X760854Y111269D01*
X760845D01*
X760826Y111279D01*
X760780Y111297D01*
X760724Y111316D01*
X760651Y111334D01*
X760558Y111353D01*
X760447Y111380D01*
X760327Y111408D01*
X760179Y111426D01*
X760022Y111454D01*
X759837Y111473D01*
X759643Y111501D01*
X759421Y111510D01*
X759190Y111528D01*
X758940Y111538D01*
D02*
G37*
G36*
X772809Y111806D02*
X772725D01*
X772633Y111796D01*
X772513Y111787D01*
X772355Y111769D01*
X772171Y111741D01*
X771967Y111704D01*
X771755Y111648D01*
X771514Y111584D01*
X771264Y111501D01*
X771015Y111399D01*
X770747Y111288D01*
X770488Y111140D01*
X770229Y110974D01*
X769970Y110789D01*
X769721Y110567D01*
X769702Y110548D01*
X769665Y110511D01*
X769600Y110437D01*
X769517Y110326D01*
X769425Y110197D01*
X769314Y110021D01*
X769193Y109827D01*
X769073Y109596D01*
X768953Y109328D01*
X768833Y109023D01*
X768731Y108681D01*
X768630Y108311D01*
X768546Y107904D01*
X768509Y107682D01*
X768482Y107460D01*
X768454Y107220D01*
X768445Y106970D01*
X768426Y106721D01*
Y106452D01*
Y106443D01*
Y106425D01*
Y106397D01*
Y106351D01*
X768435Y106295D01*
Y106230D01*
Y106157D01*
X768445Y106073D01*
X768463Y105879D01*
X768491Y105648D01*
X768528Y105398D01*
X768583Y105130D01*
X768648Y104844D01*
X768731Y104548D01*
X768833Y104243D01*
X768953Y103938D01*
X769092Y103642D01*
X769258Y103346D01*
X769443Y103069D01*
X769665Y102810D01*
X769684Y102791D01*
X769721Y102754D01*
X769794Y102690D01*
X769887Y102606D01*
X770016Y102505D01*
X770155Y102394D01*
X770331Y102273D01*
X770525Y102153D01*
X770738Y102024D01*
X770978Y101904D01*
X771237Y101793D01*
X771514Y101691D01*
X771801Y101608D01*
X772115Y101543D01*
X772448Y101506D01*
X772790Y101488D01*
X772873D01*
X772919Y101497D01*
X772975D01*
X773104Y101506D01*
X773271Y101524D01*
X773456Y101561D01*
X773668Y101599D01*
X773900Y101654D01*
X774140Y101728D01*
X774399Y101811D01*
X774658Y101922D01*
X774917Y102051D01*
X775185Y102209D01*
X775443Y102384D01*
X775693Y102597D01*
X775934Y102828D01*
X775952Y102847D01*
X775989Y102893D01*
X776044Y102967D01*
X776128Y103078D01*
X776220Y103216D01*
X776322Y103383D01*
X776442Y103577D01*
X776553Y103808D01*
X776673Y104067D01*
X776784Y104344D01*
X776886Y104659D01*
X776978Y105001D01*
X777061Y105371D01*
X777117Y105768D01*
X777163Y106184D01*
X777172Y106637D01*
Y106656D01*
Y106702D01*
Y106785D01*
X777163Y106896D01*
X777154Y107035D01*
X777145Y107192D01*
X777126Y107368D01*
X777108Y107562D01*
X777080Y107765D01*
X777043Y107987D01*
X776997Y108209D01*
X776951Y108440D01*
X776886Y108671D01*
X776812Y108903D01*
X776729Y109134D01*
X776636Y109355D01*
X776627Y109365D01*
X776609Y109411D01*
X776581Y109466D01*
X776535Y109550D01*
X776479Y109642D01*
X776414Y109762D01*
X776340Y109882D01*
X776248Y110021D01*
X776146Y110160D01*
X776026Y110308D01*
X775906Y110456D01*
X775767Y110604D01*
X775610Y110752D01*
X775453Y110899D01*
X775277Y111029D01*
X775092Y111158D01*
X775083Y111168D01*
X775046Y111186D01*
X774990Y111214D01*
X774917Y111260D01*
X774815Y111306D01*
X774704Y111362D01*
X774574Y111426D01*
X774426Y111482D01*
X774260Y111547D01*
X774084Y111602D01*
X773900Y111658D01*
X773696Y111704D01*
X773493Y111750D01*
X773271Y111778D01*
X773040Y111796D01*
X772809Y111806D01*
D02*
G37*
G36*
X774297Y60738D02*
X771339D01*
Y50956D01*
X774279D01*
X774380Y50965D01*
X774501D01*
X774639Y50974D01*
X774787Y50983D01*
X775101Y51011D01*
X775434Y51057D01*
X775758Y51113D01*
X775906Y51150D01*
X776044Y51187D01*
X776054D01*
X776072Y51196D01*
X776118Y51214D01*
X776165Y51233D01*
X776229Y51252D01*
X776294Y51288D01*
X776461Y51363D01*
X776646Y51455D01*
X776840Y51566D01*
X777025Y51705D01*
X777200Y51852D01*
X777209Y51862D01*
X777228Y51880D01*
X777256Y51917D01*
X777302Y51963D01*
X777348Y52019D01*
X777404Y52093D01*
X777468Y52185D01*
X777542Y52278D01*
X777616Y52389D01*
X777690Y52509D01*
X777773Y52648D01*
X777847Y52786D01*
X777921Y52944D01*
X777995Y53110D01*
X778069Y53285D01*
X778134Y53471D01*
Y53480D01*
X778152Y53517D01*
X778162Y53572D01*
X778189Y53655D01*
X778217Y53748D01*
X778245Y53868D01*
X778273Y54007D01*
X778310Y54164D01*
X778337Y54330D01*
X778365Y54524D01*
X778393Y54728D01*
X778421Y54941D01*
X778448Y55172D01*
X778458Y55412D01*
X778476Y55671D01*
Y55939D01*
Y55948D01*
Y55957D01*
Y55985D01*
Y56031D01*
Y56078D01*
Y56133D01*
X778467Y56272D01*
X778458Y56438D01*
X778439Y56632D01*
X778421Y56845D01*
X778393Y57076D01*
X778356Y57317D01*
X778310Y57575D01*
X778263Y57825D01*
X778199Y58084D01*
X778115Y58334D01*
X778032Y58574D01*
X777931Y58805D01*
X777810Y59018D01*
X777801Y59027D01*
X777783Y59064D01*
X777746Y59120D01*
X777690Y59194D01*
X777626Y59277D01*
X777551Y59378D01*
X777468Y59489D01*
X777367Y59609D01*
X777256Y59730D01*
X777135Y59850D01*
X776997Y59970D01*
X776858Y60090D01*
X776710Y60201D01*
X776553Y60303D01*
X776387Y60395D01*
X776211Y60469D01*
X776202D01*
X776183Y60479D01*
X776137Y60497D01*
X776081Y60516D01*
X776008Y60534D01*
X775915Y60553D01*
X775804Y60580D01*
X775684Y60608D01*
X775536Y60627D01*
X775379Y60654D01*
X775194Y60673D01*
X775000Y60700D01*
X774778Y60710D01*
X774547Y60728D01*
X774297Y60738D01*
D02*
G37*
G36*
X38038Y484862D02*
Y484834D01*
X38024Y484779D01*
X37996Y484682D01*
X37968Y484543D01*
X37927Y484376D01*
X37885Y484182D01*
X37830Y483960D01*
X37774Y483711D01*
X37691Y483433D01*
X37622Y483142D01*
X37538Y482851D01*
X37441Y482532D01*
X37233Y481866D01*
X36998Y481187D01*
X34890Y475556D01*
X41408D01*
X39397Y480868D01*
Y480882D01*
X39383Y480896D01*
X39355Y480979D01*
X39314Y481104D01*
X39244Y481270D01*
X39175Y481478D01*
X39078Y481714D01*
X38995Y481991D01*
X38884Y482282D01*
X38773Y482588D01*
X38662Y482906D01*
X38440Y483572D01*
X38218Y484238D01*
X38121Y484557D01*
X38038Y484862D01*
D02*
G37*
G36*
X54611Y484987D02*
X54541D01*
X54458Y484973D01*
X54347Y484959D01*
X54208Y484945D01*
X54042Y484917D01*
X53875Y484876D01*
X53681Y484820D01*
X53473Y484737D01*
X53265Y484654D01*
X53043Y484543D01*
X52835Y484404D01*
X52613Y484252D01*
X52405Y484071D01*
X52211Y483849D01*
X52017Y483614D01*
X52003Y483600D01*
X51962Y483531D01*
X51906Y483420D01*
X51823Y483267D01*
X51740Y483059D01*
X51643Y482809D01*
X51532Y482504D01*
X51421Y482144D01*
X51351Y481950D01*
X51296Y481728D01*
X51241Y481506D01*
X51199Y481256D01*
X51143Y481007D01*
X51088Y480729D01*
X51046Y480438D01*
X51005Y480133D01*
X50963Y479814D01*
X50922Y479481D01*
X50894Y479134D01*
X50866Y478774D01*
X50838Y478385D01*
X50824Y477983D01*
X50810Y477567D01*
Y477137D01*
Y477123D01*
Y477082D01*
Y477026D01*
Y476929D01*
Y476818D01*
X50824Y476693D01*
Y476541D01*
Y476375D01*
X50838Y476194D01*
Y476000D01*
X50866Y475556D01*
X50908Y475085D01*
X50949Y474585D01*
X51005Y474058D01*
X51074Y473531D01*
X51171Y473004D01*
X51268Y472491D01*
X51393Y472006D01*
X51546Y471576D01*
X51629Y471368D01*
X51712Y471188D01*
X51809Y471007D01*
X51906Y470855D01*
X51920Y470841D01*
X51962Y470785D01*
X52017Y470716D01*
X52100Y470619D01*
X52211Y470494D01*
X52350Y470369D01*
X52489Y470217D01*
X52669Y470078D01*
X52849Y469939D01*
X53057Y469787D01*
X53279Y469662D01*
X53529Y469551D01*
X53778Y469440D01*
X54056Y469371D01*
X54347Y469315D01*
X54638Y469302D01*
X54708D01*
X54791Y469315D01*
X54902Y469329D01*
X55040Y469343D01*
X55207Y469385D01*
X55387Y469426D01*
X55581Y469496D01*
X55789Y469579D01*
X56011Y469676D01*
X56233Y469801D01*
X56469Y469953D01*
X56691Y470134D01*
X56926Y470342D01*
X57148Y470578D01*
X57356Y470855D01*
X57370Y470869D01*
X57398Y470938D01*
X57453Y471035D01*
X57537Y471174D01*
X57620Y471368D01*
X57703Y471604D01*
X57814Y471881D01*
X57911Y472228D01*
X57967Y472422D01*
X58008Y472630D01*
X58064Y472838D01*
X58119Y473074D01*
X58161Y473323D01*
X58202Y473587D01*
X58258Y473864D01*
X58299Y474169D01*
X58327Y474474D01*
X58369Y474807D01*
X58397Y475154D01*
X58424Y475515D01*
X58438Y475889D01*
X58452Y476291D01*
X58466Y476707D01*
Y477137D01*
Y477151D01*
Y477193D01*
Y477262D01*
Y477345D01*
Y477456D01*
Y477581D01*
X58452Y477734D01*
Y477900D01*
X58438Y478080D01*
Y478288D01*
X58410Y478718D01*
X58369Y479190D01*
X58327Y479703D01*
X58272Y480216D01*
X58202Y480743D01*
X58105Y481270D01*
X57994Y481783D01*
X57870Y482268D01*
X57717Y482699D01*
X57634Y482906D01*
X57551Y483087D01*
X57453Y483267D01*
X57356Y483420D01*
X57343Y483433D01*
X57301Y483489D01*
X57245Y483558D01*
X57162Y483669D01*
X57051Y483780D01*
X56926Y483919D01*
X56774Y484058D01*
X56607Y484210D01*
X56413Y484349D01*
X56205Y484487D01*
X55984Y484626D01*
X55734Y484737D01*
X55470Y484848D01*
X55207Y484917D01*
X54916Y484973D01*
X54611Y484987D01*
D02*
G37*
G36*
X758940Y136725D02*
X755982D01*
Y126943D01*
X758922D01*
X759023Y126952D01*
X759144D01*
X759282Y126961D01*
X759430Y126971D01*
X759744Y126999D01*
X760077Y127045D01*
X760401Y127100D01*
X760549Y127137D01*
X760688Y127174D01*
X760697D01*
X760715Y127183D01*
X760761Y127202D01*
X760808Y127220D01*
X760872Y127239D01*
X760937Y127276D01*
X761104Y127350D01*
X761289Y127442D01*
X761483Y127553D01*
X761668Y127692D01*
X761843Y127840D01*
X761852Y127849D01*
X761871Y127868D01*
X761899Y127905D01*
X761945Y127951D01*
X761991Y128006D01*
X762047Y128080D01*
X762111Y128173D01*
X762185Y128265D01*
X762259Y128376D01*
X762333Y128496D01*
X762417Y128635D01*
X762490Y128774D01*
X762564Y128931D01*
X762638Y129097D01*
X762712Y129273D01*
X762777Y129458D01*
Y129467D01*
X762796Y129504D01*
X762805Y129559D01*
X762832Y129643D01*
X762860Y129735D01*
X762888Y129855D01*
X762916Y129994D01*
X762953Y130151D01*
X762980Y130318D01*
X763008Y130512D01*
X763036Y130715D01*
X763064Y130928D01*
X763091Y131159D01*
X763101Y131399D01*
X763119Y131658D01*
Y131926D01*
Y131936D01*
Y131945D01*
Y131973D01*
Y132019D01*
Y132065D01*
Y132121D01*
X763110Y132259D01*
X763101Y132426D01*
X763082Y132620D01*
X763064Y132832D01*
X763036Y133064D01*
X762999Y133304D01*
X762953Y133563D01*
X762906Y133813D01*
X762842Y134071D01*
X762759Y134321D01*
X762675Y134561D01*
X762574Y134792D01*
X762454Y135005D01*
X762444Y135014D01*
X762426Y135051D01*
X762389Y135107D01*
X762333Y135181D01*
X762269Y135264D01*
X762195Y135366D01*
X762111Y135477D01*
X762010Y135597D01*
X761899Y135717D01*
X761778Y135837D01*
X761640Y135957D01*
X761501Y136078D01*
X761353Y136189D01*
X761196Y136290D01*
X761030Y136383D01*
X760854Y136457D01*
X760845D01*
X760826Y136466D01*
X760780Y136484D01*
X760724Y136503D01*
X760651Y136521D01*
X760558Y136540D01*
X760447Y136568D01*
X760327Y136595D01*
X760179Y136614D01*
X760022Y136642D01*
X759837Y136660D01*
X759643Y136688D01*
X759421Y136697D01*
X759190Y136716D01*
X758940Y136725D01*
D02*
G37*
%LPD*%
D10*
X121888Y290497D02*
G03*
X121991Y286594I-382J-1963D01*
G01*
X94328Y282184D02*
X122014D01*
X94328Y294884D02*
X121760D01*
X122014Y282184D02*
Y286571D01*
X121888Y290497D02*
Y294756D01*
X94328Y282184D02*
Y294884D01*
D11*
X797000Y980000D02*
G03*
X797000Y980000I-37000J0D01*
G01*
Y210000D02*
G03*
X797000Y210000I-37000J0D01*
G01*
X77000Y40000D02*
G03*
X77000Y40000I-37000J0D01*
G01*
Y980000D02*
G03*
X77000Y980000I-37000J0D01*
G01*
X408526Y27422D02*
Y36566D01*
X394302D02*
X408526D01*
X394302Y27422D02*
Y36566D01*
Y27422D02*
X408526D01*
Y14468D02*
Y23612D01*
X394302D02*
X408526D01*
X394302Y14468D02*
Y23612D01*
Y14468D02*
X408526D01*
X391000Y26406D02*
Y36820D01*
X370680D02*
X391000D01*
X370680Y26406D02*
Y36820D01*
Y26406D02*
X391000D01*
Y13452D02*
Y23866D01*
X370680D02*
X391000D01*
X370680Y13452D02*
Y23866D01*
Y13452D02*
X391000D01*
X156812Y28438D02*
Y37582D01*
Y28438D02*
X171036D01*
Y37582D01*
X156812D02*
X171036D01*
X174338Y28692D02*
Y37836D01*
Y28692D02*
X188562D01*
Y37836D01*
X174338D02*
X188562D01*
X129376Y258308D02*
Y267452D01*
X115152D02*
X129376D01*
X115152Y258308D02*
Y267452D01*
Y258308D02*
X129376D01*
X102710Y267254D02*
X111854D01*
X102710Y253030D02*
Y267254D01*
Y253030D02*
X111854D01*
Y267254D01*
X90518Y267198D02*
X99662D01*
X90518Y252974D02*
Y267198D01*
Y252974D02*
X99662D01*
Y267198D01*
X86962Y339588D02*
X97376D01*
Y359908D01*
X86962D02*
X97376D01*
X86962Y339588D02*
Y359908D01*
X88740Y466588D02*
X99154D01*
Y486908D01*
X88740D02*
X99154D01*
X88740Y466588D02*
Y486908D01*
X71214Y466588D02*
Y475732D01*
Y466588D02*
X85438D01*
Y475732D01*
X71214D02*
X85438D01*
X69436Y441188D02*
Y450332D01*
Y441188D02*
X83660D01*
Y450332D01*
X69436D02*
X83660D01*
X69436Y415788D02*
Y424932D01*
Y415788D02*
X83660D01*
Y424932D01*
X69436D02*
X83660D01*
X69436Y390388D02*
Y399532D01*
Y390388D02*
X83660D01*
Y399532D01*
X69436D02*
X83660D01*
X69436Y364988D02*
Y374132D01*
Y364988D02*
X83660D01*
Y374132D01*
X69436D02*
X83660D01*
X69436Y339588D02*
Y348732D01*
Y339588D02*
X83660D01*
Y348732D01*
X69436D02*
X83660D01*
X147414Y585968D02*
Y595112D01*
Y585968D02*
X161638D01*
Y595112D01*
X147414D02*
X161638D01*
X147414Y560568D02*
Y569712D01*
Y560568D02*
X161638D01*
Y569712D01*
X147414D02*
X161638D01*
X147414Y535168D02*
Y544312D01*
Y535168D02*
X161638D01*
Y544312D01*
X147414D02*
X161638D01*
X147414Y509768D02*
Y518912D01*
Y509768D02*
X161638D01*
Y518912D01*
X147414D02*
X161638D01*
X147414Y484368D02*
Y493512D01*
Y484368D02*
X161638D01*
Y493512D01*
X147414D02*
X161638D01*
X147414Y458968D02*
Y468112D01*
Y458968D02*
X161638D01*
Y468112D01*
X147414D02*
X161638D01*
X147414Y433568D02*
Y442712D01*
Y433568D02*
X161638D01*
Y442712D01*
X147414D02*
X161638D01*
X147414Y408168D02*
Y417312D01*
Y408168D02*
X161638D01*
Y417312D01*
X147414D02*
X161638D01*
X147414Y384038D02*
Y393182D01*
Y384038D02*
X161638D01*
Y393182D01*
X147414D02*
X161638D01*
X147414Y357368D02*
Y366512D01*
Y357368D02*
X161638D01*
Y366512D01*
X147414D02*
X161638D01*
X187038Y331968D02*
Y341112D01*
Y331968D02*
X201262D01*
Y341112D01*
X187038D02*
X201262D01*
X187038Y306568D02*
Y315712D01*
Y306568D02*
X201262D01*
Y315712D01*
X187038D02*
X201262D01*
X188308Y281168D02*
Y290312D01*
Y281168D02*
X202532D01*
Y290312D01*
X188308D02*
X202532D01*
X147414Y611368D02*
Y620512D01*
Y611368D02*
X161638D01*
Y620512D01*
X147414D02*
X161638D01*
X147414Y636768D02*
Y645912D01*
Y636768D02*
X161638D01*
Y645912D01*
X147414D02*
X161638D01*
X147414Y662168D02*
Y671312D01*
Y662168D02*
X161638D01*
Y671312D01*
X147414D02*
X161638D01*
X147414Y687568D02*
Y696712D01*
Y687568D02*
X161638D01*
Y696712D01*
X147414D02*
X161638D01*
X147414Y712968D02*
Y722112D01*
Y712968D02*
X161638D01*
Y722112D01*
X147414D02*
X161638D01*
X187038Y738368D02*
Y747512D01*
Y738368D02*
X201262D01*
Y747512D01*
X187038D02*
X201262D01*
X187038Y763768D02*
Y772912D01*
Y763768D02*
X201262D01*
Y772912D01*
X187038D02*
X201262D01*
X187038Y789168D02*
Y798312D01*
Y789168D02*
X201262D01*
Y798312D01*
X187038D02*
X201262D01*
X187038Y814568D02*
Y823712D01*
Y814568D02*
X201262D01*
Y823712D01*
X187038D02*
X201262D01*
X187038Y839968D02*
Y849112D01*
Y839968D02*
X201262D01*
Y849112D01*
X187038D02*
X201262D01*
X187038Y865368D02*
Y874512D01*
Y865368D02*
X201262D01*
Y874512D01*
X187038D02*
X201262D01*
X187038Y890768D02*
Y899912D01*
Y890768D02*
X201262D01*
Y899912D01*
X187038D02*
X201262D01*
X187038Y930768D02*
Y939912D01*
Y930768D02*
X201262D01*
Y939912D01*
X187038D02*
X201262D01*
X187038Y956168D02*
Y965312D01*
Y956168D02*
X201262D01*
Y965312D01*
X187038D02*
X201262D01*
X120998Y67300D02*
Y75682D01*
Y67300D02*
X135222D01*
Y75682D01*
X120998D02*
X135222D01*
X620870Y587500D02*
Y597914D01*
X600550D02*
X620870D01*
X600550Y587500D02*
Y597914D01*
Y587500D02*
X620870D01*
X239870Y458460D02*
Y468874D01*
Y458460D02*
X260190D01*
Y468874D01*
X239870D02*
X260190D01*
X620870Y562100D02*
Y572514D01*
X600550D02*
X620870D01*
X600550Y562100D02*
Y572514D01*
Y562100D02*
X620870D01*
X239870Y483860D02*
Y494274D01*
Y483860D02*
X260190D01*
Y494274D01*
X239870D02*
X260190D01*
X620870Y536700D02*
Y547114D01*
X600550D02*
X620870D01*
X600550Y536700D02*
Y547114D01*
Y536700D02*
X620870D01*
X239870Y509260D02*
Y519674D01*
Y509260D02*
X260190D01*
Y519674D01*
X239870D02*
X260190D01*
X86962Y364988D02*
X97376D01*
Y385308D01*
X86962D02*
X97376D01*
X86962Y364988D02*
Y385308D01*
X620870Y511300D02*
Y521714D01*
X600550D02*
X620870D01*
X600550Y511300D02*
Y521714D01*
Y511300D02*
X620870D01*
X239870Y534660D02*
Y545074D01*
Y534660D02*
X260190D01*
Y545074D01*
X239870D02*
X260190D01*
X86962Y390388D02*
X97376D01*
Y410708D01*
X86962D02*
X97376D01*
X86962Y390388D02*
Y410708D01*
X620870Y485900D02*
Y496314D01*
X600550D02*
X620870D01*
X600550Y485900D02*
Y496314D01*
Y485900D02*
X620870D01*
X239870Y560060D02*
Y570474D01*
Y560060D02*
X260190D01*
Y570474D01*
X239870D02*
X260190D01*
X86962Y415788D02*
X97376D01*
Y436108D01*
X86962D02*
X97376D01*
X86962Y415788D02*
Y436108D01*
X620870Y460500D02*
Y470914D01*
X600550D02*
X620870D01*
X600550Y460500D02*
Y470914D01*
Y460500D02*
X620870D01*
X239870Y585460D02*
Y595874D01*
Y585460D02*
X260190D01*
Y595874D01*
X239870D02*
X260190D01*
X86962Y441188D02*
X97376D01*
Y461508D01*
X86962D02*
X97376D01*
X86962Y441188D02*
Y461508D01*
X620870Y435100D02*
Y445514D01*
X600550D02*
X620870D01*
X600550Y435100D02*
Y445514D01*
Y435100D02*
X620870D01*
X239870Y610860D02*
Y621274D01*
Y610860D02*
X260190D01*
Y621274D01*
X239870D02*
X260190D01*
X620870Y409700D02*
Y420114D01*
X600550D02*
X620870D01*
X600550Y409700D02*
Y420114D01*
Y409700D02*
X620870D01*
X239870Y636260D02*
Y646674D01*
Y636260D02*
X260190D01*
Y646674D01*
X239870D02*
X260190D01*
X620870Y384300D02*
Y394714D01*
X600550D02*
X620870D01*
X600550Y384300D02*
Y394714D01*
Y384300D02*
X620870D01*
X239870Y661660D02*
Y672074D01*
Y661660D02*
X260190D01*
Y672074D01*
X239870D02*
X260190D01*
X621124Y866899D02*
Y877313D01*
X600804D02*
X621124D01*
X600804Y866899D02*
Y877313D01*
Y866899D02*
X621124D01*
X620870Y358900D02*
Y369314D01*
X600550D02*
X620870D01*
X600550Y358900D02*
Y369314D01*
Y358900D02*
X620870D01*
X239870Y687060D02*
Y697474D01*
Y687060D02*
X260190D01*
Y697474D01*
X239870D02*
X260190D01*
X621124Y841498D02*
Y851912D01*
X600804D02*
X621124D01*
X600804Y841498D02*
Y851912D01*
Y841498D02*
X621124D01*
X620870Y333500D02*
Y343914D01*
X600550D02*
X620870D01*
X600550Y333500D02*
Y343914D01*
Y333500D02*
X620870D01*
X239870Y712460D02*
Y722874D01*
Y712460D02*
X260190D01*
Y722874D01*
X239870D02*
X260190D01*
X621124Y816098D02*
Y826512D01*
X600804D02*
X621124D01*
X600804Y816098D02*
Y826512D01*
Y816098D02*
X621124D01*
X620870Y308100D02*
Y318514D01*
X600550D02*
X620870D01*
X600550Y308100D02*
Y318514D01*
Y308100D02*
X620870D01*
X239870Y737860D02*
Y748274D01*
Y737860D02*
X260190D01*
Y748274D01*
X239870D02*
X260190D01*
X621124Y790697D02*
Y801111D01*
X600804D02*
X621124D01*
X600804Y790697D02*
Y801111D01*
Y790697D02*
X621124D01*
X620870Y282700D02*
Y293114D01*
X600550D02*
X620870D01*
X600550Y282700D02*
Y293114D01*
Y282700D02*
X620870D01*
X239870Y763260D02*
Y773674D01*
Y763260D02*
X260190D01*
Y773674D01*
X239870D02*
X260190D01*
X621124Y765296D02*
Y775710D01*
X600804D02*
X621124D01*
X600804Y765296D02*
Y775710D01*
Y765296D02*
X621124D01*
X239870Y788660D02*
Y799074D01*
Y788660D02*
X260190D01*
Y799074D01*
X239870D02*
X260190D01*
X621124Y739895D02*
Y750310D01*
X600804D02*
X621124D01*
X600804Y739895D02*
Y750310D01*
Y739895D02*
X621124D01*
X239870Y306060D02*
Y316474D01*
Y306060D02*
X260190D01*
Y316474D01*
X239870D02*
X260190D01*
X239870Y814060D02*
Y824474D01*
Y814060D02*
X260190D01*
Y824474D01*
X239870D02*
X260190D01*
X621124Y714495D02*
Y724909D01*
X600804D02*
X621124D01*
X600804Y714495D02*
Y724909D01*
Y714495D02*
X621124D01*
X239870Y331460D02*
Y341874D01*
Y331460D02*
X260190D01*
Y341874D01*
X239870D02*
X260190D01*
X239870Y839460D02*
Y849874D01*
Y839460D02*
X260190D01*
Y849874D01*
X239870D02*
X260190D01*
X621124Y689094D02*
Y699508D01*
X600804D02*
X621124D01*
X600804Y689094D02*
Y699508D01*
Y689094D02*
X621124D01*
X239870Y356860D02*
Y367274D01*
Y356860D02*
X260190D01*
Y367274D01*
X239870D02*
X260190D01*
X239870Y864860D02*
Y875274D01*
Y864860D02*
X260190D01*
Y875274D01*
X239870D02*
X260190D01*
X621124Y663693D02*
Y674107D01*
X600804D02*
X621124D01*
X600804Y663693D02*
Y674107D01*
Y663693D02*
X621124D01*
X239870Y383530D02*
Y393944D01*
Y383530D02*
X260190D01*
Y393944D01*
X239870D02*
X260190D01*
X239870Y890260D02*
Y900674D01*
Y890260D02*
X260190D01*
Y900674D01*
X239870D02*
X260190D01*
X621124Y638293D02*
Y648707D01*
X600804D02*
X621124D01*
X600804Y638293D02*
Y648707D01*
Y638293D02*
X621124D01*
X239870Y407660D02*
Y418074D01*
Y407660D02*
X260190D01*
Y418074D01*
X239870D02*
X260190D01*
X239870Y930260D02*
Y940674D01*
Y930260D02*
X260190D01*
Y940674D01*
X239870D02*
X260190D01*
X621124Y612892D02*
Y623306D01*
X600804D02*
X621124D01*
X600804Y612892D02*
Y623306D01*
Y612892D02*
X621124D01*
X239870Y433060D02*
Y443474D01*
Y433060D02*
X260190D01*
Y443474D01*
X239870D02*
X260190D01*
X714596Y359662D02*
Y368806D01*
X700372D02*
X714596D01*
X700372Y359662D02*
Y368806D01*
Y359662D02*
X714596D01*
Y385033D02*
Y394177D01*
X700372D02*
X714596D01*
X700372Y385033D02*
Y394177D01*
Y385033D02*
X714596D01*
Y410404D02*
Y419548D01*
X700372D02*
X714596D01*
X700372Y410404D02*
Y419548D01*
Y410404D02*
X714596D01*
Y435775D02*
Y444919D01*
X700372D02*
X714596D01*
X700372Y435775D02*
Y444919D01*
Y435775D02*
X714596D01*
Y461146D02*
Y470290D01*
X700372D02*
X714596D01*
X700372Y461146D02*
Y470290D01*
Y461146D02*
X714596D01*
Y486516D02*
Y495660D01*
X700372D02*
X714596D01*
X700372Y486516D02*
Y495660D01*
Y486516D02*
X714596D01*
Y511887D02*
Y521031D01*
X700372D02*
X714596D01*
X700372Y511887D02*
Y521031D01*
Y511887D02*
X714596D01*
Y537258D02*
Y546402D01*
X700372D02*
X714596D01*
X700372Y537258D02*
Y546402D01*
Y537258D02*
X714596D01*
Y562629D02*
Y571773D01*
X700372D02*
X714596D01*
X700372Y562629D02*
Y571773D01*
Y562629D02*
X714596D01*
Y588000D02*
Y597144D01*
X700372D02*
X714596D01*
X700372Y588000D02*
Y597144D01*
Y588000D02*
X714596D01*
Y613654D02*
Y622798D01*
X700372D02*
X714596D01*
X700372Y613654D02*
Y622798D01*
Y613654D02*
X714596D01*
Y639055D02*
Y648199D01*
X700372D02*
X714596D01*
X700372Y639055D02*
Y648199D01*
Y639055D02*
X714596D01*
Y664455D02*
Y673599D01*
X700372D02*
X714596D01*
X700372Y664455D02*
Y673599D01*
Y664455D02*
X714596D01*
Y689856D02*
Y699000D01*
X700372D02*
X714596D01*
X700372Y689856D02*
Y699000D01*
Y689856D02*
X714596D01*
Y715257D02*
Y724401D01*
X700372D02*
X714596D01*
X700372Y715257D02*
Y724401D01*
Y715257D02*
X714596D01*
Y740658D02*
Y749801D01*
X700372D02*
X714596D01*
X700372Y740658D02*
Y749801D01*
Y740658D02*
X714596D01*
Y766058D02*
Y775202D01*
X700372D02*
X714596D01*
X700372Y766058D02*
Y775202D01*
Y766058D02*
X714596D01*
Y791459D02*
Y800603D01*
X700372D02*
X714596D01*
X700372Y791459D02*
Y800603D01*
Y791459D02*
X714596D01*
Y816860D02*
Y826004D01*
X700372D02*
X714596D01*
X700372Y816860D02*
Y826004D01*
Y816860D02*
X714596D01*
X666590Y283462D02*
Y292606D01*
X652366D02*
X666590D01*
X652366Y283462D02*
Y292606D01*
Y283462D02*
X666590D01*
Y308985D02*
Y318129D01*
X652366D02*
X666590D01*
X652366Y308985D02*
Y318129D01*
Y308985D02*
X666590D01*
Y334508D02*
Y343652D01*
X652366D02*
X666590D01*
X652366Y334508D02*
Y343652D01*
Y334508D02*
X666590D01*
Y842000D02*
Y851144D01*
X652366D02*
X666590D01*
X652366Y842000D02*
Y851144D01*
Y842000D02*
X666590D01*
Y867654D02*
Y876798D01*
X652366D02*
X666590D01*
X652366Y867654D02*
Y876798D01*
Y867654D02*
X666590D01*
Y893308D02*
Y902452D01*
X652366D02*
X666590D01*
X652366Y893308D02*
Y902452D01*
Y893308D02*
X666590D01*
X621124Y892300D02*
Y902714D01*
X600804D02*
X621124D01*
X600804Y892300D02*
Y902714D01*
Y892300D02*
X621124D01*
X239870Y280660D02*
Y291074D01*
Y280660D02*
X260190D01*
Y291074D01*
X239870D02*
X260190D01*
X239870Y955660D02*
Y966074D01*
Y955660D02*
X260190D01*
Y966074D01*
X239870D02*
X260190D01*
D12*
X191356Y82005D02*
G03*
X191356Y75655I0J-3175D01*
G01*
X101092Y931110D02*
X141732D01*
Y948890D01*
X101092D02*
X141732D01*
X101092Y931110D02*
Y948890D01*
X125222Y933650D02*
Y946350D01*
X163576Y205486D02*
X176276D01*
X161036Y229616D02*
X178816D01*
Y188976D02*
Y229616D01*
X161036Y188976D02*
X178816D01*
X161036D02*
Y229616D01*
X430784Y164592D02*
X471424D01*
Y182372D01*
X430784D02*
X471424D01*
X430784Y164592D02*
Y182372D01*
X454914Y167132D02*
Y179832D01*
X269908Y996940D02*
X589908D01*
X293398Y251450D02*
X589908Y251450D01*
X269908Y996940D02*
X269908Y252720D01*
X589908Y996940D02*
X639920D01*
X639920Y251450D01*
X219550D02*
X293398D01*
X219550Y996940D02*
X219550Y251450D01*
X234828Y996940D02*
X254828D01*
X589908Y251450D02*
Y996940D01*
Y251450D02*
X639920D01*
X219550Y996940D02*
X234828D01*
X254828D02*
X269908D01*
X175100Y353050D02*
X200500D01*
X175100Y505450D02*
X200500D01*
Y353050D02*
Y505450D01*
X175100Y353050D02*
Y505450D01*
X657700Y556250D02*
X683100D01*
Y353050D02*
Y556250D01*
X657700Y353050D02*
X683100D01*
X657700D02*
Y556250D01*
Y590540D02*
Y825490D01*
Y571490D02*
Y590540D01*
Y571490D02*
X683100D01*
Y825490D01*
X657700D02*
X683100D01*
X175100Y530850D02*
X200500D01*
X175100D02*
Y734050D01*
X200500D01*
Y530850D02*
Y734050D01*
X68928Y316474D02*
X89248D01*
Y280914D02*
Y316474D01*
X68928Y280914D02*
X89248D01*
X68928D02*
Y316474D01*
X265016Y54854D02*
Y75174D01*
X229456Y54854D02*
X265016D01*
X229456D02*
Y75174D01*
X265016D01*
X722089Y171156D02*
X732249D01*
X737329Y166076D01*
Y18756D02*
Y166076D01*
X706849Y18756D02*
Y171156D01*
Y18756D02*
X737329D01*
X706849Y171156D02*
X722089D01*
X122776Y491988D02*
X127856Y486908D01*
X102456Y491988D02*
X122776D01*
X102456Y334508D02*
Y491988D01*
Y334508D02*
X127856D01*
X127856Y486908D02*
X127856Y334508D01*
X115918Y60950D02*
X136238D01*
Y25390D02*
Y60950D01*
X115918Y25390D02*
X136238D01*
X115918D02*
Y60950D01*
X140556Y90480D02*
X191356D01*
X140556Y67180D02*
Y90480D01*
Y67180D02*
X191356D01*
Y75655D01*
Y82005D02*
Y90480D01*
X182466Y199888D02*
X202786D01*
Y164328D02*
Y199888D01*
X182466Y164328D02*
X202786D01*
X182466D02*
Y199888D01*
X260096Y209804D02*
Y230124D01*
X295656D01*
Y209804D02*
Y230124D01*
X260096Y209804D02*
X295656D01*
X312902Y110670D02*
Y189220D01*
X224630D02*
X312902D01*
X224630Y100320D02*
Y189220D01*
Y100320D02*
X302552D01*
X312902Y110670D01*
X120466Y713486D02*
X140786D01*
Y677926D02*
Y713486D01*
X120466Y677926D02*
X140786D01*
X120466D02*
Y713486D01*
X153256Y753964D02*
X173576D01*
X153256D02*
Y789524D01*
X173576D01*
Y753964D02*
Y789524D01*
X95344Y904738D02*
Y925058D01*
X130904D01*
Y904738D02*
Y925058D01*
X95344Y904738D02*
X130904D01*
X46830Y942228D02*
X67150D01*
Y906668D02*
Y942228D01*
X46830Y906668D02*
X67150D01*
X46830D02*
Y942228D01*
X56164Y794622D02*
X134714D01*
Y882894D01*
X45814D02*
X134714D01*
X45814Y804972D02*
Y882894D01*
Y804972D02*
X56164Y794622D01*
X534162Y92456D02*
X554482D01*
Y56896D02*
Y92456D01*
X534162Y56896D02*
X554482D01*
X534162D02*
Y92456D01*
X510888Y149342D02*
Y169662D01*
X475328Y149342D02*
X510888D01*
X475328D02*
Y169662D01*
X510888D01*
X434116Y39734D02*
X512666D01*
Y128006D01*
X423766D02*
X512666D01*
X423766Y50084D02*
Y128006D01*
Y50084D02*
X434116Y39734D01*
X381094Y141336D02*
X401414D01*
Y105776D02*
Y141336D01*
X381094Y105776D02*
X401414D01*
X381094D02*
Y141336D01*
D13*
X462881Y192267D02*
X461715Y193434D01*
X459382D01*
X458216Y192267D01*
Y187602D01*
X459382Y186436D01*
X461715D01*
X462881Y187602D01*
X465214Y192267D02*
X466380Y193434D01*
X468713D01*
X469879Y192267D01*
Y191101D01*
X468713Y189935D01*
X467546D01*
X468713D01*
X469879Y188769D01*
Y187602D01*
X468713Y186436D01*
X466380D01*
X465214Y187602D01*
X167225Y240781D02*
X166059Y241948D01*
X163726D01*
X162560Y240781D01*
Y236116D01*
X163726Y234950D01*
X166059D01*
X167225Y236116D01*
X174223Y234950D02*
X169558D01*
X174223Y239615D01*
Y240781D01*
X173057Y241948D01*
X170724D01*
X169558Y240781D01*
X151731Y938773D02*
X150565Y939940D01*
X148232D01*
X147066Y938773D01*
Y934108D01*
X148232Y932942D01*
X150565D01*
X151731Y934108D01*
X154064Y932942D02*
X156396D01*
X155230D01*
Y939940D01*
X154064Y938773D01*
D14*
X103471Y685789D02*
X102305Y686956D01*
X99972D01*
X98806Y685789D01*
Y681124D01*
X99972Y679958D01*
X102305D01*
X103471Y681124D01*
X105804Y679958D02*
X108136D01*
X106970D01*
Y686956D01*
X105804Y685789D01*
X116300Y686956D02*
X111635D01*
Y683457D01*
X113968Y684623D01*
X115134D01*
X116300Y683457D01*
Y681124D01*
X115134Y679958D01*
X112802D01*
X111635Y681124D01*
X132056Y293370D02*
X126224D01*
X125058Y292204D01*
Y289871D01*
X126224Y288705D01*
X132056D01*
Y281707D02*
Y286372D01*
X128557D01*
X129723Y284040D01*
Y282873D01*
X128557Y281707D01*
X126224D01*
X125058Y282873D01*
Y285206D01*
X126224Y286372D01*
X202578Y85344D02*
X196746D01*
X195580Y84178D01*
Y81845D01*
X196746Y80679D01*
X202578D01*
X195580Y74847D02*
X202578D01*
X199079Y78346D01*
Y73681D01*
X118764Y247650D02*
X125762D01*
Y244151D01*
X124595Y242985D01*
X122263D01*
X121097Y244151D01*
Y247650D01*
Y245317D02*
X118764Y242985D01*
X125762Y235987D02*
X124595Y238320D01*
X122263Y240652D01*
X119930D01*
X118764Y239486D01*
Y237153D01*
X119930Y235987D01*
X121097D01*
X122263Y237153D01*
Y240652D01*
X124595Y233654D02*
X125762Y232488D01*
Y230156D01*
X124595Y228989D01*
X123429D01*
X122263Y230156D01*
Y231322D01*
Y230156D01*
X121097Y228989D01*
X119930D01*
X118764Y230156D01*
Y232488D01*
X119930Y233654D01*
X151638Y17526D02*
Y24524D01*
X155137D01*
X156303Y23358D01*
Y21025D01*
X155137Y19859D01*
X151638D01*
X153971D02*
X156303Y17526D01*
X163301Y24524D02*
X160968Y23358D01*
X158636Y21025D01*
Y18692D01*
X159802Y17526D01*
X162135D01*
X163301Y18692D01*
Y19859D01*
X162135Y21025D01*
X158636D01*
X170299Y17526D02*
X165634D01*
X170299Y22191D01*
Y23358D01*
X169132Y24524D01*
X166800D01*
X165634Y23358D01*
X103124Y247650D02*
X110122D01*
Y244151D01*
X108955Y242985D01*
X106623D01*
X105457Y244151D01*
Y247650D01*
Y245317D02*
X103124Y242985D01*
X110122Y235987D02*
X108955Y238320D01*
X106623Y240652D01*
X104290D01*
X103124Y239486D01*
Y237153D01*
X104290Y235987D01*
X105457D01*
X106623Y237153D01*
Y240652D01*
X110122Y228989D02*
Y233654D01*
X106623D01*
X107789Y231322D01*
Y230156D01*
X106623Y228989D01*
X104290D01*
X103124Y230156D01*
Y232488D01*
X104290Y233654D01*
X175768Y17526D02*
Y24524D01*
X179267D01*
X180433Y23358D01*
Y21025D01*
X179267Y19859D01*
X175768D01*
X178101D02*
X180433Y17526D01*
X187431Y24524D02*
X185098Y23358D01*
X182766Y21025D01*
Y18692D01*
X183932Y17526D01*
X186265D01*
X187431Y18692D01*
Y19859D01*
X186265Y21025D01*
X182766D01*
X189764Y17526D02*
X192096D01*
X190930D01*
Y24524D01*
X189764Y23358D01*
X91440Y247650D02*
X98438D01*
Y244151D01*
X97271Y242985D01*
X94939D01*
X93773Y244151D01*
Y247650D01*
Y245317D02*
X91440Y242985D01*
X98438Y235987D02*
X97271Y238320D01*
X94939Y240652D01*
X92606D01*
X91440Y239486D01*
Y237153D01*
X92606Y235987D01*
X93773D01*
X94939Y237153D01*
Y240652D01*
X91440Y230156D02*
X98438D01*
X94939Y233654D01*
Y228989D01*
X237490Y270904D02*
Y263906D01*
X240989D01*
X242155Y265072D01*
Y269737D01*
X240989Y270904D01*
X237490D01*
X249153Y263906D02*
X244488D01*
X249153Y268571D01*
Y269737D01*
X247987Y270904D01*
X245654D01*
X244488Y269737D01*
X251486Y270904D02*
X256151D01*
Y269737D01*
X251486Y265072D01*
Y263906D01*
X97629Y31486D02*
X96463Y32652D01*
X94130D01*
X92964Y31486D01*
Y26820D01*
X94130Y25654D01*
X96463D01*
X97629Y26820D01*
X99962Y25654D02*
X102294D01*
X101128D01*
Y32652D01*
X99962Y31486D01*
X105793D02*
X106959Y32652D01*
X109292D01*
X110458Y31486D01*
Y30319D01*
X109292Y29153D01*
X108126D01*
X109292D01*
X110458Y27987D01*
Y26820D01*
X109292Y25654D01*
X106959D01*
X105793Y26820D01*
X124807Y84572D02*
X123641Y85738D01*
X121308D01*
X120142Y84572D01*
Y79906D01*
X121308Y78740D01*
X123641D01*
X124807Y79906D01*
X127140Y78740D02*
X129472D01*
X128306D01*
Y85738D01*
X127140Y84572D01*
X136470Y78740D02*
Y85738D01*
X132971Y82239D01*
X137636D01*
X74515Y275833D02*
X73349Y277000D01*
X71016D01*
X69850Y275833D01*
Y271168D01*
X71016Y270002D01*
X73349D01*
X74515Y271168D01*
X76848Y270002D02*
X79180D01*
X78014D01*
Y277000D01*
X76848Y275833D01*
X87344Y277000D02*
X85012Y275833D01*
X82679Y273501D01*
Y271168D01*
X83846Y270002D01*
X86178D01*
X87344Y271168D01*
Y272335D01*
X86178Y273501D01*
X82679D01*
X519523Y156707D02*
X518357Y157874D01*
X516024D01*
X514858Y156707D01*
Y152042D01*
X516024Y150876D01*
X518357D01*
X519523Y152042D01*
X521856Y150876D02*
X524188D01*
X523022D01*
Y157874D01*
X521856Y156707D01*
X532352Y150876D02*
X527687D01*
X532352Y155541D01*
Y156707D01*
X531186Y157874D01*
X528853D01*
X527687Y156707D01*
X370679Y112766D02*
X369513Y113932D01*
X367180D01*
X366014Y112766D01*
Y108100D01*
X367180Y106934D01*
X369513D01*
X370679Y108100D01*
X373012D02*
X374178Y106934D01*
X376511D01*
X377677Y108100D01*
Y112766D01*
X376511Y113932D01*
X374178D01*
X373012Y112766D01*
Y111599D01*
X374178Y110433D01*
X377677D01*
X542891Y50535D02*
X541725Y51702D01*
X539392D01*
X538226Y50535D01*
Y45870D01*
X539392Y44704D01*
X541725D01*
X542891Y45870D01*
X549889Y51702D02*
X547556Y50535D01*
X545224Y48203D01*
Y45870D01*
X546390Y44704D01*
X548723D01*
X549889Y45870D01*
Y47037D01*
X548723Y48203D01*
X545224D01*
X303623Y216651D02*
X302457Y217818D01*
X300124D01*
X298958Y216651D01*
Y211986D01*
X300124Y210820D01*
X302457D01*
X303623Y211986D01*
X305956Y210820D02*
X308288D01*
X307122D01*
Y217818D01*
X305956Y216651D01*
X311787Y210820D02*
X314120D01*
X312953D01*
Y217818D01*
X311787Y216651D01*
X217263Y62474D02*
X216097Y63640D01*
X213764D01*
X212598Y62474D01*
Y57808D01*
X213764Y56642D01*
X216097D01*
X217263Y57808D01*
X219596Y62474D02*
X220762Y63640D01*
X223095D01*
X224261Y62474D01*
Y61307D01*
X223095Y60141D01*
X224261Y58975D01*
Y57808D01*
X223095Y56642D01*
X220762D01*
X219596Y57808D01*
Y58975D01*
X220762Y60141D01*
X219596Y61307D01*
Y62474D01*
X220762Y60141D02*
X223095D01*
X188307Y209793D02*
X187141Y210960D01*
X184808D01*
X183642Y209793D01*
Y205128D01*
X184808Y203962D01*
X187141D01*
X188307Y205128D01*
X195305Y210960D02*
X190640D01*
Y207461D01*
X192972Y208627D01*
X194139D01*
X195305Y207461D01*
Y205128D01*
X194139Y203962D01*
X191806D01*
X190640Y205128D01*
X41645Y935389D02*
X42812Y936555D01*
Y938888D01*
X41645Y940054D01*
X36980D01*
X35814Y938888D01*
Y936555D01*
X36980Y935389D01*
X35814Y933056D02*
Y930724D01*
Y931890D01*
X42812D01*
X41645Y933056D01*
Y927225D02*
X42812Y926059D01*
Y923726D01*
X41645Y922560D01*
X36980D01*
X35814Y923726D01*
Y926059D01*
X36980Y927225D01*
X41645D01*
X142841Y760465D02*
X141675Y761632D01*
X139342D01*
X138176Y760465D01*
Y755800D01*
X139342Y754634D01*
X141675D01*
X142841Y755800D01*
X145174Y761632D02*
X149839D01*
Y760465D01*
X145174Y755800D01*
Y754634D01*
X139285Y911087D02*
X138119Y912254D01*
X135786D01*
X134620Y911087D01*
Y906422D01*
X135786Y905256D01*
X138119D01*
X139285Y906422D01*
X145117Y905256D02*
Y912254D01*
X141618Y908755D01*
X146283D01*
D15*
X369283Y31486D02*
D03*
Y18532D02*
D03*
X599153Y592580D02*
D03*
X261587Y463794D02*
D03*
X599153Y567180D02*
D03*
X261587Y489194D02*
D03*
X599153Y541780D02*
D03*
X261587Y514594D02*
D03*
X599153Y516380D02*
D03*
X261587Y539994D02*
D03*
X599153Y490980D02*
D03*
X261587Y565394D02*
D03*
X599153Y465580D02*
D03*
X261587Y590794D02*
D03*
X599153Y440180D02*
D03*
X261587Y616194D02*
D03*
X599153Y414780D02*
D03*
X261587Y641594D02*
D03*
X599153Y389380D02*
D03*
X261587Y666994D02*
D03*
X599407Y871979D02*
D03*
X599153Y363980D02*
D03*
X261587Y692394D02*
D03*
X599407Y846578D02*
D03*
X599153Y338580D02*
D03*
X261587Y717794D02*
D03*
X599407Y821178D02*
D03*
X599153Y313180D02*
D03*
X261587Y743194D02*
D03*
X599407Y795777D02*
D03*
X599153Y287780D02*
D03*
X261587Y768594D02*
D03*
X599407Y770376D02*
D03*
X261587Y793994D02*
D03*
X599407Y744976D02*
D03*
X261587Y311394D02*
D03*
Y819394D02*
D03*
X599407Y719575D02*
D03*
X261587Y336794D02*
D03*
Y844794D02*
D03*
X599407Y694174D02*
D03*
X261587Y362194D02*
D03*
Y870194D02*
D03*
X599407Y668773D02*
D03*
X261587Y388864D02*
D03*
Y895594D02*
D03*
X599407Y643373D02*
D03*
X261587Y412994D02*
D03*
Y935594D02*
D03*
X599407Y617972D02*
D03*
X261587Y438394D02*
D03*
X599407Y897380D02*
D03*
X261587Y285994D02*
D03*
Y960994D02*
D03*
D16*
X368648Y31486D02*
D03*
Y18532D02*
D03*
X598518Y592580D02*
D03*
X262222Y463794D02*
D03*
X598518Y567180D02*
D03*
X262222Y489194D02*
D03*
X598518Y541780D02*
D03*
X262222Y514594D02*
D03*
X598518Y516380D02*
D03*
X262222Y539994D02*
D03*
X598518Y490980D02*
D03*
X262222Y565394D02*
D03*
X598518Y465580D02*
D03*
X262222Y590794D02*
D03*
X598518Y440180D02*
D03*
X262222Y616194D02*
D03*
X598518Y414780D02*
D03*
X262222Y641594D02*
D03*
X598518Y389380D02*
D03*
X262222Y666994D02*
D03*
X598772Y871979D02*
D03*
X598518Y363980D02*
D03*
X262222Y692394D02*
D03*
X598772Y846578D02*
D03*
X598518Y338580D02*
D03*
X262222Y717794D02*
D03*
X598772Y821178D02*
D03*
X598518Y313180D02*
D03*
X262222Y743194D02*
D03*
X598772Y795777D02*
D03*
X598518Y287780D02*
D03*
X262222Y768594D02*
D03*
X598772Y770376D02*
D03*
X262222Y793994D02*
D03*
X598772Y744976D02*
D03*
X262222Y311394D02*
D03*
Y819394D02*
D03*
X598772Y719575D02*
D03*
X262222Y336794D02*
D03*
Y844794D02*
D03*
X598772Y694174D02*
D03*
X262222Y362194D02*
D03*
Y870194D02*
D03*
X598772Y668773D02*
D03*
X262222Y388864D02*
D03*
Y895594D02*
D03*
X598772Y643373D02*
D03*
X262222Y412994D02*
D03*
Y935594D02*
D03*
X598772Y617972D02*
D03*
X262222Y438394D02*
D03*
X598772Y897380D02*
D03*
X262222Y285994D02*
D03*
Y960994D02*
D03*
D17*
X92042Y361305D02*
D03*
X93820Y488305D02*
D03*
X92042Y386705D02*
D03*
Y412105D02*
D03*
Y437505D02*
D03*
Y462905D02*
D03*
D18*
Y361940D02*
D03*
X93820Y488940D02*
D03*
X92042Y387340D02*
D03*
Y412740D02*
D03*
Y438140D02*
D03*
Y463540D02*
D03*
M02*
