G04*
G04 #@! TF.GenerationSoftware,Altium Limited,Altium Designer,19.0.14 (431)*
G04*
G04 Layer_Physical_Order=4*
G04 Layer_Color=16711680*
%FSLAX44Y44*%
%MOMM*%
G71*
G01*
G75*
%ADD55C,0.3000*%
%ADD57C,0.8000*%
%ADD59R,1.6000X1.6000*%
%ADD60C,2.0000*%
%ADD61C,1.5000*%
%ADD62C,3.2000*%
%ADD63R,1.6000X1.6000*%
%ADD64C,1.6000*%
%ADD65C,0.6000*%
D55*
X501488Y45118D02*
X504324D01*
X485740Y60866D02*
X501488Y45118D01*
X506621Y51633D02*
X506636Y51618D01*
X513136Y35686D02*
Y68328D01*
X502044Y51633D02*
X506621D01*
X487811Y65866D02*
X502044Y51633D01*
X476278Y45136D02*
Y45948D01*
X468278Y45136D02*
Y45948D01*
X465970Y56636D02*
X474778Y47828D01*
Y47448D02*
Y47828D01*
Y47448D02*
X476278Y45948D01*
X468970Y61636D02*
X482778Y47828D01*
X476811Y60866D02*
X485740D01*
X471041Y66636D02*
X476811Y60866D01*
X478882Y65866D02*
X487811D01*
X473112Y71636D02*
X478882Y65866D01*
X480953Y70866D02*
X492216D01*
X475183Y76636D02*
X480953Y70866D01*
X484278Y45136D02*
Y45948D01*
X486850Y85424D02*
X495472Y76802D01*
X504662D01*
X715780Y331986D02*
Y578858D01*
X565658Y181864D02*
X715780Y331986D01*
X474472Y181864D02*
X565658D01*
X449674Y807118D02*
X670400Y586392D01*
Y584190D02*
Y586392D01*
Y609590D02*
X685048D01*
X715780Y578858D01*
X72486Y237642D02*
X185574Y124554D01*
X267154Y103190D02*
X364039D01*
X78072Y239127D02*
X187645Y129554D01*
X269449Y108190D02*
X366110D01*
X83914Y240356D02*
X189716Y134554D01*
X272159Y113190D02*
X368181D01*
X89756Y241585D02*
X191787Y139554D01*
X275007Y118190D02*
X370252D01*
X95090Y243322D02*
X193858Y144554D01*
X277078Y123190D02*
X373634D01*
X255715Y144554D02*
X277078Y123190D01*
X193858Y144554D02*
X255715D01*
X253643Y139554D02*
X275007Y118190D01*
X191787Y139554D02*
X253643D01*
X250795Y134554D02*
X272159Y113190D01*
X189716Y134554D02*
X250795D01*
X248085Y129554D02*
X269449Y108190D01*
X187645Y129554D02*
X248085D01*
X245790Y124554D02*
X267154Y103190D01*
X185574Y124554D02*
X245790D01*
X614680Y683006D02*
X616204D01*
X485568Y812118D02*
X614680Y683006D01*
X116922Y512826D02*
X241046D01*
X101848Y527900D02*
Y750008D01*
X118993Y517826D02*
X243117D01*
X106848Y529971D02*
Y746200D01*
X101848Y527900D02*
X116922Y512826D01*
X106848Y529971D02*
X118993Y517826D01*
X121064Y522826D02*
X245188D01*
X111848Y532042D02*
X121064Y522826D01*
X111848Y532042D02*
Y744129D01*
X128364Y814314D02*
X142404Y800274D01*
Y760543D02*
Y800274D01*
X137404Y762614D02*
Y794100D01*
X124810Y806694D02*
X137404Y794100D01*
X119220Y806694D02*
X124810D01*
X127404Y766757D02*
Y779630D01*
X107696Y799338D02*
X127404Y779630D01*
X100838Y799338D02*
X107696D01*
X243719Y119554D02*
X265083Y98190D01*
X182028Y119554D02*
X243719D01*
X67404Y234178D02*
X182028Y119554D01*
X241648Y114554D02*
X262128Y94074D01*
X178148Y114554D02*
X241648D01*
X145636Y147066D02*
X178148Y114554D01*
X736640Y133056D02*
X743204Y126492D01*
Y19812D02*
Y126492D01*
X735330Y11938D02*
X743204Y19812D01*
X767765Y306438D02*
Y772321D01*
X718914Y821173D02*
X767765Y772321D01*
X308356Y230632D02*
X337416Y201572D01*
X107696Y808736D02*
X132404Y784028D01*
X106848Y746200D02*
X127404Y766757D01*
X152404Y754280D02*
Y820542D01*
X147404Y758472D02*
Y812726D01*
X265083Y98190D02*
X361968D01*
X303356Y226488D02*
X334772Y195072D01*
X303356Y226488D02*
Y457587D01*
X243117Y517826D02*
X303356Y457587D01*
X245188Y522826D02*
X308356Y459658D01*
X111848Y744129D02*
X132404Y764685D01*
X308356Y230632D02*
Y459658D01*
X298196Y221234D02*
Y455676D01*
X241046Y512826D02*
X298196Y455676D01*
X371174Y142668D02*
X428418Y85424D01*
X261595Y61076D02*
X359632D01*
X262524Y53076D02*
X341724D01*
X25400Y124666D02*
X83334Y66732D01*
X248868D01*
X262524Y53076D01*
X504662Y76802D02*
X513136Y68328D01*
Y35686D02*
X520525Y28297D01*
X522117D01*
X529844Y20570D01*
X126120Y846826D02*
X152404Y820542D01*
X125570Y846826D02*
X126120D01*
X130642Y829488D02*
X147404Y812726D01*
X125632Y829488D02*
X130642D01*
X125058Y830062D02*
X125632Y829488D01*
X343865Y195123D02*
Y195172D01*
Y195123D02*
X343916Y195072D01*
X428418Y85424D02*
X486850D01*
X101848Y750008D02*
X120904Y769064D01*
Y769874D01*
X32258Y127000D02*
X87526Y71732D01*
X250939D01*
X261595Y61076D01*
X25400Y124666D02*
Y134874D01*
X337464Y201572D02*
X343865Y195172D01*
X301244Y82804D02*
X338836D01*
X288290Y69850D02*
X301244Y82804D01*
X260584Y69850D02*
X288290D01*
X254738Y75696D02*
X260584Y69850D01*
X254738Y75696D02*
Y75920D01*
X253238Y77420D02*
X254738Y75920D01*
X253238Y77420D02*
Y78232D01*
X452882Y160274D02*
X474472Y181864D01*
X19812Y147066D02*
X145636D01*
X12042Y107338D02*
Y669394D01*
Y107338D02*
X97282Y22098D01*
X12042Y669394D02*
X112776Y770128D01*
X527050Y351241D02*
Y633222D01*
X435864Y260055D02*
X527050Y351241D01*
X532384Y710184D02*
X536702Y705866D01*
X435864Y103378D02*
Y260055D01*
X440450Y802118D02*
X532384Y710184D01*
X98806Y855980D02*
X138684D01*
X192546Y802118D01*
X57346Y814520D02*
X98806Y855980D01*
X192546Y802118D02*
X440450D01*
X49422Y814520D02*
X57346D01*
X442468Y98552D02*
Y259588D01*
X380586Y68570D02*
Y68824D01*
X374998Y74412D02*
X380586Y68824D01*
X302862Y74412D02*
X374998D01*
X536702Y353822D02*
Y705866D01*
X442468Y259588D02*
X536702Y353822D01*
X429260Y109220D02*
Y262382D01*
X429514Y262636D01*
Y274828D01*
X324104Y155702D02*
X332138Y147668D01*
X324104Y155702D02*
Y195326D01*
X332138Y147668D02*
X374048D01*
X431292Y90424D01*
X316818Y142668D02*
X371174D01*
X431292Y90424D02*
X505592D01*
X522986Y73030D01*
Y35028D02*
Y73030D01*
X427554Y76636D02*
X475183D01*
X425188Y71636D02*
X473112D01*
X421806Y66636D02*
X471041D01*
X419735Y61636D02*
X468970D01*
X417664Y56636D02*
X465970D01*
X462970Y51636D02*
X466778Y47828D01*
X415593Y51636D02*
X462970D01*
X364039Y103190D02*
X415593Y51636D01*
X366110Y108190D02*
X417664Y56636D01*
X368181Y113190D02*
X419735Y61636D01*
X370252Y118190D02*
X421806Y66636D01*
X373634Y123190D02*
X425188Y71636D01*
X366522Y137668D02*
X427554Y76636D01*
X310388Y149098D02*
Y176784D01*
Y149098D02*
X316818Y142668D01*
X415022Y45136D02*
X460278D01*
X361968Y98190D02*
X415022Y45136D01*
X275590Y137668D02*
X366522D01*
X506898Y161788D02*
X572610D01*
X469778Y124668D02*
X506898Y161788D01*
X670400Y584190D02*
X671365Y585155D01*
X466778Y47448D02*
Y47828D01*
Y47448D02*
X468278Y45948D01*
X482778Y47448D02*
Y47828D01*
X508508Y11938D02*
X735330D01*
X498348Y22098D02*
X508508Y11938D01*
X97282Y22098D02*
X498348D01*
X504324Y45118D02*
X505824Y43618D01*
X506636D01*
X482778Y47448D02*
X484278Y45948D01*
X236474Y176784D02*
X275590Y137668D01*
X718914Y133056D02*
X736640D01*
X142334Y744210D02*
X152404Y754280D01*
X135730Y746798D02*
X147404Y758472D01*
X128110Y746249D02*
X142404Y760543D01*
X119220Y744430D02*
X137404Y762614D01*
X132404Y764685D02*
Y784028D01*
X135730Y738114D02*
Y746798D01*
X128110Y732018D02*
Y746249D01*
X119220Y732272D02*
Y744430D01*
X112014Y313182D02*
X164582Y365750D01*
X112014Y288290D02*
Y313182D01*
X101346Y286512D02*
X101600Y286258D01*
X95090Y243322D02*
Y440426D01*
X89756Y241585D02*
Y420360D01*
X83914Y240356D02*
Y401818D01*
X164582Y365750D02*
X187800D01*
X108966Y388620D02*
X180043D01*
X180277Y388854D01*
X185504D01*
X187800Y391150D01*
X101346Y381000D02*
X108966Y388620D01*
X101346Y286512D02*
Y381000D01*
X262128Y77978D02*
Y94074D01*
X298196Y221234D02*
X324104Y195326D01*
X337416Y201572D02*
X337464D01*
X116758Y402150D02*
X282702D01*
X635403Y496814D02*
X636110D01*
X632853Y499364D02*
X635403Y496814D01*
X584200Y499364D02*
X632853D01*
X282702Y402150D02*
X282956D01*
X116758Y376750D02*
X281686D01*
X500380Y120396D02*
Y120650D01*
Y120396D02*
X530098Y90678D01*
X562815D01*
X579793Y107656D01*
X722089D01*
X140755Y860980D02*
X194617Y807118D01*
X142826Y865980D02*
X196688Y812118D01*
X194617Y807118D02*
X449674D01*
X196688Y812118D02*
X485568D01*
X491998Y817118D02*
X648726Y660390D01*
X198759Y817118D02*
X491998D01*
X144897Y870980D02*
X198759Y817118D01*
X648726Y660390D02*
X670400D01*
X92593Y870980D02*
X144897D01*
X60133Y838520D02*
X92593Y870980D01*
X49422Y838520D02*
X60133D01*
X94664Y865980D02*
X142826D01*
X59204Y830520D02*
X94664Y865980D01*
X49422Y830520D02*
X59204D01*
X96735Y860980D02*
X140755D01*
X58275Y822520D02*
X96735Y860980D01*
X49422Y822520D02*
X58275D01*
X172930Y78232D02*
X253238D01*
X159606Y91556D02*
X172930Y78232D01*
X89756Y878322D02*
Y878878D01*
X95446Y884568D01*
X180788D01*
X182924Y886704D01*
X183736D01*
X98392Y876544D02*
X183736D01*
X98138Y876290D02*
X98392Y876544D01*
X98138Y876290D02*
Y878068D01*
X64356Y445760D02*
X89756Y420360D01*
X65372D02*
X83914Y401818D01*
X78072Y239127D02*
Y382260D01*
X65372Y394960D02*
X78072Y382260D01*
X65372Y369560D02*
X72486Y362446D01*
Y237642D02*
Y362446D01*
X65372Y343348D02*
X67404Y341316D01*
X65372Y343348D02*
Y344160D01*
X67404Y234178D02*
Y341316D01*
X115156Y476748D02*
X153510D01*
X169512Y492750D02*
X187800D01*
X153510Y476748D02*
X169512Y492750D01*
X115156Y451348D02*
X153510D01*
X169512Y467350D02*
X187800D01*
X153510Y451348D02*
X169512Y467350D01*
X153510Y425948D02*
X169512Y441950D01*
X187800D01*
X115156Y425948D02*
X153510D01*
X115156Y400548D02*
X116758Y402150D01*
X115156Y375148D02*
X116758Y376750D01*
X64356Y471160D02*
X95090Y440426D01*
X537812Y99178D02*
X560505D01*
X767765Y306438D01*
X537050Y107432D02*
X561688D01*
X762765Y308509D02*
Y751921D01*
X561688Y107432D02*
X762765Y308509D01*
X718914Y795772D02*
X762765Y751921D01*
X755308Y710174D02*
X755308Y314045D01*
X754800Y734232D02*
X755308Y710174D01*
X718914Y770118D02*
X754800Y734232D01*
X537812Y115306D02*
X559767D01*
X537050D02*
X537812D01*
X559767D02*
X754800Y310340D01*
X755308Y314045D01*
X537812Y123556D02*
X560153D01*
X560275Y123434D01*
X536796Y107178D02*
X537050Y107432D01*
X748795Y715345D02*
X748795Y312827D01*
X718914Y745226D02*
X748795Y715345D01*
X748795Y311955D02*
Y312827D01*
X560275Y123434D02*
X748795Y311955D01*
X742790Y695696D02*
X742790Y314442D01*
X566768Y138420D02*
X742790Y314442D01*
X519270Y138420D02*
X566768D01*
X736785Y676301D02*
X736785Y319776D01*
Y316565D02*
Y319776D01*
X573372Y153152D02*
X736785Y316565D01*
X509110Y153152D02*
X573372D01*
X572610Y161788D02*
X655160Y244338D01*
X570578Y168392D02*
X725780Y323594D01*
X505502Y168392D02*
X570578D01*
X461778Y124668D02*
X505502Y168392D01*
X503776Y174996D02*
X567530D01*
X453778Y124998D02*
X503776Y174996D01*
X453778Y124288D02*
Y124998D01*
X452278Y122788D02*
X453778Y124288D01*
X452278Y121976D02*
Y122788D01*
X461778Y124288D02*
Y124668D01*
X460278Y122788D02*
X461778Y124288D01*
X460278Y121976D02*
Y122788D01*
X655160Y244338D02*
X730780Y319958D01*
X469778Y124288D02*
Y124668D01*
X468278Y122788D02*
X469778Y124288D01*
X468278Y121976D02*
Y122788D01*
X476278Y121976D02*
X476786D01*
X477360Y121402D01*
X509110Y153152D01*
X730780Y319958D02*
Y656906D01*
X725780Y323594D02*
Y636506D01*
X720780Y328246D02*
Y616360D01*
X719168Y617972D02*
X720780Y616360D01*
X567530Y174996D02*
X720780Y328246D01*
X718914Y643372D02*
X725780Y636506D01*
X718914Y668772D02*
X730780Y656906D01*
X718914Y694172D02*
X736785Y676301D01*
X719168Y719318D02*
X742790Y695696D01*
X359632Y61076D02*
X359758Y60950D01*
X341724Y53076D02*
X342232Y53584D01*
D57*
X170942Y567182D02*
Y602892D01*
X187800Y619750D01*
X137668Y533908D02*
X170942Y567182D01*
X121412Y533908D02*
X137668D01*
D59*
X404208Y960740D02*
D03*
X378808D02*
D03*
X353408D02*
D03*
X455008D02*
D03*
X480408D02*
D03*
X505808D02*
D03*
X302608D02*
D03*
X328008D02*
D03*
X556608D02*
D03*
X531208D02*
D03*
Y935340D02*
D03*
X556608D02*
D03*
X328008D02*
D03*
X302608D02*
D03*
X505808D02*
D03*
X480408D02*
D03*
X455008D02*
D03*
X353408D02*
D03*
X378808D02*
D03*
X404208D02*
D03*
D60*
X429608Y869940D02*
D03*
Y311140D02*
D03*
D61*
X187800Y492750D02*
D03*
Y467350D02*
D03*
Y441950D02*
D03*
Y416550D02*
D03*
Y391150D02*
D03*
Y365750D02*
D03*
X670400D02*
D03*
Y391150D02*
D03*
Y416550D02*
D03*
Y441950D02*
D03*
Y467350D02*
D03*
Y492750D02*
D03*
Y518150D02*
D03*
Y543550D02*
D03*
Y634990D02*
D03*
Y812790D02*
D03*
Y787390D02*
D03*
Y761990D02*
D03*
Y736590D02*
D03*
Y711190D02*
D03*
Y685790D02*
D03*
Y660390D02*
D03*
Y609590D02*
D03*
Y584190D02*
D03*
X187800Y721350D02*
D03*
Y695950D02*
D03*
Y670550D02*
D03*
Y645150D02*
D03*
Y619750D02*
D03*
Y594350D02*
D03*
Y568950D02*
D03*
Y543550D02*
D03*
D62*
X760000Y980000D02*
D03*
Y210000D02*
D03*
X40000Y40000D02*
D03*
Y980000D02*
D03*
D63*
X722089Y158456D02*
D03*
X115156Y476748D02*
D03*
D64*
X718914Y133056D02*
D03*
X722089Y107656D02*
D03*
X718914Y82256D02*
D03*
X722089Y56856D02*
D03*
X718914Y31456D02*
D03*
X115156Y451348D02*
D03*
Y425948D02*
D03*
Y400548D02*
D03*
Y375148D02*
D03*
Y349748D02*
D03*
D65*
X480060Y173482D02*
D03*
X421640D02*
D03*
X492278Y45136D02*
D03*
X506636Y51618D02*
D03*
X476278Y45136D02*
D03*
X468278D02*
D03*
X484278D02*
D03*
X492216Y70866D02*
D03*
X202438Y206270D02*
D03*
X64356Y445760D02*
D03*
X65372Y420360D02*
D03*
Y394960D02*
D03*
Y369560D02*
D03*
Y344160D02*
D03*
X616204Y683006D02*
D03*
X64356Y471160D02*
D03*
X131147Y720160D02*
D03*
X121412Y533908D02*
D03*
X338836Y82804D02*
D03*
X452882Y160274D02*
D03*
X19812Y147066D02*
D03*
X606220Y272876D02*
D03*
X622218Y478796D02*
D03*
X591056Y643367D02*
D03*
Y617966D02*
D03*
X590802Y592574D02*
D03*
X527050Y633222D02*
D03*
X435864Y103378D02*
D03*
X532384Y710184D02*
D03*
X49422Y814520D02*
D03*
X442468Y98552D02*
D03*
X302862Y74412D02*
D03*
X380586Y68570D02*
D03*
X429514Y274828D02*
D03*
X429260Y109220D02*
D03*
X310388Y176784D02*
D03*
X529844Y20570D02*
D03*
X522986Y35028D02*
D03*
X407924Y131064D02*
D03*
X112776Y770128D02*
D03*
X120904Y769874D02*
D03*
X101600Y286258D02*
D03*
X112014Y288290D02*
D03*
X125570Y252984D02*
D03*
X262128Y77978D02*
D03*
X25400Y134874D02*
D03*
X32258Y127000D02*
D03*
X163322Y749554D02*
D03*
X128624Y822314D02*
D03*
X100838Y799338D02*
D03*
X107696Y808736D02*
D03*
X343916Y195072D02*
D03*
X334772D02*
D03*
X324104Y195326D02*
D03*
X584200Y499364D02*
D03*
X282702Y402150D02*
D03*
X281686Y376750D02*
D03*
X500380Y120650D02*
D03*
X303022Y130048D02*
D03*
X396240Y144526D02*
D03*
X236474Y176784D02*
D03*
X59182Y308356D02*
D03*
X21844Y870204D02*
D03*
X38862Y914654D02*
D03*
X148336Y897636D02*
D03*
X49422Y838520D02*
D03*
Y830520D02*
D03*
Y822520D02*
D03*
X253238Y78232D02*
D03*
X159606Y91556D02*
D03*
X503692Y68580D02*
D03*
X137668Y104770D02*
D03*
X237998Y49530D02*
D03*
X89756Y878322D02*
D03*
X183736Y886704D02*
D03*
X98138Y878068D02*
D03*
X183736Y876544D02*
D03*
X188816Y914898D02*
D03*
X74008Y941060D02*
D03*
X184950Y86604D02*
D03*
X125570Y846826D02*
D03*
X128364Y814314D02*
D03*
X128110Y732018D02*
D03*
X119220Y806694D02*
D03*
X90010Y914898D02*
D03*
X119220Y732272D02*
D03*
X142334Y744210D02*
D03*
X125058Y830062D02*
D03*
X135730Y738114D02*
D03*
X125058Y838696D02*
D03*
X74516Y803650D02*
D03*
X112870Y52568D02*
D03*
X636110Y496814D02*
D03*
X376268Y43678D02*
D03*
X506636Y43618D02*
D03*
X460278Y45136D02*
D03*
X101948Y490718D02*
D03*
X452218Y15484D02*
D03*
X492216Y120770D02*
D03*
X503522Y83302D02*
D03*
X537812Y99178D02*
D03*
X718914Y821173D02*
D03*
X537812Y115306D02*
D03*
Y123556D02*
D03*
Y107178D02*
D03*
X452278Y121976D02*
D03*
X460278D02*
D03*
X468278D02*
D03*
X476278D02*
D03*
X519270Y138420D02*
D03*
X719168Y617972D02*
D03*
X718914Y745226D02*
D03*
Y795772D02*
D03*
Y770118D02*
D03*
X719168Y719318D02*
D03*
X718914Y694172D02*
D03*
Y668772D02*
D03*
Y643372D02*
D03*
X317186Y61076D02*
D03*
X359758Y60950D02*
D03*
X319880Y53076D02*
D03*
X342232Y53584D02*
D03*
X256380Y50028D02*
D03*
X235804Y160520D02*
D03*
X269080Y184394D02*
D03*
X285082Y183632D02*
D03*
X229710Y168770D02*
D03*
M02*
